<svg width="42" height="42" viewBox="0 0 42 42" fill="none" xmlns="http://www.w3.org/2000/svg">
<path d="M2.27499 16.275L6.12499 36.225L36.225 36.4L39.55 16.275H2.27499ZM21.175 19.95C22.575 19.95 23.8 21.175 23.8 22.575C23.8 23.975 22.575 25.2 21.175 25.2C19.775 25.2 18.55 23.975 18.55 22.575C18.55 21.175 19.6 19.95 21.175 19.95ZM26.425 32.025H15.925C15.925 30.975 15.925 30.1 15.925 29.05C16.1 28.7 18.025 26.6 21.175 26.425C24.5 26.425 26.425 28.7 26.6 29.05V32.025H26.425Z" fill="white"/>
<path d="M8.57498 13.825L9.97498 11.55H31.5L33.25 13.3" stroke="white" stroke-miterlimit="10" stroke-linecap="round"/>
<path d="M4.90001 13.475L3.85001 4.9H14.35L15.75 7.175H37.625L36.75 13.3" stroke="white" stroke-miterlimit="10" stroke-linecap="round"/>
</svg>
