<svg width="48" height="48" viewBox="0 0 48 48" fill="none" xmlns="http://www.w3.org/2000/svg">
<path d="M28.5531 29.6143C26.7733 31.1658 24.4003 32.1354 21.8295 32.1354C16.0947 32.1354 11.5463 27.675 11.5463 22.051C11.5463 16.4269 16.0947 11.9665 21.8295 11.9665C27.5643 11.9665 32.1127 16.4269 32.1127 22.051C32.1127 24.3782 31.3217 26.3175 29.9374 28.0629L33.6947 30.9718V6.92427H6.40475V41.4442H33.6947V34.2687L28.5531 29.6143Z" fill="white"/>
<path d="M33.6947 30.9718L41.8026 36.9837V41.2502L33.6947 34.2687V30.9718Z" fill="white"/>
<path d="M17.0834 20.1116H18.8632V25.7357H17.0834V20.1116Z" fill="white"/>
<path d="M20.643 17.0087H22.4228V25.7357H20.643C20.643 25.7357 20.8408 17.0087 20.643 17.0087Z" fill="white"/>
<path d="M24.2025 25.7357H25.9823V20.1116H24.2025V25.7357Z" fill="white"/>
</svg>
