<svg width="39" height="39" viewBox="0 0 39 39" fill="none" xmlns="http://www.w3.org/2000/svg">
<path d="M16.9 19.175H4.875L3.9 16.7375H0.162498V19.0125H2.4375L6.5 27.7875L4.875 30.225C3.9 31.85 5.0375 33.9625 6.825 33.9625H20.3125V31.85H6.6625L7.9625 29.25H17.875L21.2875 22.9125C19.6625 22.1 18.0375 20.8 16.9 19.175Z" fill="white"/>
<path d="M26.65 0.324997C19.9875 0.324997 14.625 5.6875 14.625 12.35C14.625 14.95 15.4375 17.225 16.7375 19.175H23.2375L21.125 23.075C22.75 23.8875 24.5375 24.375 26.4875 24.375C33.15 24.375 38.5125 19.0125 38.5125 12.35C38.5125 5.6875 33.3125 0.324997 26.65 0.324997Z" fill="white"/>
<path d="M26.65 24.375C33.2912 24.375 38.675 18.9912 38.675 12.35C38.675 5.70877 33.2912 0.324997 26.65 0.324997C20.0088 0.324997 14.625 5.70877 14.625 12.35C14.625 18.9912 20.0088 24.375 26.65 24.375Z" fill="white"/>
<path d="M7.15 38.675C8.1372 38.675 8.9375 37.8747 8.9375 36.8875C8.9375 35.9003 8.1372 35.1 7.15 35.1C6.16279 35.1 5.3625 35.9003 5.3625 36.8875C5.3625 37.8747 6.16279 38.675 7.15 38.675Z" fill="white"/>
<path d="M18.3625 38.675C19.3497 38.675 20.15 37.8747 20.15 36.8875C20.15 35.9003 19.3497 35.1 18.3625 35.1C17.3753 35.1 16.575 35.9003 16.575 36.8875C16.575 37.8747 17.3753 38.675 18.3625 38.675Z" fill="white"/>
<path d="M22.2625 9.425C21.775 8.6125 22.9125 7.15 23.8875 6.3375C25.5125 5.2 27.3 5.6875 27.625 5.6875C29.25 6.0125 31.2 7.475 31.2 9.1C31.2 10.4 30.225 11.7 29.0875 12.35C28.7625 12.5125 28.275 12.675 28.1125 13.1625C27.625 13.8125 27.7875 14.3 27.4625 14.625C27.1375 14.95 26.4875 15.1125 26.1625 14.95C25.5125 14.625 25.5125 13.4875 25.8375 12.675C26.325 11.375 27.625 11.7 28.275 10.4C28.275 10.4 28.925 9.1 28.275 8.2875C27.625 7.475 26.325 7.3125 25.5125 7.9625C24.8625 8.45 25.1875 9.1 24.375 9.75C24.2125 9.75 23.725 10.2375 23.075 10.075C22.9125 9.9125 22.425 9.75 22.2625 9.425Z" fill="#28529F"/>
<path d="M26.4875 19.5C27.2952 19.5 27.95 18.8452 27.95 18.0375C27.95 17.2298 27.2952 16.575 26.4875 16.575C25.6798 16.575 25.025 17.2298 25.025 18.0375C25.025 18.8452 25.6798 19.5 26.4875 19.5Z" fill="#28529F"/>
</svg>
