<svg width="41" height="41" viewBox="0 0 41 41" fill="none" xmlns="http://www.w3.org/2000/svg">
<g clip-path="url(#clip0)">
<path d="M17.0833 30.4083C16.9125 30.4083 16.5708 30.2375 16.4 30.2375C16.2292 30.0667 16.2292 29.8958 16.2292 29.5542L16.5708 3.41667C16.5708 2.90417 16.9125 2.5625 17.425 2.5625H35.875C36.3875 2.5625 36.7292 2.90417 36.7292 3.41667V8.37083V29.5542C36.7292 30.0667 36.3875 30.4083 35.875 30.4083H17.0833Z" fill="white"/>
<path d="M35.875 3.41667V8.37083V29.5542H17.0833L17.425 3.41667H28.5292H35.875ZM35.875 1.70833H28.3583H17.2542C16.4 1.70833 15.5458 2.39167 15.5458 3.41667L15.375 29.5542C15.375 30.5792 16.0583 31.2625 17.0833 31.2625H35.875C36.9 31.2625 37.5833 30.5792 37.5833 29.5542V8.37083V3.41667C37.5833 2.39167 36.9 1.70833 35.875 1.70833Z" fill="white"/>
<path d="M16.7416 9.22499H6.83331V35.875H26.65V29.0417" stroke="white" stroke-width="3" stroke-miterlimit="10" stroke-linejoin="round"/>
</g>
<defs>
<clipPath id="clip0">
<rect width="41" height="41" fill="white"/>
</clipPath>
</defs>
</svg>
