<svg width="46" height="46" viewBox="0 0 46 46" fill="none" xmlns="http://www.w3.org/2000/svg">
<path d="M1.72499 42.1667C1.53333 40.0584 1.53333 37.1834 2.68333 34.1167C2.87499 33.7334 3.06666 33.35 3.25833 32.9667C3.25833 32.775 3.44999 32.3917 3.64166 32.2C4.02499 31.8167 4.40833 31.625 4.59999 31.4334C8.81666 30.2834 13.0333 29.325 17.25 28.175L20.7 38.9084L21.85 32.2L21.0833 30.2834L21.4667 29.1334H24.9167L25.1083 30.0917L24.5333 31.625L25.3 38.525L28.75 27.7917L41.2083 30.8584C41.4 31.05 41.7833 31.2417 42.1667 31.625C42.55 32.0084 42.7417 32.2 42.9333 32.5834C43.3167 33.5417 43.7 34.5 43.8917 35.8417C44.4667 38.3334 44.4667 40.6334 44.4667 42.3584C39.675 43.8917 32.2 45.8084 23 45.8084C13.9917 45.6167 6.70833 43.8917 1.72499 42.1667Z" fill="white"/>
<path d="M13.9917 16.675L13.225 9.96667C14.375 5.36667 18.4 2.10834 23.1917 2.10834C27.7917 2.10834 32.0083 5.36667 33.1583 9.77501L32.5833 16.675L35.2667 16.8667C35.4583 16.675 35.65 16.2917 35.8417 16.1C37.1833 13.8 36.4167 10.925 36.0333 9.96667C35.8417 9.96667 35.4583 9.77501 35.2667 9.77501C33.925 4.21667 29.1333 0.383341 23.575 0.383341C17.6333 0.191675 12.65 4.02501 11.5 9.58334L10.5417 9.77501C10.35 10.35 9.00832 13.4167 10.7333 15.9083C10.925 16.2917 11.1167 16.675 11.5 16.8667C12.4583 16.8667 13.225 16.8667 13.9917 16.675Z" fill="white"/>
<path d="M30.8583 16.8667C30.6667 17.25 30.6667 17.6333 30.475 18.0167C30.6667 17.6333 30.6667 17.25 30.8583 16.8667Z" fill="white"/>
<path d="M23.1917 4.21667C18.7833 4.21667 13.9917 7.28334 15.3333 15.1417C16.2917 21.0833 18.975 25.875 23.1917 25.875C26.8333 25.875 29.325 22.6167 30.475 18.0167C29.7083 18.2083 28.9417 18.5917 27.9833 18.7833C26.8333 19.1667 25.6833 19.1667 24.725 19.3583C24.725 19.55 24.5333 19.7417 24.3417 19.9333C24.15 20.125 23.7667 20.3167 23.575 20.5083C22.8083 20.5083 21.85 20.5083 21.0833 20.5083C20.8917 20.5083 20.5083 20.3167 20.125 20.125C19.7417 19.9333 19.55 19.55 19.55 19.3583C19.55 18.975 19.55 18.5917 19.55 18.2083C19.55 18.0167 19.7417 17.825 20.125 17.4417C20.5083 17.0583 20.7 17.0583 20.8917 17.0583C21.85 17.0583 22.6167 17.0583 23.575 17.0583C23.7667 17.0583 23.9583 17.25 24.15 17.4417C24.3417 17.6333 24.5333 17.825 24.725 18.0167C25.6833 18.0167 27.025 17.825 28.175 17.4417C29.325 17.25 30.0917 16.8667 31.05 16.4833C31.05 16.1 31.2417 15.7167 31.2417 15.3333C32.2 6.32501 27.6 4.21667 23.1917 4.21667Z" fill="white"/>
</svg>
