<svg width="36" height="37" viewBox="0 0 36 37" fill="none" xmlns="http://www.w3.org/2000/svg">
<g clip-path="url(#clip0)">
<path d="M34.0755 16.264C32.6426 11.2041 31.0267 8.58965 31.0006 8.54275C30.9085 8.4272 28.625 5.61867 23.1214 3.54132L22.3942 5.57632C25.0124 6.56463 26.8699 7.77031 27.8915 8.54933C24.8416 7.61327 21.2134 7.03999 18 7.03999C14.7866 7.03999 11.1584 7.61327 8.10851 8.54933C9.13001 7.77038 10.9875 6.56463 13.6058 5.57632L12.8785 3.54132C7.37508 5.61867 5.09161 8.4272 4.9995 8.54275C4.97341 8.58965 3.35742 11.2041 1.92459 16.264C0.543656 21.1402 0.0190547 28.0191 0 28.2949C0.123047 28.4926 2.95312 33.4587 10.6659 33.4587L12.6209 30.5492C10.4306 29.9514 8.34216 28.9876 6.43036 27.6796L7.59916 25.8749C10.6834 27.9849 14.28 29.1002 18 29.1002C21.72 29.1002 25.3166 27.9849 28.4008 25.8749L29.5696 27.6796C27.6579 28.9876 25.5694 29.9514 23.3791 30.5492L25.3341 33.4587C33.0469 33.4587 35.877 28.4926 36 28.2949C35.9809 28.0191 35.4563 21.1402 34.0755 16.264ZM13.1233 21.9355H11.0139V18.3222H13.1233V21.9355ZM24.9861 21.9355H22.8767V18.3222H24.9861V21.9355Z" fill="white"/>
</g>
<defs>
<clipPath id="clip0">
<rect width="36" height="37" fill="white"/>
</clipPath>
</defs>
</svg>
