<svg width="44" height="41" viewBox="0 0 44 41" fill="none" xmlns="http://www.w3.org/2000/svg">
<path d="M2.01666 17.5958C3.85 7.68747 12.4667 0.683308 21.2667 0.512475C32.2667 0.341642 43.0833 10.9333 41.25 24.0875H16.1333C15.5833 25.1125 13.75 31.6041 24.9333 32.2875C31.7167 32.6291 36.6667 30.4083 37.0333 30.0666L37.4 38.4375C35.2 39.4625 30.6167 41.1708 24.75 40.8291C22 40.6583 16.1333 40.3166 11.1833 36.0458C10.0833 35.0208 5.86666 31.2625 5.68333 25.4541C5.68333 19.9875 10.0833 14.5208 16.1333 11.6166C15.95 11.9583 14.4833 12.9833 14.1167 14.35C13.75 15.375 13.9333 16.2291 13.9333 16.7416C19.25 16.7416 24.75 16.7416 30.0667 16.7416C31.1667 13.1541 28.6 8.02914 23.1 7.8583C18.7 7.8583 7.15 8.71247 2.01666 17.5958Z" fill="white"/>
</svg>
