<svg width="32" height="32" viewBox="0 0 32 32" fill="none" xmlns="http://www.w3.org/2000/svg">
<g clip-path="url(#clip0)">
<path d="M16.0053 7.78406C11.468 7.78406 7.79466 11.4614 7.79466 15.9947C7.79466 20.5321 11.472 24.2054 16.0053 24.2054C20.5427 24.2054 24.216 20.5281 24.216 15.9947C24.216 11.4574 20.5387 7.78406 16.0053 7.78406ZM16.0053 21.3241C13.06 21.3241 10.676 18.9387 10.676 15.9947C10.676 13.0507 13.0613 10.6654 16.0053 10.6654C18.9493 10.6654 21.3347 13.0507 21.3347 15.9947C21.336 18.9387 18.9507 21.3241 16.0053 21.3241Z" fill="white"/>
<path d="M22.5971 0.101919C19.6531 -0.035414 12.3611 -0.0287473 9.41445 0.101919C6.82512 0.223253 4.54112 0.848586 2.69978 2.68992C-0.377549 5.76725 0.0157842 9.91392 0.0157842 15.9953C0.0157842 22.2193 -0.330882 26.2699 2.69978 29.3006C5.78912 32.3886 9.99578 31.9846 16.0051 31.9846C22.1704 31.9846 24.2984 31.9886 26.4784 31.1446C29.4424 29.9939 31.6798 27.3446 31.8984 22.5859C32.0371 19.6406 32.0291 12.3499 31.8984 9.40326C31.6344 3.78592 28.6198 0.379253 22.5971 0.101919ZM27.2571 27.2646C25.2398 29.2819 22.4411 29.1019 15.9664 29.1019C9.29978 29.1019 6.62645 29.2006 4.67578 27.2446C2.42912 25.0086 2.83578 21.4179 2.83578 15.9739C2.83578 8.60725 2.07978 3.30192 9.47312 2.92325C11.1718 2.86325 11.6718 2.84325 15.9478 2.84325L16.0078 2.88325C23.1131 2.88325 28.6878 2.13925 29.0224 9.53126C29.0984 11.2179 29.1158 11.7246 29.1158 15.9939C29.1144 22.5833 29.2398 25.2726 27.2571 27.2646Z" fill="white"/>
<path d="M24.5413 9.37865C25.601 9.37865 26.46 8.51964 26.46 7.45999C26.46 6.40034 25.601 5.54132 24.5413 5.54132C23.4817 5.54132 22.6227 6.40034 22.6227 7.45999C22.6227 8.51964 23.4817 9.37865 24.5413 9.37865Z" fill="white"/>
</g>
<defs>
<clipPath id="clip0">
<rect width="32" height="32" fill="white"/>
</clipPath>
</defs>
</svg>
