<svg width="31" height="29" viewBox="0 0 31 29" fill="none" xmlns="http://www.w3.org/2000/svg">
<g clip-path="url(#clip0)">
<path d="M30.2008 29V28.9988H30.2083V18.363C30.2083 13.16 29.0415 9.15192 22.7053 9.15192C19.6593 9.15192 17.6152 10.7566 16.7807 12.2779H16.6926V9.63767H10.6849V28.9988H16.9406V19.4119C16.9406 16.8877 17.439 14.4468 20.6952 14.4468C23.9036 14.4468 23.9514 17.3275 23.9514 19.5738V29H30.2008Z" fill="white"/>
<path d="M0.498442 9.63885H6.76164V29H0.498442V9.63885Z" fill="white"/>
<path d="M3.62752 0C1.62496 0 0 1.55996 0 3.48242C0 5.40488 1.62496 6.99746 3.62752 6.99746C5.63008 6.99746 7.25503 5.40488 7.25503 3.48242C7.25378 1.55996 5.62882 0 3.62752 0V0Z" fill="white"/>
</g>
<defs>
<clipPath id="clip0">
<rect width="30.2083" height="29" fill="white"/>
</clipPath>
</defs>
</svg>
