<svg width="40" height="40" viewBox="0 0 40 40" fill="none" xmlns="http://www.w3.org/2000/svg">
<g clip-path="url(#clip0)">
<path d="M36.8083 7.88835L40 4.83502V4.16669H28.9433L21.0633 23.78L12.0983 4.16669H0.505V4.83502L4.23333 9.32335C4.59667 9.65502 4.78667 10.14 4.73833 10.6284V28.2667C4.85333 28.9017 4.64667 29.555 4.2 30.0167L0 35.1067V35.7667H11.9083V35.0984L7.70833 30.0167C7.25333 29.5534 7.03833 28.9117 7.13 28.2667V13.01L17.5833 35.775H18.7983L27.7867 13.01V31.145C27.7867 31.6234 27.7867 31.7217 27.4733 32.035L24.24 35.1634V35.8334H39.9267V35.165L36.81 32.1134C36.5367 31.9067 36.395 31.56 36.4533 31.2234V8.77836C36.395 8.44002 36.535 8.09335 36.8083 7.88835Z" fill="white"/>
</g>
<defs>
<clipPath id="clip0">
<rect width="40" height="40" fill="white"/>
</clipPath>
</defs>
</svg>
