<svg width="38" height="38" viewBox="0 0 38 38" fill="none" xmlns="http://www.w3.org/2000/svg">
<g clip-path="url(#clip0)">
<path d="M19 5.66721C20.646 5.66721 22.0678 4.6177 22.5785 3.07379C21.6041 3.34202 20.3621 3.50391 19 3.50391C17.638 3.50391 16.396 3.34202 15.4218 3.07379C15.9322 4.61758 17.3539 5.66721 19 5.66721Z" fill="white"/>
<path d="M37.9527 7.56576C37.8745 7.3464 37.7118 7.16599 37.4999 7.06776L30.2551 3.72328C28.714 3.20123 27.144 2.78886 25.5587 2.48745C25.5029 2.47652 25.4473 2.47125 25.3926 2.47125C25.0001 2.47125 24.6487 2.74218 24.5613 3.13951C23.9824 5.68805 21.7264 7.59611 18.9999 7.59611C16.2735 7.59611 14.0174 5.68817 13.4386 3.13951C13.3501 2.74218 12.9994 2.47125 12.6072 2.47125C12.5524 2.47125 12.4969 2.47652 12.441 2.48745C10.8559 2.78886 9.28584 3.20123 7.74232 3.72328L0.500061 7.06763C0.286868 7.16587 0.123052 7.34627 0.0486013 7.56563C-0.0284207 7.78757 -0.0145336 8.02712 0.0939916 8.23646L3.23916 14.4435C3.38639 14.7381 3.68587 14.9149 4.0027 14.9149C4.08448 14.9149 4.16741 14.903 4.24919 14.8785L7.74244 13.8431V34.6699C7.74244 35.1429 8.12833 35.5286 8.60255 35.5286H29.3976C29.8705 35.5286 30.2552 35.1427 30.2552 34.6699V13.8434L33.7509 14.8787C33.8327 14.9033 33.9155 14.9151 33.9972 14.9151C34.3134 14.9151 34.6117 14.7383 34.761 14.4437L37.9073 8.23672C38.0133 8.02725 38.0284 7.7877 37.9527 7.56576Z" fill="white"/>
</g>
<defs>
<clipPath id="clip0">
<rect width="38" height="38" fill="white"/>
</clipPath>
</defs>
</svg>
