<svg width="38" height="39" viewBox="0 0 38 39" fill="none" xmlns="http://www.w3.org/2000/svg">
<g clip-path="url(#clip0)">
<path d="M26.0508 0.660324V7.55812H32.8205L26.0508 0.660324Z" fill="white"/>
<path d="M21.2915 14.5196H16.7085C15.841 16.0625 14.3762 17.1148 12.6914 17.4389V22.8834C12.6914 26.9864 15.2127 30.5504 19 31.8568C22.7873 30.5504 25.3086 26.9864 25.3086 22.8834V17.4389C23.6238 17.1148 22.159 16.0625 21.2915 14.5196ZM22.936 21.8794L18.7376 26.1572C18.5202 26.3787 18.2353 26.4895 17.9505 26.4895C17.6656 26.4895 17.3806 26.3788 17.1633 26.1572L15.0641 24.0183C14.6293 23.5753 14.6293 22.8571 15.0641 22.4141C15.4988 21.9711 16.2037 21.9711 16.6385 22.4141L17.9505 23.7509L21.3618 20.2752C21.7965 19.8322 22.5014 19.8322 22.9362 20.2752C23.3708 20.7182 23.3708 21.4364 22.936 21.8794Z" fill="white"/>
<path d="M24.9375 9.83098C24.3227 9.83098 23.8242 9.3231 23.8242 8.69664V0H8.60938C6.35854 0 4.52734 1.86584 4.52734 4.15926V34.5597C4.52734 36.8531 6.35854 38.7189 8.60938 38.7189H29.3906C31.6415 38.7189 33.4727 36.8531 33.4727 34.5597V9.83098H24.9375ZM27.5352 22.8833C27.5352 25.4283 26.747 27.8528 25.256 29.8947C23.7651 31.9365 21.7123 33.4024 19.3199 34.1337C19.2155 34.1656 19.1078 34.1816 19 34.1816C18.8922 34.1816 18.7845 34.1656 18.6801 34.1337C16.2877 33.4024 14.2349 31.9365 12.744 29.8947C11.253 27.8528 10.4648 25.4283 10.4648 22.8833V16.4102C10.4648 15.7837 10.9633 15.2758 11.5781 15.2758C12.9849 15.2758 14.2497 14.4794 14.8788 13.1973L15.0355 12.8781C15.224 12.4937 15.6095 12.2509 16.0312 12.2509H21.9688C22.3905 12.2509 22.776 12.4937 22.9645 12.878L23.1212 13.1973C23.7503 14.4794 25.0151 15.2758 26.4219 15.2758C27.0367 15.2758 27.5352 15.7837 27.5352 16.4102V22.8833Z" fill="white"/>
</g>
<defs>
<clipPath id="clip0">
<rect width="38" height="38.7189" fill="white"/>
</clipPath>
</defs>
</svg>
