<svg width="32" height="32" viewBox="0 0 32 32" fill="none" xmlns="http://www.w3.org/2000/svg">
<g clip-path="url(#clip0)">
<path d="M28.4333 12.4107C27.4227 12.4107 26.5333 12.836 25.8787 13.4987C23.472 11.808 20.2267 10.72 16.6307 10.604L18.4987 2.06269L24.4467 3.41735C24.4467 4.89469 25.6333 6.10135 27.0893 6.10135C28.5733 6.10135 29.7667 4.86269 29.7667 3.38402C29.7667 1.90535 28.5813 0.666687 27.0907 0.666687C26.052 0.666687 25.156 1.30269 24.7093 2.17202L18.14 0.694687C17.8093 0.605354 17.4853 0.845354 17.3973 1.18135L15.3467 10.5974C11.7787 10.748 8.568 11.8347 6.15334 13.5267C5.49867 12.836 4.57467 12.4107 3.564 12.4107C-0.18533 12.4107 -1.41333 17.516 2.02 19.2614C1.89867 19.8014 1.844 20.3774 1.844 20.952C1.844 26.6867 8.21067 31.3334 16.028 31.3334C23.8787 31.3334 30.2453 26.6867 30.2453 20.952C30.2453 20.3774 30.1853 19.7747 30.0373 19.2334C33.4013 17.4814 32.1627 12.4134 28.4333 12.4107ZM7.468 19.624C7.468 18.1187 8.65467 16.9067 10.1453 16.9067C11.6013 16.9067 12.7893 18.1107 12.7893 19.624C12.7893 21.1027 11.6027 22.308 10.1453 22.308C8.66134 22.3147 7.468 21.1027 7.468 19.624ZM21.92 26.0214C19.4653 28.512 12.5387 28.512 10.0827 26.0214C9.812 25.7814 9.812 25.3574 10.0827 25.084C10.3187 24.844 10.7373 24.844 10.9733 25.084C12.848 27.0347 19.0667 27.068 21.0227 25.084C21.2587 24.844 21.6773 24.844 21.9133 25.084C22.1893 25.3587 22.1893 25.7827 21.92 26.0214ZM21.8653 22.3134C20.4093 22.3134 19.2227 21.1094 19.2227 19.632C19.2227 18.1267 20.4093 16.9147 21.8653 16.9147C23.3493 16.9147 24.5427 18.1187 24.5427 19.632C24.536 21.1027 23.3493 22.3134 21.8653 22.3134Z" fill="white"/>
</g>
<defs>
<clipPath id="clip0">
<rect width="32" height="32" fill="white"/>
</clipPath>
</defs>
</svg>
