<svg width="49" height="49" viewBox="0 0 49 49" fill="none" xmlns="http://www.w3.org/2000/svg">
<path d="M28.3792 47.775V39.2C28.5833 36.9542 30.2167 35.3208 32.4625 35.3208C34.7083 35.3208 36.5458 37.1583 36.5458 39.4042H32.4625L40.425 47.5708L48.5917 39.4042H44.7125C44.1 32.6667 38.7917 27.5625 32.6667 27.5625C27.1542 27.5625 22.2542 31.4417 20.825 37.1583L20.4167 47.775H28.3792Z" fill="white"/>
<path d="M20.4167 30.8292C21.0292 30.0125 22.05 28.9917 23.275 27.7667C24.7042 26.7458 25.9292 26.1333 26.95 25.725C26.3375 24.7042 24.7042 22.2542 21.6417 20.825C18.9875 19.6 16.5375 19.6 15.5167 19.6C15.1083 19.3958 14.2917 18.9875 13.475 18.1708C12.8625 17.5583 12.6583 16.7417 12.6583 16.3333V13.8833H16.5375L8.37083 5.71667L0.408325 13.8833H4.69583V17.15C4.89999 18.1708 5.51249 21.0292 7.96249 23.6833C10.4125 26.3375 13.475 26.95 14.4958 27.1542C15.1083 26.95 16.1292 26.7458 17.3542 27.1542C17.7625 27.3583 18.7833 27.5625 19.6 28.3792C20.2125 29.4 20.4167 30.4208 20.4167 30.8292Z" fill="white"/>
<path d="M28.3792 22.6625V9.8H32.8708L24.5 1.42917L15.925 10.0042H20.6208V17.3542C21.6417 17.7625 23.0708 18.1708 24.5 19.1917C26.3375 20.2125 27.5625 21.8458 28.3792 22.6625Z" fill="white"/>
</svg>
