<svg width="61" height="60" viewBox="0 0 61 60" fill="none" xmlns="http://www.w3.org/2000/svg">
<path d="M10.4208 33H23.3833C23.3833 36.75 26.4333 39.75 30.2458 39.5C33.8042 39.5 36.8542 36.5 36.8542 33H49.8167V35.5L44.225 36.25C44.225 36.75 43.9708 37.5 43.4625 38.5C43.2083 39.25 42.9542 39.75 42.4458 40.25C43.4625 41.75 44.7333 43.25 45.75 44.5L41.9375 48.5L37.3625 45C36.8542 45.25 36.3458 45.75 35.3292 46C34.5667 46.25 33.8042 46.5 33.2958 46.75C33.0417 48.75 33.0417 50.5 32.7875 52.5H27.1958L26.6875 47C25.925 46.75 25.1625 46.5 24.1458 46.25C23.3833 46 22.875 45.5 22.3667 45.25C20.8417 46.5 19.5708 47.5 18.0458 48.75L13.9792 45L17.7917 40.5C17.5375 40 17.0292 39.5 16.775 38.5C16.5208 37.75 16.2667 36.75 16.2667 36.25C14.2333 36 12.4542 35.75 10.4208 35.75V33Z" fill="white"/>
<path d="M10.4208 30.25V23.75C10.675 23.25 10.9292 22.5 11.9458 21.75C12.7083 21.25 13.2167 21 13.725 20.75C15.25 20.75 16.775 20.75 18.3 20.75C18.0458 21.5 17.7917 22.25 17.5375 23C17.0292 25.75 17.0292 28.5 17.5375 30.25C17.5375 30.25 10.4208 30.5 10.4208 30.25Z" fill="white"/>
<path d="M41.9375 20.75H46.5125C46.7667 20.75 47.7833 21 48.5458 21.75C49.3083 22.5 49.5625 23.25 49.5625 23.75C49.5625 26 49.5625 28 49.5625 30.25H42.7C43.2083 28.5 43.4625 26 42.7 23.25C42.7 22.25 42.4458 21.5 41.9375 20.75Z" fill="white"/>
<path d="M29.9917 18C32.7991 18 35.075 15.7614 35.075 13C35.075 10.2386 32.7991 8 29.9917 8C27.1842 8 24.9083 10.2386 24.9083 13C24.9083 15.7614 27.1842 18 29.9917 18Z" fill="white"/>
<path d="M14.9958 14.75C14.9958 12.5 17.0292 10.25 19.3167 10.25C22.1125 10.25 23.3833 12.25 23.6375 13.75C23.6375 14.25 23.8917 16.25 23.3833 16.75C22.875 17.5 22.1125 17 21.0958 17.5C19.825 18.25 20.0792 19 19.3167 19.25C18.0458 19.75 14.9958 17.75 14.9958 14.75Z" fill="white"/>
<path d="M36.6 14C36.8542 12.25 38.3792 10.25 41.175 10.5C43.7167 10.5 45.4958 12.75 45.4958 15C45.4958 17.75 42.7 19.75 41.175 19.5C40.4125 19.25 40.6667 18.5 39.3958 18C38.3792 17.25 37.3625 17.75 36.8542 17C36.3458 16.25 36.3458 14.25 36.6 14Z" fill="white"/>
<path d="M20.3333 30.25V23C20.3333 22.5 20.8417 21.75 21.6042 21C22.3667 20.25 23.1292 20 23.6375 19.75C27.9583 19.75 32.025 19.75 36.3458 19.75C36.8542 19.75 37.8708 20 38.6333 21C39.3958 21.75 39.65 22.5 39.9042 23C39.9042 25.5 39.9042 28 39.9042 30.5L20.3333 30.25Z" fill="white"/>
</svg>
