<svg width="38" height="39" viewBox="0 0 38 39" fill="none" xmlns="http://www.w3.org/2000/svg">
<g clip-path="url(#clip0)">
<path d="M36.3768 15.3434L22.942 1.65446C20.7318 -0.551528 17.2693 -0.551528 15.0592 1.65446L1.62438 15.3434C-0.535538 17.5668 -0.535538 21.1517 1.62438 23.3751L15.0592 37.064C17.2694 39.2703 20.7318 39.2703 22.9419 37.064L36.3767 23.3751C38.5366 21.1517 38.5366 17.5668 36.3768 15.3434ZM29.021 14.8216C29.021 15.4481 28.5224 15.956 27.9076 15.956H21.2273V30.7037C21.2273 31.3302 20.7288 31.8381 20.114 31.8381H17.8872C17.2723 31.8381 16.7738 31.3302 16.7738 30.7037V15.9561H10.0936C9.47865 15.9561 8.9802 15.4481 8.9802 14.8217V12.5527C8.9802 11.9261 9.47872 11.4183 10.0936 11.4183H27.9076C28.5225 11.4183 29.021 11.9261 29.021 12.5527V14.8216Z" fill="white"/>
</g>
<defs>
<clipPath id="clip0">
<rect width="38" height="38.7188" fill="white"/>
</clipPath>
</defs>
</svg>
