<svg width="32" height="32" viewBox="0 0 32 32" fill="none" xmlns="http://www.w3.org/2000/svg">
<path d="M30.02 8.02442C28.1937 8.02442 26.5087 7.41941 25.1556 6.39879C23.6037 5.22879 22.4887 3.51254 22.095 1.53441C21.9975 1.04566 21.945 0.541289 21.94 0.0244141H16.7231V14.2794L16.7169 22.0875C16.7169 24.175 15.3575 25.945 13.4731 26.5675C12.9262 26.7482 12.3356 26.8338 11.7206 26.8C10.9356 26.7569 10.2 26.52 9.56062 26.1375C8.19999 25.3238 7.27749 23.8475 7.25249 22.1588C7.21312 19.5194 9.34687 17.3675 11.9844 17.3675C12.505 17.3675 13.005 17.4525 13.4731 17.6069V13.7107V12.31C12.9794 12.2369 12.4769 12.1988 11.9687 12.1988C9.08187 12.1988 6.38187 13.3988 4.45187 15.5607C2.99312 17.1944 2.11812 19.2788 1.98312 21.4644C1.80624 24.3357 2.85687 27.065 4.89437 29.0788C5.19374 29.3744 5.50812 29.6488 5.83687 29.9019C7.58374 31.2463 9.71937 31.975 11.9687 31.975C12.4769 31.975 12.9794 31.9375 13.4731 31.8644C15.5744 31.5532 17.5131 30.5913 19.0431 29.0788C20.9231 27.2207 21.9619 24.7538 21.9731 22.1282L21.9462 10.4682C22.8431 11.16 23.8237 11.7325 24.8762 12.1769C26.5131 12.8675 28.2487 13.2175 30.035 13.2169V9.42879V8.02316C30.0362 8.02442 30.0212 8.02442 30.02 8.02442Z" fill="white"/>
</svg>
