<svg width="39" height="41" viewBox="0 0 39 41" fill="none" xmlns="http://www.w3.org/2000/svg">
<g clip-path="url(#clip0)">
<path d="M35.9125 6.15211H2.925C2.1125 6.15211 1.3 5.47897 1.3 4.46926V3.45955C1.3 2.61813 1.95 1.7767 2.925 1.7767H36.075C36.8875 1.7767 37.7 2.44984 37.7 3.45955V4.46926C37.5375 5.31068 36.8875 6.15211 35.9125 6.15211Z" stroke="white" stroke-miterlimit="10"/>
<path d="M33.15 29.8803H6.01251V30.89H33.15V29.8803Z" fill="white"/>
<path d="M33.15 8.00327H6.01251V9.01297H33.15V8.00327Z" fill="white"/>
<path d="M4.7125 0.598724H0.162502V7.16183H4.7125V0.598724Z" fill="white"/>
<path d="M38.8375 0.598724H35.5875V7.16183H38.8375V0.598724Z" fill="white"/>
<path d="M4.71251 6.82527V30.89L19.5 40.6505L34.45 31.0583V6.65698L4.71251 6.82527ZM7.6375 29.712C7.6375 30.0486 7.31251 30.3851 6.98751 30.3851C6.66251 30.3851 6.33751 30.0486 6.33751 29.712V9.18125C6.33751 8.84468 6.66251 8.50812 6.98751 8.50812C7.31251 8.50812 7.6375 8.84468 7.6375 9.18125V29.712ZM20.3125 27.6926V28.534C20.3125 29.0389 19.9875 29.3754 19.5 29.3754C19.0125 29.3754 18.6875 29.0389 18.6875 28.534V27.6926C16.7375 27.356 15.1125 25.8414 14.4625 23.6537L15.925 23.1489C16.4125 24.6635 17.55 25.6732 18.6875 26.0097V20.4563C16.575 19.9515 14.3 19.1101 14.4625 16.4175C14.4625 14.7347 16.25 12.3787 18.6875 11.8738V11.2007C18.85 10.8641 19.175 10.3592 19.5 10.3592C19.9875 10.3592 20.3125 10.6958 20.3125 11.2007V11.8738C22.2625 12.2104 24.05 13.8932 24.5375 16.0809L22.9125 16.5858C22.5875 15.0712 21.45 13.8932 20.3125 13.5567V19.1101C22.425 19.6149 24.5375 20.4563 24.5375 22.9806C24.5375 25 22.75 27.356 20.3125 27.6926ZM32.6625 29.712C32.6625 30.0486 32.3375 30.3851 32.0125 30.3851C31.6875 30.3851 31.3625 30.0486 31.3625 29.712V9.18125C31.3625 8.84468 31.6875 8.50812 32.0125 8.50812C32.3375 8.50812 32.6625 8.84468 32.6625 9.18125V29.712Z" fill="white"/>
<path d="M16.0875 16.4175C16.0875 17.9321 17.225 18.4369 18.85 18.9418V13.5567C17.3875 13.8932 16.0875 15.2395 16.0875 16.4175Z" fill="white"/>
<path d="M20.3125 20.7929V26.0097C21.775 25.6732 23.075 24.4952 22.9125 22.8123C22.9125 21.6343 21.775 21.1295 20.3125 20.7929Z" fill="white"/>
</g>
<defs>
<clipPath id="clip0">
<rect width="39" height="40.3883" fill="white" transform="translate(0 0.262146)"/>
</clipPath>
</defs>
</svg>
