<svg width="48" height="48" viewBox="0 0 48 48" fill="none" xmlns="http://www.w3.org/2000/svg">
<path d="M13.2 13.2L14.4 13V6.20001C15 4.00001 15.8 3.00001 19 2.20001C24 1.00001 24.4 3.40001 24.6 5.00001V10.8L26 10.4V4.40001C25.4 2.20001 24.6 -1.19999 18.2 0.800009C13.8 2.20001 14 3.40001 13.2 6.00001V13.2Z" fill="white"/>
<path d="M19.8 11.8L21 11.6V8.60001C21 8.40001 21.2 7.60001 21.8 6.80001C22.6 6.20001 23.2 6.00001 23.6 6.00001C23.6 5.60001 23.6 5.20001 23.6 4.60001C23.2 4.60001 22 4.80001 21 6.00001C20 7.00001 20 8.20001 20 8.40001C20 9.60001 20 10.6 19.8 11.8Z" fill="white"/>
<path d="M27 4.00002L27.2 5.20002H28.8C29 5.20002 29.4 5.20002 29.8 5.60002C30.6 6.20002 30.4 7.20002 30.4 7.20002C30.4 8.20002 30.4 9.00002 30.4 10L31.6 9.80002V6.60002C31.6 6.40002 31.6 5.00002 30.4 4.20002C29.8 3.80002 29.2 3.80002 28.8 3.80002C28 3.80002 27.4 3.80002 27 4.00002Z" fill="white"/>
<path d="M37.4 9.80002L4.00001 16.4C3.80001 16.4 4.00001 40.8 4.00001 40.8L37.6 47.6L44.2 45V12.2L37.4 9.80002ZM29 37.2L11.4 35.4V21.8L29 19.6V37.2Z" fill="white"/>
<path d="M12.8 23L17.8 22.4V34.4L13 33.8L12.8 23Z" fill="white"/>
<path d="M19.8 22.2L26.2 21.6V35.2L19.6 34.6C19.8 34.6 19.8 22.2 19.8 22.2Z" fill="white"/>
<path d="M19 28.4V28.2H19.2C19.2 28.4 19.2 28.6 19.2 28.8C19 28.8 19 28.8 18.8 28.8V29.6L19.2 30C19.2 30 19.2 30 19 30L18.8 29.6L19 28.4Z" fill="white"/>
</svg>
