<svg width="36" height="36" viewBox="0 0 36 36" fill="none" xmlns="http://www.w3.org/2000/svg">
<path d="M27.9078 0H8.09221C6.18259 0 4.62897 1.55363 4.62897 3.46324V32.5368C4.62897 34.4464 6.18259 36 8.09221 36H27.9078C29.8174 36 31.3711 34.4464 31.3711 32.5368V3.46324C31.3711 1.55363 29.8174 0 27.9078 0ZM9.37569 5.98331C9.37569 5.40084 9.84791 4.92863 10.4304 4.92863H25.5696C26.1521 4.92863 26.6243 5.40084 26.6243 5.98331V8.06583C26.6243 8.6483 26.1521 9.12052 25.5696 9.12052H10.4304C9.84791 9.12052 9.37569 8.6483 9.37569 8.06583V5.98331ZM12.9265 29.666C12.9265 30.2484 12.4543 30.7207 11.8719 30.7207H10.4305C9.84798 30.7207 9.37576 30.2484 9.37576 29.666V28.6667C9.37576 28.0842 9.84798 27.612 10.4305 27.612H11.8719C12.4543 27.612 12.9265 28.0842 12.9265 28.6667V29.666ZM12.9265 23.4243C12.9265 24.0068 12.4543 24.479 11.8719 24.479H10.4305C9.84798 24.479 9.37576 24.0068 9.37576 23.4243V22.425C9.37576 21.8426 9.84798 21.3704 10.4305 21.3704H11.8719C12.4543 21.3704 12.9265 21.8426 12.9265 22.425V23.4243ZM19.8618 29.666C19.8618 30.2484 19.3896 30.7207 18.8071 30.7207H17.3657C16.7832 30.7207 16.311 30.2484 16.311 29.666V28.6667C16.311 28.0842 16.7832 27.612 17.3657 27.612H18.8071C19.3896 27.612 19.8618 28.0842 19.8618 28.6667V29.666ZM19.8618 23.4243C19.8618 24.0068 19.3896 24.479 18.8071 24.479H17.3657C16.7832 24.479 16.311 24.0068 16.311 23.4243V22.425C16.311 21.8426 16.7832 21.3704 17.3657 21.3704H18.8071C19.3896 21.3704 19.8618 21.8426 19.8618 22.425V23.4243ZM19.8618 17.1826C19.8618 17.7652 19.3896 18.2373 18.8071 18.2373H10.4304C9.84791 18.2373 9.37569 17.7651 9.37569 17.1826V16.1833C9.37569 15.6009 9.84791 15.1286 10.4304 15.1286H18.8071C19.3896 15.1286 19.8618 15.6009 19.8618 16.1833V17.1826ZM26.7971 29.666C26.7971 30.2484 26.3249 30.7207 25.7424 30.7207H24.301C23.7185 30.7207 23.2463 30.2484 23.2463 29.666V28.6667C23.2463 28.0842 23.7185 27.612 24.301 27.612H25.7424C26.3249 27.612 26.7971 28.0842 26.7971 28.6667V29.666ZM26.7971 23.4243C26.7971 24.0068 26.3249 24.479 25.7424 24.479H24.301C23.7185 24.479 23.2463 24.0068 23.2463 23.4243V22.425C23.2463 21.8426 23.7185 21.3704 24.301 21.3704H25.7424C26.3249 21.3704 26.7971 21.8426 26.7971 22.425V23.4243ZM26.7971 17.1826C26.7971 17.7652 26.3249 18.2373 25.7424 18.2373H24.301C23.7185 18.2373 23.2463 17.7651 23.2463 17.1826V16.1833C23.2463 15.6009 23.7185 15.1286 24.301 15.1286H25.7424C26.3249 15.1286 26.7971 15.6009 26.7971 16.1833V17.1826Z" fill="white"/>
</svg>
