<svg width="515" height="258" fill="none" xmlns="http://www.w3.org/2000/svg"><g opacity=".3"><mask id="a" fill="#fff"><path d="M435 92a5 5 0 015-5h70a5 5 0 015 5v70a5 5 0 01-5 5h-70a5 5 0 01-5-5V92zM435 5a5 5 0 015-5h70a5 5 0 015 5v70a5 5 0 01-5 5h-70a5 5 0 01-5-5V5zM435 183a5 5 0 015-5h70a5 5 0 015 5v70a5 5 0 01-5 5h-70a5 5 0 01-5-5v-70zM348 92a5 5 0 015-5h70a5 5 0 015 5v70a5 5 0 01-5 5h-70a5 5 0 01-5-5V92zM348 5a5 5 0 015-5h70a5 5 0 015 5v70a5 5 0 01-5 5h-70a5 5 0 01-5-5V5zM348 183a5 5 0 015-5h70a5 5 0 015 5v70a5 5 0 01-5 5h-70a5 5 0 01-5-5v-70zM261 92a5 5 0 015-5h70a5 5 0 015 5v70a5 5 0 01-5 5h-70a5 5 0 01-5-5V92zM261 5a5 5 0 015-5h70a5 5 0 015 5v70a5 5 0 01-5 5h-70a5 5 0 01-5-5V5zM261 183a5 5 0 015-5h70a5 5 0 015 5v70a5 5 0 01-5 5h-70a5 5 0 01-5-5v-70zM174 92a5 5 0 015-5h70a5 5 0 015 5v70a5 5 0 01-5 5h-70a5 5 0 01-5-5V92zM174 5a5 5 0 015-5h70a5 5 0 015 5v70a5 5 0 01-5 5h-70a5 5 0 01-5-5V5zM174 183a5 5 0 015-5h70a5 5 0 015 5v70a5 5 0 01-5 5h-70a5 5 0 01-5-5v-70zM87 92a5 5 0 015-5h70a5 5 0 015 5v70a5 5 0 01-5 5H92a5 5 0 01-5-5V92zM87 5a5 5 0 015-5h70a5 5 0 015 5v70a5 5 0 01-5 5H92a5 5 0 01-5-5V5zM87 183a5 5 0 015-5h70a5 5 0 015 5v70a5 5 0 01-5 5H92a5 5 0 01-5-5v-70zM0 92a5 5 0 015-5h70a5 5 0 015 5v70a5 5 0 01-5 5H5a5 5 0 01-5-5V92zM0 5a5 5 0 015-5h70a5 5 0 015 5v70a5 5 0 01-5 5H5a5 5 0 01-5-5V5zM0 183a5 5 0 015-5h70a5 5 0 015 5v70a5 5 0 01-5 5H5a5 5 0 01-5-5v-70z"/></mask><path d="M435 92a5 5 0 015-5h70a5 5 0 015 5v70a5 5 0 01-5 5h-70a5 5 0 01-5-5V92z" stroke="url(#paint0_linear_1:3)" stroke-width="2" mask="url(#a)"/><path d="M435 92a5 5 0 015-5h70a5 5 0 015 5v70a5 5 0 01-5 5h-70a5 5 0 01-5-5V92z" stroke="url(#paint1_linear_1:3)" stroke-width="2" mask="url(#a)"/><path d="M435 5a5 5 0 015-5h70a5 5 0 015 5v70a5 5 0 01-5 5h-70a5 5 0 01-5-5V5z" stroke="url(#paint2_linear_1:3)" stroke-width="2" mask="url(#a)"/><path d="M435 5a5 5 0 015-5h70a5 5 0 015 5v70a5 5 0 01-5 5h-70a5 5 0 01-5-5V5z" stroke="url(#paint3_linear_1:3)" stroke-width="2" mask="url(#a)"/><path d="M435 183a5 5 0 015-5h70a5 5 0 015 5v70a5 5 0 01-5 5h-70a5 5 0 01-5-5v-70z" stroke="url(#paint4_linear_1:3)" stroke-width="2" mask="url(#a)"/><path d="M435 183a5 5 0 015-5h70a5 5 0 015 5v70a5 5 0 01-5 5h-70a5 5 0 01-5-5v-70z" stroke="url(#paint5_linear_1:3)" stroke-width="2" mask="url(#a)"/><path d="M348 92a5 5 0 015-5h70a5 5 0 015 5v70a5 5 0 01-5 5h-70a5 5 0 01-5-5V92z" stroke="url(#paint6_linear_1:3)" stroke-width="2" mask="url(#a)"/><path d="M348 92a5 5 0 015-5h70a5 5 0 015 5v70a5 5 0 01-5 5h-70a5 5 0 01-5-5V92z" stroke="url(#paint7_linear_1:3)" stroke-width="2" mask="url(#a)"/><path d="M348 5a5 5 0 015-5h70a5 5 0 015 5v70a5 5 0 01-5 5h-70a5 5 0 01-5-5V5z" stroke="url(#paint8_linear_1:3)" stroke-width="2" mask="url(#a)"/><path d="M348 5a5 5 0 015-5h70a5 5 0 015 5v70a5 5 0 01-5 5h-70a5 5 0 01-5-5V5z" stroke="url(#paint9_linear_1:3)" stroke-width="2" mask="url(#a)"/><path d="M348 183a5 5 0 015-5h70a5 5 0 015 5v70a5 5 0 01-5 5h-70a5 5 0 01-5-5v-70z" stroke="url(#paint10_linear_1:3)" stroke-width="2" mask="url(#a)"/><path d="M348 183a5 5 0 015-5h70a5 5 0 015 5v70a5 5 0 01-5 5h-70a5 5 0 01-5-5v-70z" stroke="url(#paint11_linear_1:3)" stroke-width="2" mask="url(#a)"/><path d="M261 92a5 5 0 015-5h70a5 5 0 015 5v70a5 5 0 01-5 5h-70a5 5 0 01-5-5V92z" stroke="url(#paint12_linear_1:3)" stroke-width="2" mask="url(#a)"/><path d="M261 92a5 5 0 015-5h70a5 5 0 015 5v70a5 5 0 01-5 5h-70a5 5 0 01-5-5V92z" stroke="url(#paint13_linear_1:3)" stroke-width="2" mask="url(#a)"/><path d="M261 5a5 5 0 015-5h70a5 5 0 015 5v70a5 5 0 01-5 5h-70a5 5 0 01-5-5V5z" stroke="url(#paint14_linear_1:3)" stroke-width="2" mask="url(#a)"/><path d="M261 5a5 5 0 015-5h70a5 5 0 015 5v70a5 5 0 01-5 5h-70a5 5 0 01-5-5V5z" stroke="url(#paint15_linear_1:3)" stroke-width="2" mask="url(#a)"/><path d="M261 183a5 5 0 015-5h70a5 5 0 015 5v70a5 5 0 01-5 5h-70a5 5 0 01-5-5v-70z" stroke="url(#paint16_linear_1:3)" stroke-width="2" mask="url(#a)"/><path d="M261 183a5 5 0 015-5h70a5 5 0 015 5v70a5 5 0 01-5 5h-70a5 5 0 01-5-5v-70z" stroke="url(#paint17_linear_1:3)" stroke-width="2" mask="url(#a)"/><path d="M174 92a5 5 0 015-5h70a5 5 0 015 5v70a5 5 0 01-5 5h-70a5 5 0 01-5-5V92z" stroke="url(#paint18_linear_1:3)" stroke-width="2" mask="url(#a)"/><path d="M174 92a5 5 0 015-5h70a5 5 0 015 5v70a5 5 0 01-5 5h-70a5 5 0 01-5-5V92z" stroke="url(#paint19_linear_1:3)" stroke-width="2" mask="url(#a)"/><path d="M174 5a5 5 0 015-5h70a5 5 0 015 5v70a5 5 0 01-5 5h-70a5 5 0 01-5-5V5z" stroke="url(#paint20_linear_1:3)" stroke-width="2" mask="url(#a)"/><path d="M174 5a5 5 0 015-5h70a5 5 0 015 5v70a5 5 0 01-5 5h-70a5 5 0 01-5-5V5z" stroke="url(#paint21_linear_1:3)" stroke-width="2" mask="url(#a)"/><path d="M174 183a5 5 0 015-5h70a5 5 0 015 5v70a5 5 0 01-5 5h-70a5 5 0 01-5-5v-70z" stroke="url(#paint22_linear_1:3)" stroke-width="2" mask="url(#a)"/><path d="M174 183a5 5 0 015-5h70a5 5 0 015 5v70a5 5 0 01-5 5h-70a5 5 0 01-5-5v-70z" stroke="url(#paint23_linear_1:3)" stroke-width="2" mask="url(#a)"/><path d="M87 92a5 5 0 015-5h70a5 5 0 015 5v70a5 5 0 01-5 5H92a5 5 0 01-5-5V92z" stroke="url(#paint24_linear_1:3)" stroke-width="2" mask="url(#a)"/><path d="M87 92a5 5 0 015-5h70a5 5 0 015 5v70a5 5 0 01-5 5H92a5 5 0 01-5-5V92z" stroke="url(#paint25_linear_1:3)" stroke-width="2" mask="url(#a)"/><path d="M87 5a5 5 0 015-5h70a5 5 0 015 5v70a5 5 0 01-5 5H92a5 5 0 01-5-5V5z" stroke="url(#paint26_linear_1:3)" stroke-width="2" mask="url(#a)"/><path d="M87 5a5 5 0 015-5h70a5 5 0 015 5v70a5 5 0 01-5 5H92a5 5 0 01-5-5V5z" stroke="url(#paint27_linear_1:3)" stroke-width="2" mask="url(#a)"/><path d="M87 183a5 5 0 015-5h70a5 5 0 015 5v70a5 5 0 01-5 5H92a5 5 0 01-5-5v-70z" stroke="url(#paint28_linear_1:3)" stroke-width="2" mask="url(#a)"/><path d="M87 183a5 5 0 015-5h70a5 5 0 015 5v70a5 5 0 01-5 5H92a5 5 0 01-5-5v-70z" stroke="url(#paint29_linear_1:3)" stroke-width="2" mask="url(#a)"/><path d="M0 92a5 5 0 015-5h70a5 5 0 015 5v70a5 5 0 01-5 5H5a5 5 0 01-5-5V92z" stroke="url(#paint30_linear_1:3)" stroke-width="2" mask="url(#a)"/><path d="M0 92a5 5 0 015-5h70a5 5 0 015 5v70a5 5 0 01-5 5H5a5 5 0 01-5-5V92z" stroke="url(#paint31_linear_1:3)" stroke-width="2" mask="url(#a)"/><path d="M0 5a5 5 0 015-5h70a5 5 0 015 5v70a5 5 0 01-5 5H5a5 5 0 01-5-5V5z" stroke="url(#paint32_linear_1:3)" stroke-width="2" mask="url(#a)"/><path d="M0 5a5 5 0 015-5h70a5 5 0 015 5v70a5 5 0 01-5 5H5a5 5 0 01-5-5V5z" stroke="url(#paint33_linear_1:3)" stroke-width="2" mask="url(#a)"/><path d="M0 183a5 5 0 015-5h70a5 5 0 015 5v70a5 5 0 01-5 5H5a5 5 0 01-5-5v-70z" stroke="url(#paint34_linear_1:3)" stroke-width="2" mask="url(#a)"/><path d="M0 183a5 5 0 015-5h70a5 5 0 015 5v70a5 5 0 01-5 5H5a5 5 0 01-5-5v-70z" stroke="url(#paint35_linear_1:3)" stroke-width="2" mask="url(#a)"/></g><defs><linearGradient id="paint0_linear_1:3" x1="204.949" y1="-11.121" x2="204.949" y2="258" gradientUnits="userSpaceOnUse"><stop stop-color="#F7DE52"/><stop offset=".151" stop-color="#FCB5EF" stop-opacity="0"/><stop offset=".908" stop-color="#FCB5EF" stop-opacity="0"/><stop offset="1" stop-color="#F7DE52"/></linearGradient><linearGradient id="paint1_linear_1:3" x1="0" y1="129" x2="515" y2="129" gradientUnits="userSpaceOnUse"><stop stop-color="#F7DE52"/><stop offset=".055" stop-color="#FCB5EF" stop-opacity="0"/><stop offset=".945" stop-color="#FCB5EF" stop-opacity="0"/><stop offset="1" stop-color="#F7DE52"/></linearGradient><linearGradient id="paint2_linear_1:3" x1="204.949" y1="-11.121" x2="204.949" y2="258" gradientUnits="userSpaceOnUse"><stop stop-color="#F7DE52"/><stop offset=".151" stop-color="#FCB5EF" stop-opacity="0"/><stop offset=".908" stop-color="#FCB5EF" stop-opacity="0"/><stop offset="1" stop-color="#F7DE52"/></linearGradient><linearGradient id="paint3_linear_1:3" x1="0" y1="129" x2="515" y2="129" gradientUnits="userSpaceOnUse"><stop stop-color="#F7DE52"/><stop offset=".055" stop-color="#FCB5EF" stop-opacity="0"/><stop offset=".945" stop-color="#FCB5EF" stop-opacity="0"/><stop offset="1" stop-color="#F7DE52"/></linearGradient><linearGradient id="paint4_linear_1:3" x1="204.949" y1="-11.121" x2="204.949" y2="258" gradientUnits="userSpaceOnUse"><stop stop-color="#F7DE52"/><stop offset=".151" stop-color="#FCB5EF" stop-opacity="0"/><stop offset=".908" stop-color="#FCB5EF" stop-opacity="0"/><stop offset="1" stop-color="#F7DE52"/></linearGradient><linearGradient id="paint5_linear_1:3" x1="0" y1="129" x2="515" y2="129" gradientUnits="userSpaceOnUse"><stop stop-color="#F7DE52"/><stop offset=".055" stop-color="#FCB5EF" stop-opacity="0"/><stop offset=".945" stop-color="#FCB5EF" stop-opacity="0"/><stop offset="1" stop-color="#F7DE52"/></linearGradient><linearGradient id="paint6_linear_1:3" x1="204.949" y1="-11.121" x2="204.949" y2="258" gradientUnits="userSpaceOnUse"><stop stop-color="#F7DE52"/><stop offset=".151" stop-color="#FCB5EF" stop-opacity="0"/><stop offset=".908" stop-color="#FCB5EF" stop-opacity="0"/><stop offset="1" stop-color="#F7DE52"/></linearGradient><linearGradient id="paint7_linear_1:3" x1="0" y1="129" x2="515" y2="129" gradientUnits="userSpaceOnUse"><stop stop-color="#F7DE52"/><stop offset=".055" stop-color="#FCB5EF" stop-opacity="0"/><stop offset=".945" stop-color="#FCB5EF" stop-opacity="0"/><stop offset="1" stop-color="#F7DE52"/></linearGradient><linearGradient id="paint8_linear_1:3" x1="204.949" y1="-11.121" x2="204.949" y2="258" gradientUnits="userSpaceOnUse"><stop stop-color="#F7DE52"/><stop offset=".151" stop-color="#FCB5EF" stop-opacity="0"/><stop offset=".908" stop-color="#FCB5EF" stop-opacity="0"/><stop offset="1" stop-color="#F7DE52"/></linearGradient><linearGradient id="paint9_linear_1:3" x1="0" y1="129" x2="515" y2="129" gradientUnits="userSpaceOnUse"><stop stop-color="#F7DE52"/><stop offset=".055" stop-color="#FCB5EF" stop-opacity="0"/><stop offset=".945" stop-color="#FCB5EF" stop-opacity="0"/><stop offset="1" stop-color="#F7DE52"/></linearGradient><linearGradient id="paint10_linear_1:3" x1="204.949" y1="-11.121" x2="204.949" y2="258" gradientUnits="userSpaceOnUse"><stop stop-color="#F7DE52"/><stop offset=".151" stop-color="#FCB5EF" stop-opacity="0"/><stop offset=".908" stop-color="#FCB5EF" stop-opacity="0"/><stop offset="1" stop-color="#F7DE52"/></linearGradient><linearGradient id="paint11_linear_1:3" x1="0" y1="129" x2="515" y2="129" gradientUnits="userSpaceOnUse"><stop stop-color="#F7DE52"/><stop offset=".055" stop-color="#FCB5EF" stop-opacity="0"/><stop offset=".945" stop-color="#FCB5EF" stop-opacity="0"/><stop offset="1" stop-color="#F7DE52"/></linearGradient><linearGradient id="paint12_linear_1:3" x1="204.949" y1="-11.121" x2="204.949" y2="258" gradientUnits="userSpaceOnUse"><stop stop-color="#F7DE52"/><stop offset=".151" stop-color="#FCB5EF" stop-opacity="0"/><stop offset=".908" stop-color="#FCB5EF" stop-opacity="0"/><stop offset="1" stop-color="#F7DE52"/></linearGradient><linearGradient id="paint13_linear_1:3" x1="0" y1="129" x2="515" y2="129" gradientUnits="userSpaceOnUse"><stop stop-color="#F7DE52"/><stop offset=".055" stop-color="#FCB5EF" stop-opacity="0"/><stop offset=".945" stop-color="#FCB5EF" stop-opacity="0"/><stop offset="1" stop-color="#F7DE52"/></linearGradient><linearGradient id="paint14_linear_1:3" x1="204.949" y1="-11.121" x2="204.949" y2="258" gradientUnits="userSpaceOnUse"><stop stop-color="#F7DE52"/><stop offset=".151" stop-color="#FCB5EF" stop-opacity="0"/><stop offset=".908" stop-color="#FCB5EF" stop-opacity="0"/><stop offset="1" stop-color="#F7DE52"/></linearGradient><linearGradient id="paint15_linear_1:3" x1="0" y1="129" x2="515" y2="129" gradientUnits="userSpaceOnUse"><stop stop-color="#F7DE52"/><stop offset=".055" stop-color="#FCB5EF" stop-opacity="0"/><stop offset=".945" stop-color="#FCB5EF" stop-opacity="0"/><stop offset="1" stop-color="#F7DE52"/></linearGradient><linearGradient id="paint16_linear_1:3" x1="204.949" y1="-11.121" x2="204.949" y2="258" gradientUnits="userSpaceOnUse"><stop stop-color="#F7DE52"/><stop offset=".151" stop-color="#FCB5EF" stop-opacity="0"/><stop offset=".908" stop-color="#FCB5EF" stop-opacity="0"/><stop offset="1" stop-color="#F7DE52"/></linearGradient><linearGradient id="paint17_linear_1:3" x1="0" y1="129" x2="515" y2="129" gradientUnits="userSpaceOnUse"><stop stop-color="#F7DE52"/><stop offset=".055" stop-color="#FCB5EF" stop-opacity="0"/><stop offset=".945" stop-color="#FCB5EF" stop-opacity="0"/><stop offset="1" stop-color="#F7DE52"/></linearGradient><linearGradient id="paint18_linear_1:3" x1="204.949" y1="-11.121" x2="204.949" y2="258" gradientUnits="userSpaceOnUse"><stop stop-color="#F7DE52"/><stop offset=".151" stop-color="#FCB5EF" stop-opacity="0"/><stop offset=".908" stop-color="#FCB5EF" stop-opacity="0"/><stop offset="1" stop-color="#F7DE52"/></linearGradient><linearGradient id="paint19_linear_1:3" x1="0" y1="129" x2="515" y2="129" gradientUnits="userSpaceOnUse"><stop stop-color="#F7DE52"/><stop offset=".055" stop-color="#FCB5EF" stop-opacity="0"/><stop offset=".945" stop-color="#FCB5EF" stop-opacity="0"/><stop offset="1" stop-color="#F7DE52"/></linearGradient><linearGradient id="paint20_linear_1:3" x1="204.949" y1="-11.121" x2="204.949" y2="258" gradientUnits="userSpaceOnUse"><stop stop-color="#F7DE52"/><stop offset=".151" stop-color="#FCB5EF" stop-opacity="0"/><stop offset=".908" stop-color="#FCB5EF" stop-opacity="0"/><stop offset="1" stop-color="#F7DE52"/></linearGradient><linearGradient id="paint21_linear_1:3" x1="0" y1="129" x2="515" y2="129" gradientUnits="userSpaceOnUse"><stop stop-color="#F7DE52"/><stop offset=".055" stop-color="#FCB5EF" stop-opacity="0"/><stop offset=".945" stop-color="#FCB5EF" stop-opacity="0"/><stop offset="1" stop-color="#F7DE52"/></linearGradient><linearGradient id="paint22_linear_1:3" x1="204.949" y1="-11.121" x2="204.949" y2="258" gradientUnits="userSpaceOnUse"><stop stop-color="#F7DE52"/><stop offset=".151" stop-color="#FCB5EF" stop-opacity="0"/><stop offset=".908" stop-color="#FCB5EF" stop-opacity="0"/><stop offset="1" stop-color="#F7DE52"/></linearGradient><linearGradient id="paint23_linear_1:3" x1="0" y1="129" x2="515" y2="129" gradientUnits="userSpaceOnUse"><stop stop-color="#F7DE52"/><stop offset=".055" stop-color="#FCB5EF" stop-opacity="0"/><stop offset=".945" stop-color="#FCB5EF" stop-opacity="0"/><stop offset="1" stop-color="#F7DE52"/></linearGradient><linearGradient id="paint24_linear_1:3" x1="204.949" y1="-11.121" x2="204.949" y2="258" gradientUnits="userSpaceOnUse"><stop stop-color="#F7DE52"/><stop offset=".151" stop-color="#FCB5EF" stop-opacity="0"/><stop offset=".908" stop-color="#FCB5EF" stop-opacity="0"/><stop offset="1" stop-color="#F7DE52"/></linearGradient><linearGradient id="paint25_linear_1:3" x1="0" y1="129" x2="515" y2="129" gradientUnits="userSpaceOnUse"><stop stop-color="#F7DE52"/><stop offset=".055" stop-color="#FCB5EF" stop-opacity="0"/><stop offset=".945" stop-color="#FCB5EF" stop-opacity="0"/><stop offset="1" stop-color="#F7DE52"/></linearGradient><linearGradient id="paint26_linear_1:3" x1="204.949" y1="-11.121" x2="204.949" y2="258" gradientUnits="userSpaceOnUse"><stop stop-color="#F7DE52"/><stop offset=".151" stop-color="#FCB5EF" stop-opacity="0"/><stop offset=".908" stop-color="#FCB5EF" stop-opacity="0"/><stop offset="1" stop-color="#F7DE52"/></linearGradient><linearGradient id="paint27_linear_1:3" x1="0" y1="129" x2="515" y2="129" gradientUnits="userSpaceOnUse"><stop stop-color="#F7DE52"/><stop offset=".055" stop-color="#FCB5EF" stop-opacity="0"/><stop offset=".945" stop-color="#FCB5EF" stop-opacity="0"/><stop offset="1" stop-color="#F7DE52"/></linearGradient><linearGradient id="paint28_linear_1:3" x1="204.949" y1="-11.121" x2="204.949" y2="258" gradientUnits="userSpaceOnUse"><stop stop-color="#F7DE52"/><stop offset=".151" stop-color="#FCB5EF" stop-opacity="0"/><stop offset=".908" stop-color="#FCB5EF" stop-opacity="0"/><stop offset="1" stop-color="#F7DE52"/></linearGradient><linearGradient id="paint29_linear_1:3" x1="0" y1="129" x2="515" y2="129" gradientUnits="userSpaceOnUse"><stop stop-color="#F7DE52"/><stop offset=".055" stop-color="#FCB5EF" stop-opacity="0"/><stop offset=".945" stop-color="#FCB5EF" stop-opacity="0"/><stop offset="1" stop-color="#F7DE52"/></linearGradient><linearGradient id="paint30_linear_1:3" x1="204.949" y1="-11.121" x2="204.949" y2="258" gradientUnits="userSpaceOnUse"><stop stop-color="#F7DE52"/><stop offset=".151" stop-color="#FCB5EF" stop-opacity="0"/><stop offset=".908" stop-color="#FCB5EF" stop-opacity="0"/><stop offset="1" stop-color="#F7DE52"/></linearGradient><linearGradient id="paint31_linear_1:3" x1="0" y1="129" x2="515" y2="129" gradientUnits="userSpaceOnUse"><stop stop-color="#F7DE52"/><stop offset=".055" stop-color="#FCB5EF" stop-opacity="0"/><stop offset=".945" stop-color="#FCB5EF" stop-opacity="0"/><stop offset="1" stop-color="#F7DE52"/></linearGradient><linearGradient id="paint32_linear_1:3" x1="204.949" y1="-11.121" x2="204.949" y2="258" gradientUnits="userSpaceOnUse"><stop stop-color="#F7DE52"/><stop offset=".151" stop-color="#FCB5EF" stop-opacity="0"/><stop offset=".908" stop-color="#FCB5EF" stop-opacity="0"/><stop offset="1" stop-color="#F7DE52"/></linearGradient><linearGradient id="paint33_linear_1:3" x1="0" y1="129" x2="515" y2="129" gradientUnits="userSpaceOnUse"><stop stop-color="#F7DE52"/><stop offset=".055" stop-color="#FCB5EF" stop-opacity="0"/><stop offset=".945" stop-color="#FCB5EF" stop-opacity="0"/><stop offset="1" stop-color="#F7DE52"/></linearGradient><linearGradient id="paint34_linear_1:3" x1="204.949" y1="-11.121" x2="204.949" y2="258" gradientUnits="userSpaceOnUse"><stop stop-color="#F7DE52"/><stop offset=".151" stop-color="#FCB5EF" stop-opacity="0"/><stop offset=".908" stop-color="#FCB5EF" stop-opacity="0"/><stop offset="1" stop-color="#F7DE52"/></linearGradient><linearGradient id="paint35_linear_1:3" x1="0" y1="129" x2="515" y2="129" gradientUnits="userSpaceOnUse"><stop stop-color="#F7DE52"/><stop offset=".055" stop-color="#FCB5EF" stop-opacity="0"/><stop offset=".945" stop-color="#FCB5EF" stop-opacity="0"/><stop offset="1" stop-color="#F7DE52"/></linearGradient></defs></svg>