<svg width="24" height="24" viewBox="0 0 24 24" fill="none" xmlns="http://www.w3.org/2000/svg">
<path d="M17.6 9.19998C18.1 9.49998 22.1 11.7 22.3 15C22.5 19.1 16.7 22.5 11.9 22.4C7.30003 22.3 1.60004 19 1.90004 14.9C2.10004 11.5 6.20004 9.29998 6.70004 9.09998" stroke="white" stroke-width="2.5" stroke-miterlimit="10" stroke-linecap="round" stroke-linejoin="round"/>
<path d="M10.3 8.29999H13.6" stroke="white" stroke-width="2.5" stroke-miterlimit="10" stroke-linecap="round" stroke-linejoin="round"/>
<path d="M6.69998 9.09999L5.59998 3.99999C5.69998 2.89999 6.59998 1.89999 7.69998 1.69999C8.89998 1.49999 9.99998 1.99999 10.5 2.99999L10.3 8.29999H13.6L13.8 3.19999C14.2 2.19999 15.2 1.49999 16.2 1.59999C17.3 1.69999 18.3 2.69999 18.4 3.89999L17.7 9.09999" stroke="white" stroke-width="2.5" stroke-miterlimit="10" stroke-linecap="round" stroke-linejoin="round"/>
<path d="M8.9 16.7C9.6732 16.7 10.3 15.715 10.3 14.5C10.3 13.285 9.6732 12.3 8.9 12.3C8.1268 12.3 7.5 13.285 7.5 14.5C7.5 15.715 8.1268 16.7 8.9 16.7Z" fill="white"/>
<path d="M15.6001 16.7C16.3733 16.7 17.0001 15.715 17.0001 14.5C17.0001 13.285 16.3733 12.3 15.6001 12.3C14.8269 12.3 14.2001 13.285 14.2001 14.5C14.2001 15.715 14.8269 16.7 15.6001 16.7Z" fill="white"/>
</svg>
