<svg width="16" height="16" viewBox="0 0 16 16" fill="none" xmlns="http://www.w3.org/2000/svg">
<path d="M9.93335 2.53333C11.9333 2.53333 13.5333 4.13333 13.5333 6.13333C13.5333 8.13333 11.9333 9.73333 9.93335 9.73333C7.93335 9.73333 6.33335 8.13333 6.33335 6.13333C6.33335 4.13333 7.93335 2.53333 9.93335 2.53333ZM9.93335 0.0666656C6.60002 0.0666656 3.93335 2.8 3.93335 6.06667C3.93335 9.33333 6.66668 12.0667 9.93335 12.0667C13.2 12.0667 15.9333 9.33333 15.9333 6.06667C15.9333 2.8 13.2667 0.0666656 9.93335 0.0666656Z" fill="white"/>
<path d="M0.0666504 11.8667L4.53332 8.26666L6.53332 10.8L1.79998 14.6L0.0666504 13.8667" fill="white"/>
</svg>
