<svg width="14" height="14" viewBox="0 0 14 14" fill="none" xmlns="http://www.w3.org/2000/svg">
<path d="M0 1.09375V12.9062C0 13.5105 0.489453 14 1.09375 14H12.9062C13.5105 14 14 13.5105 14 12.9062V1.09375C14 0.489453 13.5105 0 12.9062 0H1.09375C0.489453 0 0 0.489453 0 1.09375ZM11.6703 3.63672L10.0707 11.2793C9.99687 11.6375 9.57578 11.7988 9.28047 11.5828L7.63164 10.3715C7.19414 10.0488 6.58437 10.098 6.2043 10.4891L5.63828 11.066C5.42227 11.2875 5.05039 11.1973 4.95742 10.902L4.24375 8.64062C4.13438 8.29336 3.8582 8.02266 3.51094 7.92148L1.68984 7.38281C1.37812 7.28984 1.35898 6.85508 1.6625 6.7375L11.025 3.08984C11.3805 2.95039 11.7469 3.26211 11.6703 3.63672Z" fill="#5CCAFD"/>
<path d="M9.71527 4.6047L4.58011 7.79024C4.48988 7.84766 4.44886 7.95704 4.47894 8.05821L5.168 10.2785C5.18167 10.325 5.25003 10.3195 5.2555 10.2703L5.4223 8.78282C5.42777 8.7254 5.45511 8.67344 5.49886 8.63516L9.84652 4.79063C9.95316 4.69493 9.83284 4.53087 9.71527 4.6047Z" fill="#5CCAFD"/>
</svg>
