<svg id="Слой_4" data-name="Слой 4" xmlns="http://www.w3.org/2000/svg" viewBox="0 0 99.29 99.29"><defs><style>.cls-1{fill:#fff;}</style></defs><title>Automatic LP_2</title><path class="cls-1" d="M59.42,44.35h4.32c0-6.13-6-8.92-10.79-9.57V30.31H48.63v4.47c-4.85.65-10.79,3.44-10.79,9.57,0,5.84,5.75,8.87,10.79,9.56V64.64c-3.13-.55-6.48-2.21-6.48-5.18H37.84c0,5.58,5.23,8.89,10.79,9.57v4.46H53V69c4.84-.65,10.79-3.44,10.79-9.56s-6-8.92-10.79-9.57V39.16C55.82,39.68,59.42,41.2,59.42,44.35Zm-17.27,0c0-3.15,3.61-4.67,6.48-5.19V49.52C45.67,49,42.15,47.36,42.15,44.35ZM59.42,59.46c0,3.14-3.6,4.66-6.47,5.18V54.27C55.82,54.79,59.42,56.31,59.42,59.46Z" transform="translate(-0.3 -0.41)"/><path class="cls-1" d="M57.15,99.71H43l-3.93-12a38.64,38.64,0,0,1-7.59-3.14L20,90.3,10,80.37l5.77-11.5a38.58,38.58,0,0,1-3.15-7.58L.3,57.11V43l12-3.92a38.75,38.75,0,0,1,3.15-7.57L9.73,20l10-9.93,11.52,5.75a39,39,0,0,1,7.6-3.14L43,.41H57.15l3.93,12a39,39,0,0,1,7.6,3.14L80.21,9.82l10,9.93L84.4,31.25a38.11,38.11,0,0,1,3.14,7.57l12,3.92V56.85l-12,3.92a38.2,38.2,0,0,1-3.14,7.58l5.76,11.5-10,9.93L68.68,84a39,39,0,0,1-7.6,3.13ZM46.67,94.48h6.81l3.67-11.24L58.46,83a37.27,37.27,0,0,0,8.91-3.66l1.31-.78,10.48,5.23,4.71-4.71L78.63,68.61l.79-1.31a33.5,33.5,0,0,0,3.67-8.88l.26-1.31,11.27-3.65v-6.8L83.35,43l-.26-1.3a37.75,37.75,0,0,0-3.67-8.89l-.79-1.3,5.24-10.46-4.71-4.7L68.68,21.58l-1.31-.79a38.11,38.11,0,0,0-8.91-3.66l-1.31-.26L53.48,5.64H46.67L43,16.87l-1.31.26a38.21,38.21,0,0,0-8.9,3.66l-1.31.79L21,16.35l-4.72,4.7,5.24,10.46-.79,1.3a33.35,33.35,0,0,0-3.66,8.89L16.81,43,5.54,46.66v6.8l11.27,3.65.26,1.31a37.06,37.06,0,0,0,3.66,8.88l.79,1.31L16.28,79.06,21,83.77l10.48-5.23,1.31.78A37.37,37.37,0,0,0,41.69,83l1.31.26Z" transform="translate(-0.3 -0.41)"/></svg>