<svg id="Слой_1" data-name="Слой 1" xmlns="http://www.w3.org/2000/svg" xmlns:xlink="http://www.w3.org/1999/xlink" viewBox="0 0 1068.31 824.94"><defs><style>.cls-1,.cls-11,.cls-12,.cls-13,.cls-14,.cls-17,.cls-18,.cls-20,.cls-22,.cls-24,.cls-26,.cls-28,.cls-29,.cls-3,.cls-30,.cls-31,.cls-32,.cls-33,.cls-34,.cls-4,.cls-40,.cls-41,.cls-42,.cls-43,.cls-44,.cls-45,.cls-5,.cls-6,.cls-7{fill:none;}.cls-2{fill:#024582;fill-opacity:0.37;opacity:0.3;}.cls-3{stroke:url(#Безымянный_градиент);}.cls-4{stroke-width:0.8px;stroke:url(#Безымянный_градиент_2);}.cls-5{stroke:url(#Безымянный_градиент_3);}.cls-6{stroke:url(#Безымянный_градиент_4);}.cls-7{stroke-dasharray:20.5 5;stroke:url(#Безымянный_градиент_5);}.cls-8,.cls-9{fill:#fff;}.cls-10,.cls-45,.cls-9{opacity:0.5;}.cls-10{fill:url(#Безымянный_градиент_6);}.cls-11,.cls-12,.cls-13,.cls-14,.cls-40,.cls-41,.cls-42,.cls-43,.cls-44{stroke-width:0.6px;stroke-dasharray:11.94 2.98;}.cls-11{stroke:url(#Безымянный_градиент_7);}.cls-12{stroke:url(#Безымянный_градиент_8);}.cls-13{stroke:url(#Безымянный_градиент_9);}.cls-14{stroke:url(#Безымянный_градиент_10);}.cls-15{clip-path:url(#clip-path);}.cls-16,.cls-35{fill:#c4c4c4;}.cls-16{fill-opacity:0.25;}.cls-17,.cls-18{stroke-opacity:0.28;stroke-width:0.62px;}.cls-17{stroke:url(#Безымянный_градиент_11);}.cls-18{stroke:url(#Безымянный_градиент_12);}.cls-19{fill:url(#Безымянный_градиент_13);}.cls-20,.cls-22,.cls-24,.cls-26,.cls-28{stroke-width:1.24px;}.cls-20{stroke:url(#Безымянный_градиент_14);}.cls-21{fill:url(#Безымянный_градиент_15);}.cls-22{stroke:url(#Безымянный_градиент_16);}.cls-23{fill:url(#Безымянный_градиент_17);}.cls-24{stroke:url(#Безымянный_градиент_18);}.cls-25{fill:url(#Безымянный_градиент_19);}.cls-26{stroke:url(#Безымянный_градиент_20);}.cls-27{fill:url(#Безымянный_градиент_21);}.cls-28{stroke:url(#Безымянный_градиент_22);}.cls-29,.cls-30,.cls-31,.cls-32,.cls-33{stroke-width:3px;}.cls-29{stroke:url(#Безымянный_градиент_23);}.cls-30{stroke:url(#Безымянный_градиент_24);}.cls-31{stroke:url(#Безымянный_градиент_25);}.cls-32{stroke:url(#Безымянный_градиент_26);}.cls-33{stroke:url(#Безымянный_градиент_27);}.cls-34,.cls-45{stroke:#fff;}.cls-35{fill-opacity:0.09;}.cls-35,.cls-36,.cls-37{fill-rule:evenodd;}.cls-36{fill:#6f6f6f;fill-opacity:0.61;}.cls-37{fill:#ccc;fill-opacity:0.8;}.cls-38{fill:url(#Безымянный_градиент_28);}.cls-39{fill-opacity:0.08;}.cls-40{stroke:url(#Безымянный_градиент_29);}.cls-41{stroke:url(#Безымянный_градиент_30);}.cls-42{stroke:url(#Безымянный_градиент_31);}.cls-43{stroke:url(#Безымянный_градиент_32);}.cls-44{stroke:url(#Безымянный_градиент_33);}.cls-45{stroke-dasharray:10 5;}</style><linearGradient id="Безымянный_градиент" x1="93.65" y1="-777.85" x2="-145.21" y2="-659.74" gradientTransform="translate(111.74 787.04)" gradientUnits="userSpaceOnUse"><stop offset="0" stop-color="#fff"/><stop offset="1" stop-color="#fff" stop-opacity="0"/></linearGradient><linearGradient id="Безымянный_градиент_2" x1="954.79" y1="-683.9" x2="665.39" y2="-446.62" xlink:href="#Безымянный_градиент"/><linearGradient id="Безымянный_градиент_3" x1="981.24" y1="-777.85" x2="742.38" y2="-659.74" xlink:href="#Безымянный_градиент"/><linearGradient id="Безымянный_градиент_4" x1="556.17" y1="-693.76" x2="257.5" y2="-431.39" xlink:href="#Безымянный_градиент"/><linearGradient id="Безымянный_градиент_5" x1="555.19" y1="-920.05" x2="258.42" y2="-566.11" xlink:href="#Безымянный_градиент"/><linearGradient id="Безымянный_градиент_6" x1="990.22" y1="-669.53" x2="-159.17" y2="-663.83" xlink:href="#Безымянный_градиент"/><linearGradient id="Безымянный_градиент_7" x1="817.39" y1="-279.53" x2="743.77" y2="-250.56" xlink:href="#Безымянный_градиент"/><linearGradient id="Безымянный_градиент_8" x1="531.39" y1="-279.53" x2="457.77" y2="-250.56" xlink:href="#Безымянный_градиент"/><linearGradient id="Безымянный_градиент_9" x1="324.29" y1="-334.51" x2="250.66" y2="-305.53" xlink:href="#Безымянный_градиент"/><linearGradient id="Безымянный_градиент_10" x1="324.29" y1="-206.31" x2="250.66" y2="-177.34" xlink:href="#Безымянный_градиент"/><clipPath id="clip-path" transform="translate(0 -0.03)"><rect class="cls-1" x="804.26" y="205.63" width="39.45" height="39.45"/></clipPath><linearGradient id="Безымянный_градиент_11" x1="851.23" y1="-196.33" x2="712.67" y2="31.35" gradientTransform="translate(111.73 787.01)" xlink:href="#Безымянный_градиент"/><linearGradient id="Безымянный_градиент_12" x1="563.26" y1="-196.33" x2="424.7" y2="31.35" gradientTransform="translate(111.73 787.01)" xlink:href="#Безымянный_градиент"/><linearGradient id="Безымянный_градиент_13" x1="670.92" y1="-219.97" x2="822.08" y2="45.62" gradientTransform="translate(111.74 787.04)" gradientUnits="userSpaceOnUse"><stop offset="0" stop-color="red"/><stop offset="1" stop-color="#01397b"/></linearGradient><linearGradient id="Безымянный_градиент_14" x1="728.24" y1="-118.92" x2="770.08" y2="-49.18" gradientTransform="translate(111.74 787.04)" gradientUnits="userSpaceOnUse"><stop offset="0" stop-color="#60020c"/><stop offset="1" stop-color="#ba0f21"/></linearGradient><linearGradient id="Безымянный_градиент_15" x1="417.06" y1="-151.35" x2="567.95" y2="-200.66" gradientTransform="translate(111.74 787.04)" gradientUnits="userSpaceOnUse"><stop offset="0" stop-color="#ffd600"/><stop offset="1" stop-color="#ff7a00"/></linearGradient><linearGradient id="Безымянный_градиент_16" x1="430.69" y1="-175.34" x2="500.05" y2="-159.93" gradientTransform="translate(111.74 787.04)" gradientUnits="userSpaceOnUse"><stop offset="0" stop-color="#ffb800"/><stop offset="1" stop-color="#ff6b00"/></linearGradient><linearGradient id="Безымянный_градиент_17" x1="322.82" y1="-33.94" x2="601.78" y2="-158.69" xlink:href="#Безымянный_градиент_13"/><linearGradient id="Безымянный_градиент_18" x1="428.62" y1="-81.23" x2="503.23" y2="-112.55" xlink:href="#Безымянный_градиент_14"/><linearGradient id="Безымянный_градиент_19" x1="697.91" y1="101.42" x2="880.27" y2="-192.32" gradientTransform="translate(111.74 787.04)" gradientUnits="userSpaceOnUse"><stop offset="0" stop-color="#001a2e"/><stop offset="1" stop-color="#0094ff"/></linearGradient><linearGradient id="Безымянный_градиент_20" x1="911.29" y1="-135.1" x2="691.3" y2="-35.43" gradientTransform="translate(111.74 787.04)" gradientUnits="userSpaceOnUse"><stop offset="0" stop-color="#004a81"/><stop offset="1" stop-color="#0081df"/></linearGradient><linearGradient id="Безымянный_градиент_21" x1="409.94" y1="101.42" x2="592.3" y2="-192.32" xlink:href="#Безымянный_градиент_19"/><linearGradient id="Безымянный_градиент_22" x1="623.31" y1="-135.1" x2="403.32" y2="-35.43" xlink:href="#Безымянный_градиент_20"/><linearGradient id="Безымянный_градиент_23" x1="825.91" y1="-230.85" x2="881.03" y2="-281.7" gradientTransform="translate(111.73 787.01)" xlink:href="#Безымянный_градиент_19"/><linearGradient id="Безымянный_градиент_24" x1="852.38" y1="-210.65" x2="905.58" y2="-257.25" gradientTransform="translate(111.73 787.01)" xlink:href="#Безымянный_градиент_13"/><linearGradient id="Безымянный_градиент_25" x1="244.88" y1="-19.33" x2="298.08" y2="-65.93" gradientTransform="translate(111.73 787.01)" xlink:href="#Безымянный_градиент_13"/><linearGradient id="Безымянный_градиент_26" x1="257.2" y1="16.99" x2="267.74" y2="2.29" gradientTransform="translate(111.73 787.01)" xlink:href="#Безымянный_градиент_15"/><linearGradient id="Безымянный_градиент_27" x1="221.41" y1="-42.47" x2="273.89" y2="-88.03" gradientTransform="translate(111.73 787.01)" xlink:href="#Безымянный_градиент_19"/><linearGradient id="Безымянный_градиент_28" x1="54.55" y1="-348.42" x2="72.31" y2="-392.8" gradientTransform="translate(111.73 787.01)" gradientUnits="userSpaceOnUse"><stop offset="0" stop-color="#939393"/><stop offset="1" stop-color="#b0b0b0"/></linearGradient><linearGradient id="Безымянный_градиент_29" x1="97.46" y1="-496.25" x2="23.83" y2="-467.28" xlink:href="#Безымянный_градиент"/><linearGradient id="Безымянный_градиент_30" x1="440.67" y1="-675.71" x2="367.05" y2="-646.74" xlink:href="#Безымянный_градиент"/><linearGradient id="Безымянный_градиент_31" x1="168.87" y1="-736.25" x2="88.79" y2="-700.79" xlink:href="#Безымянный_градиент"/><linearGradient id="Безымянный_градиент_32" x1="728.64" y1="-732.93" x2="655.01" y2="-703.96" xlink:href="#Безымянный_градиент"/><linearGradient id="Безымянный_градиент_33" x1="639.88" y1="-575.14" x2="566.25" y2="-546.17" xlink:href="#Безымянный_градиент"/></defs><title>shema_2</title><rect class="cls-2" x="1.49" y="22.17" width="165.68" height="94.68"/><rect class="cls-1" x="1.49" y="22.17" width="165.68" height="94.68"/><rect class="cls-2" x="784.54" y="177.99" width="270.22" height="92.7"/><rect class="cls-1" x="784.54" y="177.99" width="270.22" height="92.7"/><rect class="cls-2" x="889.07" y="22.17" width="165.68" height="94.68"/><rect class="cls-1" x="889.07" y="22.17" width="165.68" height="94.68"/><rect class="cls-2" x="366.38" y="179.96" width="297.84" height="94.68"/><rect class="cls-1" x="366.38" y="179.96" width="297.84" height="94.68"/><path class="cls-3" d="M.5,23.19H166.19v92.7H.5Z" transform="translate(0 -0.03)"/><path class="cls-4" d="M783.36,178.81H1054v91.12H783.36Z" transform="translate(0 -0.03)"/><path class="cls-5" d="M888.09,23.19h165.68v92.7H888.09Z" transform="translate(0 -0.03)"/><path class="cls-6" d="M367.37,181H663.24v92.7H367.37Z" transform="translate(0 -0.03)"/><path class="cls-7" d="M313.13,28.81V19.53h1v-18h19.33v-1h9.91v1H384v-1h9.91v1h40.63v-1h9.92v1h40.62v-1H495v1h40.63v-1h9.91v1h40.63v-1h9.92v1h40.6v-1h9.91v1h40.63v-1h9.91v1h19.33v18h1v9.28h-1V66.87h1v9.28h-1v18h-19.3v1h-9.91v-1H646.62v1h-9.94v-1h-40.6v1h-9.92v-1H545.53v1h-9.91v-1H495v1h-9.91v-1H444.45v1h-9.92v-1H393.9v1H384v-1H343.36v1h-9.91v-1H314.12v-18h-1V66.87h1V28.81Z" transform="translate(0 -0.03)"/><path class="cls-8" d="M44.28,54.52H21.82a4.55,4.55,0,0,0-4.55,4.55h0v17a4.55,4.55,0,0,0,4.55,4.55H44.28a4.55,4.55,0,0,0,4.55-4.55h0v-17a4.55,4.55,0,0,0-4.55-4.55ZM47,70.3H40.33a2.74,2.74,0,0,1,0-5.47H47ZM47,63H40.33a4.56,4.56,0,0,0,0,9.11H47v3.94a2.73,2.73,0,0,1-2.73,2.73H21.82a2.73,2.73,0,0,1-2.73-2.73h0v-17a2.73,2.73,0,0,1,2.73-2.73H44.28A2.73,2.73,0,0,1,47,59.06h0Z" transform="translate(0 -0.03)"/><path class="cls-8" d="M41.54,66.68H40.33a.91.91,0,0,0,0,1.82h1.21a.91.91,0,0,0,0-1.82Z" transform="translate(0 -0.03)"/><path class="cls-8" d="M931.86,56.49H909.41A4.55,4.55,0,0,0,904.86,61V78a4.57,4.57,0,0,0,4.55,4.56h22.45A4.57,4.57,0,0,0,936.42,78V61A4.57,4.57,0,0,0,931.86,56.49Zm2.74,15.78h-6.68a2.73,2.73,0,1,1,0-5.46h6.68Zm0-7.28h-6.68a4.55,4.55,0,0,0,0,9.1h6.69V78a2.74,2.74,0,0,1-2.74,2.74H909.41A2.74,2.74,0,0,1,906.68,78V61a2.73,2.73,0,0,1,2.73-2.73h22.45A2.74,2.74,0,0,1,934.6,61Z" transform="translate(0 -0.03)"/><path class="cls-8" d="M929.13,68.68h-1.21a.91.91,0,1,0,0,1.82h1.21a.91.91,0,0,0,0-1.82Z" transform="translate(0 -0.03)"/><path class="cls-8" d="M94.86,58.68,89.18,79.4H85.29L81.35,64.91a9.77,9.77,0,0,1-.3-2H81a9,9,0,0,1-.35,2l-4,14.52h-4L66.92,58.68h3.76l3.76,15.17a10.47,10.47,0,0,1,.28,2h.08a10.42,10.42,0,0,1,.4-2l4.26-15.17H83L86.93,74a11.69,11.69,0,0,1,.3,1.85h.06a12.51,12.51,0,0,1,.33-1.91L91.3,58.68Zm12.7,20.72h-3.25V77.09h-.06a4.9,4.9,0,0,1-4.49,2.66,4.78,4.78,0,0,1-3.43-1.19,4.16,4.16,0,0,1-1.23-3.13c0-2.8,1.61-4.42,4.83-4.89l4.39-.62c0-2.11-1-3.17-3-3.16a7.17,7.17,0,0,0-4.77,1.82v-2.9a10.34,10.34,0,0,1,5.4-1.39q5.61,0,5.61,5.52Zm-3.24-7.27-3.11.44a5,5,0,0,0-2.18.7,2.09,2.09,0,0,0-.72,1.8A2,2,0,0,0,99,76.61a2.56,2.56,0,0,0,1.8.59,3.31,3.31,0,0,0,2.53-1.06,3.89,3.89,0,0,0,1-2.72ZM115,79.4h-3.35V57.5h3.37Zm7.74,0H119.4V57.5h3.37Zm16.9-6.49H129.59a4.28,4.28,0,0,0,1.25,3.17,4.76,4.76,0,0,0,3.33,1.11,7.23,7.23,0,0,0,4.34-1.42v2.71a10.07,10.07,0,0,1-5.34,1.27,6.62,6.62,0,0,1-5.13-2,8.09,8.09,0,0,1-1.85-5.68,7.86,7.86,0,0,1,2-5.62,6.7,6.7,0,0,1,5.08-2.18,5.85,5.85,0,0,1,4.7,2,8.13,8.13,0,0,1,1.71,5.41Zm-3.24-2.37a4.21,4.21,0,0,0-.85-2.8,2.87,2.87,0,0,0-2.31-1,3.23,3.23,0,0,0-2.45,1.06,4.72,4.72,0,0,0-1.23,2.75Zm14.23,8.7a5.71,5.71,0,0,1-2.58.49c-2.87,0-4.31-1.37-4.31-4.13V67.24H141.3V64.61h2.47V61.18l3.35-1v4.38h3.56v2.63h-3.54v7.49a2.91,2.91,0,0,0,.48,1.88,2,2,0,0,0,1.59.56,2.31,2.31,0,0,0,1.47-.49Z" transform="translate(0 -0.03)"/><path class="cls-8" d="M880.82,222.29h-2.77v-7.21h-7.83v7.21h-2.76V205.68h2.76v7h7.83v-7h2.77Zm9.07.28a5.9,5.9,0,0,1-4.4-1.66,6,6,0,0,1-1.63-4.41,5.83,5.83,0,0,1,6.32-6.36,5.67,5.67,0,0,1,4.34,1.64,6.32,6.32,0,0,1,1.55,4.53,6.26,6.26,0,0,1-1.68,4.56A6.07,6.07,0,0,1,889.89,222.57Zm.12-10.28a3,3,0,0,0-2.49,1.1,4.55,4.55,0,0,0-.91,3,4.42,4.42,0,0,0,.92,3,3.12,3.12,0,0,0,2.48,1.07,3,3,0,0,0,2.44-1.06,4.65,4.65,0,0,0,.86-3,4.71,4.71,0,0,0-.86-3A2.93,2.93,0,0,0,890,212.29Zm11.51,10h-2.7V204.68h2.7Zm14.31,0h-2.69v-2h0a4.64,4.64,0,0,1-6.36,1.66,4.56,4.56,0,0,1-1.15-.95,6.6,6.6,0,0,1-1.31-4.35,7.19,7.19,0,0,1,1.45-4.71,4.78,4.78,0,0,1,3.88-1.78,3.7,3.7,0,0,1,3.49,1.93h0v-7.41h2.69Zm-2.66-5.42v-1.56a3,3,0,0,0-.82-2.14,2.75,2.75,0,0,0-2.1-.88,2.83,2.83,0,0,0-2.38,1.12,5.08,5.08,0,0,0-.86,3.12,4.49,4.49,0,0,0,.83,2.86,2.72,2.72,0,0,0,2.24,1,2.77,2.77,0,0,0,2.23-1,3.78,3.78,0,0,0,.86-2.52Zm16.23.22h-8.1a3.44,3.44,0,0,0,1,2.54,3.86,3.86,0,0,0,2.67.89,5.9,5.9,0,0,0,3.49-1.14v2.17a8,8,0,0,1-4.29,1,5.39,5.39,0,0,1-4.12-1.61,6.47,6.47,0,0,1-1.48-4.56,6.3,6.3,0,0,1,1.63-4.51,5.39,5.39,0,0,1,4.08-1.75,4.66,4.66,0,0,1,3.77,1.57,6.47,6.47,0,0,1,1.34,4.34Zm-2.6-1.91a3.44,3.44,0,0,0-.69-2.25,2.23,2.23,0,0,0-1.85-.81,2.61,2.61,0,0,0-2,.85,3.91,3.91,0,0,0-1,2.21Zm12-2.2a2.28,2.28,0,0,0-1.41-.38,2.39,2.39,0,0,0-2,1.08,4.75,4.75,0,0,0-.8,2.93v5.68H931.9V210.42h2.78v2.45h0a4,4,0,0,1,1.2-2,2.74,2.74,0,0,1,1.83-.71,2.27,2.27,0,0,1,1.12.22Zm1.32,8.94v-2.49a5.36,5.36,0,0,0,3.33,1.15q2.43,0,2.43-1.44a1.13,1.13,0,0,0-.21-.69,2.11,2.11,0,0,0-.56-.51,6.4,6.4,0,0,0-.84-.39l-1.07-.39a13.2,13.2,0,0,1-1.32-.62,4,4,0,0,1-1-.73,2.85,2.85,0,0,1-.58-.94,3.36,3.36,0,0,1-.2-1.22,2.74,2.74,0,0,1,.41-1.5,3.37,3.37,0,0,1,1.09-1.1,4.67,4.67,0,0,1,1.55-.68,7.28,7.28,0,0,1,1.8-.23,8.41,8.41,0,0,1,2.94.5V213a5.06,5.06,0,0,0-2.87-.86,4.15,4.15,0,0,0-.93.11,2.53,2.53,0,0,0-.7.29,1.38,1.38,0,0,0-.45.45,1,1,0,0,0-.16.57,1.23,1.23,0,0,0,.16.65,1.54,1.54,0,0,0,.48.47,5.39,5.39,0,0,0,.76.38l1,.35a12.82,12.82,0,0,1,1.37.64,4.59,4.59,0,0,1,1,.75,2.85,2.85,0,0,1,.66,1,3.25,3.25,0,0,1,.23,1.27,2.93,2.93,0,0,1-.42,1.58,3.46,3.46,0,0,1-1.11,1.11,5.5,5.5,0,0,1-1.61.65,8.87,8.87,0,0,1-5.29-.43ZM964.54,213a2.23,2.23,0,0,0-1.4-.38,2.39,2.39,0,0,0-2,1.08,4.83,4.83,0,0,0-.8,2.93v5.68h-2.66V210.42h2.69v2.45h0a4,4,0,0,1,1.2-2,2.72,2.72,0,0,1,1.84-.71,2.23,2.23,0,0,1,1.11.22Zm11.75,4.11h-8.1a3.44,3.44,0,0,0,1,2.54,3.86,3.86,0,0,0,2.67.89,5.9,5.9,0,0,0,3.49-1.14v2.17a8,8,0,0,1-4.29,1,5.39,5.39,0,0,1-4.12-1.61,6.47,6.47,0,0,1-1.48-4.56,6.3,6.3,0,0,1,1.63-4.51,5.39,5.39,0,0,1,4.08-1.75,4.66,4.66,0,0,1,3.77,1.57,6.47,6.47,0,0,1,1.34,4.34Zm-2.6-1.91a3.49,3.49,0,0,0-.68-2.25,2.32,2.32,0,0,0-1.86-.81,2.61,2.61,0,0,0-2,.85,3.75,3.75,0,0,0-1,2.21Zm21.13-4.76-3.5,11.87H988.5l-2.16-8a4.85,4.85,0,0,1-.16-1h0a4.24,4.24,0,0,1-.21,1l-2.29,8h-2.76l-3.49-11.87h2.78l2.16,8.56a4.82,4.82,0,0,1,.14,1h.08a4.9,4.9,0,0,1,.19-1l2.4-8.53h2.5l2.14,8.59a5.62,5.62,0,0,1,.15,1h.08a5.65,5.65,0,0,1,.17-1l2.11-8.59Zm11.12,11.87h-2.61v-1.85h-.05a3.93,3.93,0,0,1-3.6,2.13,3.8,3.8,0,0,1-2.75-.95,3.32,3.32,0,0,1-1-2.52c0-2.24,1.29-3.54,3.87-3.92l3.53-.49c0-1.7-.8-2.54-2.41-2.54a5.7,5.7,0,0,0-3.83,1.46v-2.36a8.36,8.36,0,0,1,4.34-1.11q4.5,0,4.5,4.43Zm-2.6-5.83-2.49.35a3.89,3.89,0,0,0-1.75.57,1.89,1.89,0,0,0-.06,2.67h0a2.18,2.18,0,0,0,1.45.47,2.66,2.66,0,0,0,2-.86,3.08,3.08,0,0,0,.81-2.18Zm12.78-3.48a2.23,2.23,0,0,0-1.4-.38,2.39,2.39,0,0,0-2,1.08,4.83,4.83,0,0,0-.8,2.93v5.68h-2.69V210.42h2.69v2.45h0a4,4,0,0,1,1.2-2,2.72,2.72,0,0,1,1.84-.71,2.26,2.26,0,0,1,1.11.22Zm12.49,9.31h-2.69v-2h0a4.64,4.64,0,0,1-6.36,1.66,4.56,4.56,0,0,1-1.15-.95,6.6,6.6,0,0,1-1.31-4.35,7.19,7.19,0,0,1,1.45-4.71,4.78,4.78,0,0,1,3.88-1.78,3.7,3.7,0,0,1,3.49,1.93h0v-7.41h2.76Zm-2.66-5.42v-1.56a3,3,0,0,0-.82-2.14,2.75,2.75,0,0,0-2.1-.88,2.83,2.83,0,0,0-2.38,1.12,5.08,5.08,0,0,0-.86,3.12,4.49,4.49,0,0,0,.83,2.86,2.72,2.72,0,0,0,2.24,1,2.77,2.77,0,0,0,2.23-1,3.81,3.81,0,0,0,.91-2.52ZM867.46,247.93V231.31h4.8q9.19,0,9.2,8.1a8,8,0,0,1-2.55,6.19,9.72,9.72,0,0,1-6.84,2.33Zm2.75-14.25v11.95h2.2a6.15,6.15,0,0,0,4.53-1.6,6,6,0,0,0,1.62-4.52q0-5.83-6-5.83Zm15.35-.08a1.63,1.63,0,0,1-1.13-.43,1.51,1.51,0,0,1,0-2.19,1.71,1.71,0,0,1,2.29,0,1.48,1.48,0,0,1,0,2.18,1.64,1.64,0,0,1-1.16.41ZM886.9,248h-2.69v-11.9h2.69Zm2.78-.37V245.1a5.36,5.36,0,0,0,3.33,1.15q2.43,0,2.43-1.44a1.12,1.12,0,0,0-.21-.68,1.82,1.82,0,0,0-.56-.51,5.38,5.38,0,0,0-.84-.4l-1.07-.39a13.2,13.2,0,0,1-1.32-.62,4,4,0,0,1-1-.73,2.85,2.85,0,0,1-.58-.94,3.36,3.36,0,0,1-.2-1.22,2.74,2.74,0,0,1,.41-1.5,3.37,3.37,0,0,1,1.09-1.1,4.67,4.67,0,0,1,1.55-.68,7.28,7.28,0,0,1,1.8-.23,8,8,0,0,1,2.94.5v2.37a5,5,0,0,0-2.87-.85,4.14,4.14,0,0,0-.93.1,2.53,2.53,0,0,0-.7.29,1.38,1.38,0,0,0-.45.45,1,1,0,0,0-.16.57,1.23,1.23,0,0,0,.16.65,1.57,1.57,0,0,0,.48.48,5.33,5.33,0,0,0,.76.37l1,.36a13.09,13.09,0,0,1,1.37.63,4.59,4.59,0,0,1,1,.75,2.85,2.85,0,0,1,.66,1,3.25,3.25,0,0,1,.23,1.27,2.93,2.93,0,0,1-.42,1.58,3.46,3.46,0,0,1-1.11,1.11,4.91,4.91,0,0,1-1.61.65,8.87,8.87,0,0,1-5.29-.43Zm17.25.25a4.6,4.6,0,0,1-2.07.39c-2.3,0-3.46-1.1-3.46-3.32V238.2h-2v-2.11h2v-2.75l2.69-.76v3.51h2.84v2.11h-2.84v5.94a2.28,2.28,0,0,0,.39,1.5,1.55,1.55,0,0,0,1.27.46,1.8,1.8,0,0,0,1.18-.4Zm9.21-9.19a2.23,2.23,0,0,0-1.4-.38,2.39,2.39,0,0,0-2,1.08,4.83,4.83,0,0,0-.8,2.93V248h-2.69v-11.9h2.69v2.45h0a4,4,0,0,1,1.21-1.95,2.74,2.74,0,0,1,1.83-.71,2.37,2.37,0,0,1,1.11.22Zm3.26-5.05a1.7,1.7,0,0,1-1.14-.43,1.53,1.53,0,0,1,0-2.19,1.72,1.72,0,0,1,2.3,0,1.5,1.5,0,0,1,0,2.18,1.66,1.66,0,0,1-1.16.41ZM920.73,248H918v-11.9h2.69Zm6.27-1.71h0V248h-2.69v-17.6H927v7.79h0a4.38,4.38,0,0,1,4-2.37,4.19,4.19,0,0,1,3.51,1.6,6.6,6.6,0,0,1,1.28,4.27,7.5,7.5,0,0,1-1.43,4.78,4.73,4.73,0,0,1-3.89,1.78,3.8,3.8,0,0,1-3.47-2Zm-.07-4.72V243a3.14,3.14,0,0,0,.82,2.2,2.92,2.92,0,0,0,4.13.11,2.74,2.74,0,0,0,.32-.36,5.45,5.45,0,0,0,.86-3.26,4.25,4.25,0,0,0-.8-2.74,2.59,2.59,0,0,0-2.15-1,2.88,2.88,0,0,0-2.31,1,3.8,3.8,0,0,0-.87,2.55Zm22,6.43h-2.69v-1.87h0a3.88,3.88,0,0,1-3.64,2.15c-2.81,0-4.22-1.67-4.21-5v-7.1h2.69V243c0,2.13.82,3.2,2.47,3.2a2.47,2.47,0,0,0,2-.88,3.4,3.4,0,0,0,.77-2.31v-6.83H949Zm9.78-.12a4.65,4.65,0,0,1-2.08.39c-2.3,0-3.45-1.1-3.45-3.32V238.2h-2v-2.11h2v-2.75l2.69-.76v3.51h2.81v2.11h-2.84v5.94a2.34,2.34,0,0,0,.38,1.5,1.57,1.57,0,0,0,1.28.46,1.81,1.81,0,0,0,1.18-.42Zm3.67-14.24a1.68,1.68,0,0,1-1.13-.43,1.53,1.53,0,0,1,0-2.19,1.71,1.71,0,0,1,2.29,0,1.48,1.48,0,0,1,0,2.18,1.66,1.66,0,0,1-1.17.41Zm1.3,14.33H961V236.06h2.69Zm8.79.28a5.9,5.9,0,0,1-4.4-1.66,6,6,0,0,1-1.63-4.41,5.83,5.83,0,0,1,6.32-6.36,5.67,5.67,0,0,1,4.33,1.64,7.2,7.2,0,0,1-.12,9.09,6,6,0,0,1-4.47,1.7Zm.13-10.28a3,3,0,0,0-2.5,1.1,4.6,4.6,0,0,0-.91,3,4.33,4.33,0,0,0,.92,2.94,3.17,3.17,0,0,0,2.57,1.11,2.91,2.91,0,0,0,2.43-1.06,4.65,4.65,0,0,0,.86-3,4.71,4.71,0,0,0-.86-3,2.93,2.93,0,0,0-2.43-1.09Zm19.37,10h-2.69v-6.69c0-2.22-.78-3.32-2.35-3.32a2.58,2.58,0,0,0-2,.92,3.39,3.39,0,0,0-.8,2.32v6.77h-2.7V236.06h2.7v2h0a4.23,4.23,0,0,1,3.85-2.25,3.55,3.55,0,0,1,2.95,1.27,5.62,5.62,0,0,1,1,3.62Z" transform="translate(0 -0.03)"/><path class="cls-9" d="M781.58,227.33l-19.72-11.39v22.74Zm-117.36,2h99.61v-3.94H664.22Z" transform="translate(0 -0.03)"/><path class="cls-9" d="M892,467h2v-2h-2Zm0,114.4,11.38-19.7H880.68Zm-286,0,11.38-19.7H594.68ZM890,467v96.7h4V467Zm-596.65,2H606V465H293.41ZM606,469H892V465H606Zm-2-2v96.7h4V467Z" transform="translate(0 -0.03)"/><path class="cls-8" d="M982.45,58.68,976.77,79.4h-3.89l-3.94-14.49a9.57,9.57,0,0,1-.3-2h-.06a10.34,10.34,0,0,1-.35,2l-4,14.52h-4l-5.72-20.75h3.77L962,73.85a10.49,10.49,0,0,1,.29,2h.07a12.23,12.23,0,0,1,.41-2l4.25-15.17h3.54L974.51,74a11.71,11.71,0,0,1,.31,1.85h.06a12.51,12.51,0,0,1,.33-1.91l3.68-15.23ZM995.14,79.4h-3.25V77.09h0a4.9,4.9,0,0,1-4.5,2.66,4.77,4.77,0,0,1-3.42-1.19,4.16,4.16,0,0,1-1.23-3.13c0-2.8,1.61-4.42,4.83-4.89l4.39-.62c0-2.11-1-3.17-3-3.16a7.14,7.14,0,0,0-4.76,1.82v-2.9a10.34,10.34,0,0,1,5.4-1.39c3.74,0,5.6,1.84,5.6,5.52Zm-3.23-7.27-3.11.44a5,5,0,0,0-2.18.7,2.09,2.09,0,0,0-.72,1.8,2,2,0,0,0,.66,1.54,2.69,2.69,0,0,0,1.81.59,3.31,3.31,0,0,0,2.53-1.06,3.89,3.89,0,0,0,1-2.72Zm10.7,7.27h-3.36V57.5h3.36Zm7.75,0H1007V57.5h3.37Zm16.9-6.49h-10.09a4.27,4.27,0,0,0,1.26,3.17,4.72,4.72,0,0,0,3.32,1.11,7.24,7.24,0,0,0,4.35-1.42v2.71a10.07,10.07,0,0,1-5.34,1.27,6.62,6.62,0,0,1-5.13-2,8.14,8.14,0,0,1-1.85-5.68,7.86,7.86,0,0,1,2-5.62,6.7,6.7,0,0,1,5.08-2.18,5.85,5.85,0,0,1,4.7,2,8.08,8.08,0,0,1,1.66,5.42ZM1024,70.54a4.32,4.32,0,0,0-.85-2.8,2.87,2.87,0,0,0-2.31-1,3.28,3.28,0,0,0-2.46,1.06,4.88,4.88,0,0,0-1.23,2.75Zm14.23,8.7a5.71,5.71,0,0,1-2.58.49c-2.87,0-4.31-1.37-4.31-4.13V67.24h-2.47V64.61h2.47V61.18l3.35-1v4.38h3.54v2.63h-3.57v7.49a2.91,2.91,0,0,0,.48,1.88,2,2,0,0,0,1.59.56,2.31,2.31,0,0,0,1.47-.49Z" transform="translate(0 -0.03)"/><path class="cls-8" d="M428.34,219.4h-6v17.79H418.9V219.4H413v-2.92h15.33Zm8.81,6.19a2.81,2.81,0,0,0-1.74-.47,3,3,0,0,0-2.49,1.34,6,6,0,0,0-1,3.65v7.08h-3.35V222.4h3.35v3H432a5.15,5.15,0,0,1,1.5-2.43,3.4,3.4,0,0,1,2.29-.88,2.84,2.84,0,0,1,1.38.27Zm13.73,11.6h-3.2v-2.31h-.06a4.88,4.88,0,0,1-4.49,2.66,4.79,4.79,0,0,1-3.43-1.18,4.2,4.2,0,0,1-1.23-3.14q0-4.18,4.83-4.88l4.38-.66q0-3.17-3-3.17a7.17,7.17,0,0,0-4.77,1.82V223.4a10.44,10.44,0,0,1,5.4-1.39q5.61,0,5.61,5.52Zm-3.2-7.26-3.1.43a5,5,0,0,0-2.19.71,2.34,2.34,0,0,0-.05,3.33,2.62,2.62,0,0,0,1.8.6,3.29,3.29,0,0,0,2.53-1.07,3.89,3.89,0,0,0,1-2.72Zm20.52,7.26h-3.36v-8.33c0-2.77-1-4.15-2.93-4.15a3.2,3.2,0,0,0-2.53,1.16,4.25,4.25,0,0,0-1,2.89v8.43H455V222.4h3.37v2.46h0a5.29,5.29,0,0,1,4.8-2.81,4.43,4.43,0,0,1,3.68,1.63,7,7,0,0,1,1.28,4.52Zm3.17-.46v-3a6.74,6.74,0,0,0,4.15,1.43q3,0,3-1.8a1.38,1.38,0,0,0-.26-.85,2.26,2.26,0,0,0-.71-.63,5.19,5.19,0,0,0-1-.5l-1.33-.49a13.71,13.71,0,0,1-1.65-.76,4.93,4.93,0,0,1-1.21-.91,3.84,3.84,0,0,1-.73-1.17,4.36,4.36,0,0,1-.24-1.52,3.56,3.56,0,0,1,.5-1.88,4.34,4.34,0,0,1,1.36-1.37,6,6,0,0,1,1.94-.84,8.88,8.88,0,0,1,2.24-.29,10.23,10.23,0,0,1,3.67.62v2.94a6.2,6.2,0,0,0-3.59-1.07,4.46,4.46,0,0,0-1.15.13,3.33,3.33,0,0,0-.87.36,1.67,1.67,0,0,0-.56.56,1.28,1.28,0,0,0-.21.71,1.45,1.45,0,0,0,.21.81,1.85,1.85,0,0,0,.59.59,5.55,5.55,0,0,0,1,.46l1.29.45a17.56,17.56,0,0,1,1.7.8,5.38,5.38,0,0,1,1.3.92,3.41,3.41,0,0,1,.83,1.19,4.06,4.06,0,0,1,.29,1.58,3.7,3.7,0,0,1-.52,2,4.39,4.39,0,0,1-1.39,1.39,6.57,6.57,0,0,1-2,.81,10.59,10.59,0,0,1-2.38.27,10.08,10.08,0,0,1-4.26-.89Zm25.05.46h-3.25v-2.31h-.05a4.9,4.9,0,0,1-4.5,2.66,4.76,4.76,0,0,1-3.42-1.18,4.2,4.2,0,0,1-1.23-3.14q0-4.18,4.83-4.88l4.39-.62q0-3.16-3-3.17a7.14,7.14,0,0,0-4.76,1.82v-2.93a10.44,10.44,0,0,1,5.4-1.39c3.74,0,5.6,1.84,5.6,5.52Zm-3.23-7.26-3.11.43a5,5,0,0,0-2.18.71,2.35,2.35,0,0,0-.06,3.33,2.64,2.64,0,0,0,1.81.6,3.36,3.36,0,0,0,2.53-1.07,3.89,3.89,0,0,0,1-2.72Zm17.93,6.59a8.34,8.34,0,0,1-4.21,1,7.13,7.13,0,0,1-5.32-2.05,7.36,7.36,0,0,1-2-5.35,8,8,0,0,1,2.09-5.84,7.78,7.78,0,0,1,5.82-2.23,8.56,8.56,0,0,1,3.57.71v3.12a5.39,5.39,0,0,0-3.29-1.15,4.58,4.58,0,0,0-3.49,1.44,5.26,5.26,0,0,0-1.35,3.76,5,5,0,0,0,1.27,3.62,4.54,4.54,0,0,0,3.47,1.33,5.39,5.39,0,0,0,3.41-1.28Zm11.13.51a5.72,5.72,0,0,1-2.58.5q-4.3,0-4.31-4.14V225h-2.47V222.4h2.47V219l3.35-1v4.38h3.54V225h-3.57v7.4a2.88,2.88,0,0,0,.48,1.87,2,2,0,0,0,1.59.57,2.31,2.31,0,0,0,1.47-.49Zm4.58-17.74a2,2,0,0,1-1.41-.53,1.76,1.76,0,0,1-.58-1.36,1.81,1.81,0,0,1,.58-1.37,2.13,2.13,0,0,1,2.86,0,1.86,1.86,0,0,1,0,2.72,2.1,2.1,0,0,1-1.49.54Zm1.66,17.9h-3.35V222.4h3.35Zm11,.35a7.35,7.35,0,0,1-5.48-2.07,7.54,7.54,0,0,1-2-5.5,7.32,7.32,0,0,1,6.65-7.92,8.42,8.42,0,0,1,1.23,0,7.09,7.09,0,0,1,5.4,2,7.91,7.91,0,0,1,1.94,5.65,7.75,7.75,0,0,1-2.1,5.68,7.51,7.51,0,0,1-5.72,2.16Zm.15-12.81a3.81,3.81,0,0,0-3.1,1.37,5.76,5.76,0,0,0-1.14,3.78,5.41,5.41,0,0,0,1.15,3.67,3.87,3.87,0,0,0,3.09,1.33,3.71,3.71,0,0,0,3-1.31,7.11,7.11,0,0,0,0-7.51,3.65,3.65,0,0,0-3.08-1.33Zm24,12.46h-3.35v-8.33c0-2.77-1-4.16-2.93-4.15a3.2,3.2,0,0,0-2.53,1.16,4.25,4.25,0,0,0-1,2.89v8.43h-3.36V222.4h3.36v2.46h.06a5.29,5.29,0,0,1,4.8-2.81,4.44,4.44,0,0,1,3.68,1.58,7,7,0,0,1,1.27,4.52Zm23.81-17.79h-7.74v6.22h7.14v2.9h-7.14v8.67h-3.44V216.48h11.18Zm15.87,11.28H593.28a4.24,4.24,0,0,0,1.25,3.16,4.76,4.76,0,0,0,3.33,1.11,7.35,7.35,0,0,0,4.34-1.41v2.7a9.87,9.87,0,0,1-5.34,1.27,6.62,6.62,0,0,1-5.13-2,8.09,8.09,0,0,1-1.85-5.68,7.86,7.86,0,0,1,2-5.62A6.7,6.7,0,0,1,597,222a5.84,5.84,0,0,1,4.7,1.95,8.18,8.18,0,0,1,1.66,5.42Zm-3.24-2.37a4.3,4.3,0,0,0-.85-2.81,2.87,2.87,0,0,0-2.31-1,3.32,3.32,0,0,0-2.46,1.06,4.83,4.83,0,0,0-1.22,2.76Zm19,2.37H609a4.25,4.25,0,0,0,1.26,3.16,4.72,4.72,0,0,0,3.32,1.11,7.32,7.32,0,0,0,4.35-1.41v2.7a9.87,9.87,0,0,1-5.34,1.27,6.62,6.62,0,0,1-5.13-2,8.09,8.09,0,0,1-1.85-5.68,7.86,7.86,0,0,1,2-5.62,6.67,6.67,0,0,1,5.08-2.18,5.87,5.87,0,0,1,4.7,1.95A8.18,8.18,0,0,1,619,229.4Zm-3.24-2.37a4.3,4.3,0,0,0-.85-2.81,2.87,2.87,0,0,0-2.31-1,3.28,3.28,0,0,0-2.46,1.06,4.91,4.91,0,0,0-1.23,2.76Z" transform="translate(0 -0.03)"/><path class="cls-8" d="M406.36,32h-5.95V49.81H397V32H391V29.1h15.33Zm8.81,6.19a2.81,2.81,0,0,0-1.74-.47,3,3,0,0,0-2.49,1.34,6,6,0,0,0-1,3.66v7.07h-3.35V35h3.35v3H410a5.15,5.15,0,0,1,1.5-2.43,3.4,3.4,0,0,1,2.29-.88,2.74,2.74,0,0,1,1.38.28Zm13.73,11.6h-3.22V47.5h-.06a4.9,4.9,0,0,1-4.49,2.66A4.75,4.75,0,0,1,417.68,49a4.2,4.2,0,0,1-1.23-3.14c0-2.79,1.61-4.41,4.83-4.88l4.39-.62c0-2.11-1-3.16-3-3.17A7.17,7.17,0,0,0,417.9,39V36.06a10.44,10.44,0,0,1,5.4-1.39q5.61,0,5.61,5.52Zm-3.22-7.26-3.1.43a5,5,0,0,0-2.19.71,2.36,2.36,0,0,0-.06,3.34h0a2.7,2.7,0,0,0,1.81.59,3.31,3.31,0,0,0,2.54-1.07,3.89,3.89,0,0,0,1-2.72Zm20.52,7.26h-3.36V41.48c0-2.77-1-4.15-2.93-4.15a3.2,3.2,0,0,0-2.53,1.16,4.25,4.25,0,0,0-1,2.89v8.43H433V35h3.37v2.46h.05a5.29,5.29,0,0,1,4.8-2.81,4.44,4.44,0,0,1,3.68,1.58,7,7,0,0,1,1.28,4.52Zm3.17-.46v-3.1a6.72,6.72,0,0,0,4.13,1.43q3,0,3-1.8a1.38,1.38,0,0,0-.26-.85,2.26,2.26,0,0,0-.71-.63,4.22,4.22,0,0,0-1-.49l-1.32-.5a13.71,13.71,0,0,1-1.65-.76,4.93,4.93,0,0,1-1.21-.91,3.84,3.84,0,0,1-.73-1.17,4.36,4.36,0,0,1-.24-1.52,3.56,3.56,0,0,1,.5-1.88,4.34,4.34,0,0,1,1.36-1.37,6.56,6.56,0,0,1,1.94-.84,8.88,8.88,0,0,1,2.24-.29,9.93,9.93,0,0,1,3.66.63v2.93a6.15,6.15,0,0,0-3.58-1.07,4.46,4.46,0,0,0-1.15.13,3.33,3.33,0,0,0-.87.36,1.67,1.67,0,0,0-.56.56,1.28,1.28,0,0,0-.21.71,1.45,1.45,0,0,0,.21.81,1.85,1.85,0,0,0,.59.59,6.45,6.45,0,0,0,.95.47l1.29.44a17.56,17.56,0,0,1,1.7.8,5.58,5.58,0,0,1,1.3.92,3.51,3.51,0,0,1,.83,1.19,4.11,4.11,0,0,1,.29,1.59,3.7,3.7,0,0,1-.52,2A4.39,4.39,0,0,1,458,49.12a6.57,6.57,0,0,1-2,.81,10.59,10.59,0,0,1-2.38.27,10.26,10.26,0,0,1-4.23-.85Zm25.05.46h-3.25V47.5h-.06a4.9,4.9,0,0,1-4.49,2.66A4.76,4.76,0,0,1,463.2,49,4.2,4.2,0,0,1,462,45.84c0-2.79,1.61-4.41,4.83-4.88l4.39-.62c0-2.11-1-3.16-3-3.17A7.17,7.17,0,0,0,463.42,39V36.06a10.48,10.48,0,0,1,5.38-1.38q5.59,0,5.6,5.52Zm-3.23-7.26-3.11.43a5,5,0,0,0-2.18.71,2.36,2.36,0,0,0-.06,3.34h0a2.69,2.69,0,0,0,1.81.59,3.36,3.36,0,0,0,2.53-1.07,3.89,3.89,0,0,0,1-2.72Zm17.93,6.59a8.34,8.34,0,0,1-4.21,1,7.12,7.12,0,0,1-5.32-2,7.36,7.36,0,0,1-2-5.35,8,8,0,0,1,2.09-5.89,7.79,7.79,0,0,1,5.86-2.22,8.56,8.56,0,0,1,3.57.71v3.12a5.4,5.4,0,0,0-3.3-1.15,4.58,4.58,0,0,0-3.48,1.44A5.26,5.26,0,0,0,481,42.56a5,5,0,0,0,1.27,3.62,4.57,4.57,0,0,0,3.43,1.32,5.44,5.44,0,0,0,3.42-1.28Zm11.13.51a5.72,5.72,0,0,1-2.58.5q-4.31,0-4.31-4.14V37.68h-2.47V35h2.47V31.6l3.32-.92v4.38h3.54v2.62h-3.54v7.4a2.88,2.88,0,0,0,.48,1.87,2,2,0,0,0,1.59.57,2.31,2.31,0,0,0,1.47-.49Zm4.58-17.74a2,2,0,0,1-1.41-.53,1.76,1.76,0,0,1-.58-1.36,1.81,1.81,0,0,1,.58-1.37,2.13,2.13,0,0,1,2.86,0,1.86,1.86,0,0,1,0,2.72,2.09,2.09,0,0,1-1.47.54Zm1.66,17.9h-3.35V35h3.35Zm11,.35A7.33,7.33,0,0,1,512,48.09a7.54,7.54,0,0,1-2-5.5,7.31,7.31,0,0,1,6.67-7.9,8.06,8.06,0,0,1,1.1,0,7.09,7.09,0,0,1,5.4,2,7.91,7.91,0,0,1,1.94,5.65A7.75,7.75,0,0,1,523,48a7.55,7.55,0,0,1-5.61,2.15Zm.16-12.81a3.79,3.79,0,0,0-3.17,1.33,5.71,5.71,0,0,0-1.14,3.78,5.41,5.41,0,0,0,1.15,3.67,3.87,3.87,0,0,0,3.09,1.33,3.71,3.71,0,0,0,3-1.31,5.83,5.83,0,0,0,1.1-3.7,5.89,5.89,0,0,0-1.06-3.77,3.66,3.66,0,0,0-3-1.33Zm24,12.46h-3.35V41.48q0-4.15-2.93-4.15a3.2,3.2,0,0,0-2.53,1.16,4.25,4.25,0,0,0-1,2.89v8.43h-3.36V35h3.36v2.46h.06a5.29,5.29,0,0,1,4.8-2.81,4.44,4.44,0,0,1,3.68,1.58,7,7,0,0,1,1.27,4.52Zm34.88,0h-3.41V36.41c0-1.1.06-2.44.2-4h-.06a14.93,14.93,0,0,1-.56,2l-6.18,15.48h-2.37L558,34.47a14.54,14.54,0,0,1-.55-2.06h-.06c.08.83.12,2.18.12,4.06V49.81h-3.18V29.1h4.84l5.53,13.79a19.46,19.46,0,0,1,.81,2.37h.08c.35-1.08.64-1.89.86-2.42L572,29.1h4.67Zm11.29.35a7.33,7.33,0,0,1-5.47-2.07,7.54,7.54,0,0,1-2-5.5A7.3,7.3,0,0,1,587,34.68a8.42,8.42,0,0,1,1.23,0,7.07,7.07,0,0,1,5.43,2,7.9,7.9,0,0,1,1.93,5.65A7.74,7.74,0,0,1,593.52,48a7.52,7.52,0,0,1-5.63,2.15ZM588,37.35a3.81,3.81,0,0,0-3.1,1.37,5.7,5.7,0,0,0-1.15,3.78,5.47,5.47,0,0,0,1.16,3.67A3.87,3.87,0,0,0,588,47.5a3.71,3.71,0,0,0,3-1.31,5.82,5.82,0,0,0,1.07-3.74,5.87,5.87,0,0,0-1-3.77,3.66,3.66,0,0,0-3-1.33Zm24.42,12.46h-3.35V47.3H609a5.81,5.81,0,0,1-7.94,2.06,6.2,6.2,0,0,1-1.42-1.18A8.26,8.26,0,0,1,598,42.76a9.07,9.07,0,0,1,1.81-5.88,6,6,0,0,1,4.85-2.2,4.64,4.64,0,0,1,4.35,2.4h.06V27.91h3.35Zm-3.31-6.76V41.12a3.79,3.79,0,0,0-1-2.68,3.39,3.39,0,0,0-2.61-1.09,3.51,3.51,0,0,0-3,1.4,6.21,6.21,0,0,0-1,3.93,5.6,5.6,0,0,0,1,3.57,3.41,3.41,0,0,0,2.79,1.3,3.52,3.52,0,0,0,2.79-1.25,4.8,4.8,0,0,0,1.09-3.25Zm20.21.28h-10a4.24,4.24,0,0,0,1.25,3.16,4.76,4.76,0,0,0,3.33,1.11,7.35,7.35,0,0,0,4.34-1.41v2.7a9.87,9.87,0,0,1-5.34,1.27,6.62,6.62,0,0,1-5.13-2,8.16,8.16,0,0,1-1.85-5.67,7.86,7.86,0,0,1,2-5.62A6.69,6.69,0,0,1,623,34.68a5.84,5.84,0,0,1,4.7,2,8.08,8.08,0,0,1,1.66,5.42ZM626.09,41a4.21,4.21,0,0,0-.85-2.8,2.81,2.81,0,0,0-2.31-1,3.32,3.32,0,0,0-2.46,1.06A4.83,4.83,0,0,0,619.25,41Zm9.8,8.85h-3.37V27.91h3.37Z" transform="translate(0 -0.03)"/><path class="cls-10" d="M881.19,69.54,861.46,58.15V80.93ZM514.32,181l11.36-19.72H502.93ZM314.12,69.54Zm198.23,0v93.69h3.94V69.54Zm-198.23,2H863.44v-4H314.12Zm-148.92,0H314.12v-4H165.2Z" transform="translate(0 -0.03)"/><rect class="cls-2" x="867.38" y="505.14" width="48.26" height="34.25"/><rect class="cls-1" x="867.38" y="505.14" width="48.26" height="34.25"/><path class="cls-11" d="M867.38,515.45V512H868v-6.26H877v-.59h4.83v.59h19.3v-.59H906v.59h9.06v13.11h.63v6.85h-.59v13.11H906v.59H901.2v-.59H881.9v.59h-4.83v-.59H868v-6.26h-.59v-3.43H868v-13.7Z" transform="translate(0 -0.03)"/><path class="cls-8" d="M885.3,528.74h-6.72v-.83a3.06,3.06,0,0,1,.14-1,4.16,4.16,0,0,1,.38-.83,4.5,4.5,0,0,1,.56-.74c.22-.24.45-.46.69-.68s.49-.42.75-.62l.74-.62c.23-.19.44-.38.63-.56a4.65,4.65,0,0,0,.49-.59,2.4,2.4,0,0,0,.31-.62,2.27,2.27,0,0,0,.11-.73,1.9,1.9,0,0,0-.13-.74,1.5,1.5,0,0,0-.37-.53,1.33,1.33,0,0,0-.55-.32,1.84,1.84,0,0,0-.7-.11,3.27,3.27,0,0,0-1.34.3,4.63,4.63,0,0,0-1.31.92v-1.66a4.83,4.83,0,0,1,1.36-.73,4,4,0,0,1,.76-.19,5.93,5.93,0,0,1,.84-.06,4.22,4.22,0,0,1,1.32.19,2.61,2.61,0,0,1,1,.56,2.31,2.31,0,0,1,.65.92,3.25,3.25,0,0,1,.23,1.27,3.91,3.91,0,0,1-.16,1.18,3.77,3.77,0,0,1-.46,1,4.45,4.45,0,0,1-.71.85c-.28.27-.59.55-.93.83l-.87.69a8,8,0,0,0-.77.65,3.72,3.72,0,0,0-.56.63,1.14,1.14,0,0,0-.21.64h4.83Zm2.21-.24v-1.67a3.76,3.76,0,0,0,2.14.71,2.69,2.69,0,0,0,1.75-.55,1.85,1.85,0,0,0,.67-1.49,1.68,1.68,0,0,0-.68-1.42,3.24,3.24,0,0,0-1.94-.51,16.08,16.08,0,0,0-1.75.09l.38-5.63h5.27v1.48h-3.83l-.18,2.68h.93a3.7,3.7,0,0,1,2.63.87,3.09,3.09,0,0,1,.94,2.4,3.25,3.25,0,0,1-1.07,2.55,4.21,4.21,0,0,1-2.92,1A4.88,4.88,0,0,1,887.51,528.5ZM898,523.41a2.37,2.37,0,0,1-1.81-.73,2.75,2.75,0,0,1-.67-2,3,3,0,0,1,.71-2.09,2.54,2.54,0,0,1,1.93-.77,2.32,2.32,0,0,1,1.81.71,2.8,2.8,0,0,1,.65,2,2.9,2.9,0,0,1-.72,2.07A2.5,2.5,0,0,1,898,523.41Zm.11-4.49a1.13,1.13,0,0,0-1,.47,2,2,0,0,0-.36,1.29,2,2,0,0,0,.35,1.26,1.14,1.14,0,0,0,1,.44,1.12,1.12,0,0,0,1-.46,2.22,2.22,0,0,0,.35-1.3,2,2,0,0,0-.35-1.25A1.09,1.09,0,0,0,898.07,518.92Zm7.15-.89-6.88,10.79h-1.07L904.14,518Zm-1,10.88a2.37,2.37,0,0,1-1.81-.73,2.84,2.84,0,0,1-.67-2,3,3,0,0,1,.71-2.09,2.54,2.54,0,0,1,1.93-.77,2.34,2.34,0,0,1,1.82.71,2.85,2.85,0,0,1,.64,2,2.9,2.9,0,0,1-.72,2.07,2.5,2.5,0,0,1-1.87.81Zm.11-4.49a1.13,1.13,0,0,0-1,.47,2,2,0,0,0-.36,1.29,2,2,0,0,0,.35,1.25,1.13,1.13,0,0,0,.95.45,1.12,1.12,0,0,0,1-.46,2.22,2.22,0,0,0,.35-1.3,2,2,0,0,0-.35-1.26,1.08,1.08,0,0,0-.91-.44Z" transform="translate(0 -0.03)"/><rect class="cls-2" x="581.38" y="505.14" width="48.26" height="34.25"/><rect class="cls-1" x="581.38" y="505.14" width="48.26" height="34.25"/><path class="cls-12" d="M581.38,515.45V512H582v-6.26H591v-.59h4.83v.59h19.3v-.59H620v.59h9.06v13.11h.63v6.85h-.59v13.11H620v.59H615.2v-.59H595.9v.59h-4.83v-.59H582v-6.26h-.59v-3.43H582v-13.7Z" transform="translate(0 -0.03)"/><path class="cls-8" d="M599.3,528.74h-6.72v-.83a3.06,3.06,0,0,1,.14-1,3.66,3.66,0,0,1,.38-.83,4.5,4.5,0,0,1,.56-.74,8.84,8.84,0,0,1,.69-.68c.24-.21.49-.42.75-.62l.74-.62c.23-.19.44-.38.63-.56a4.65,4.65,0,0,0,.49-.59,2.4,2.4,0,0,0,.31-.62,2.27,2.27,0,0,0,.11-.73,1.9,1.9,0,0,0-.13-.74,1.5,1.5,0,0,0-.37-.53,1.69,1.69,0,0,0-.55-.32,1.84,1.84,0,0,0-.7-.11,3.27,3.27,0,0,0-1.34.3,4.63,4.63,0,0,0-1.31.92v-1.66a4.83,4.83,0,0,1,1.36-.73,4,4,0,0,1,.76-.19,5.93,5.93,0,0,1,.84-.06,4.22,4.22,0,0,1,1.32.19,2.61,2.61,0,0,1,1,.56,2.38,2.38,0,0,1,.65.92,3.25,3.25,0,0,1,.23,1.27,3.92,3.92,0,0,1-.17,1.18,3.75,3.75,0,0,1-.45,1,4.45,4.45,0,0,1-.71.85c-.28.27-.59.55-.93.83l-.87.69a8,8,0,0,0-.77.65,3.72,3.72,0,0,0-.56.63,1.14,1.14,0,0,0-.21.64h4.83Zm2.21-.24v-1.67a3.76,3.76,0,0,0,2.14.71,2.69,2.69,0,0,0,1.75-.55,1.87,1.87,0,0,0,.67-1.49,1.69,1.69,0,0,0-.69-1.42,3.08,3.08,0,0,0-1.93-.51,16.33,16.33,0,0,0-1.76.09l.39-5.63h5.27v1.48h-3.83l-.18,2.68h.93a3.7,3.7,0,0,1,2.63.87,3.16,3.16,0,0,1,.94,2.4,3.25,3.25,0,0,1-1.07,2.55,4.21,4.21,0,0,1-2.92,1A4.88,4.88,0,0,1,601.51,528.5ZM612,523.41a2.37,2.37,0,0,1-1.81-.73,2.75,2.75,0,0,1-.67-2,3,3,0,0,1,.71-2.09,2.54,2.54,0,0,1,1.93-.77,2.32,2.32,0,0,1,1.81.71,2.8,2.8,0,0,1,.65,2,2.9,2.9,0,0,1-.72,2.07A2.5,2.5,0,0,1,612,523.41Zm.11-4.49a1.15,1.15,0,0,0-1,.47,2.17,2.17,0,0,0-.35,1.29,2,2,0,0,0,.35,1.26,1.14,1.14,0,0,0,1,.44,1.12,1.12,0,0,0,.95-.46,2.22,2.22,0,0,0,.35-1.3,2,2,0,0,0-.35-1.25A1.11,1.11,0,0,0,612.07,518.92Zm7.15-.89-6.88,10.79h-1.07L618.14,518Zm-1,10.88a2.37,2.37,0,0,1-1.81-.73,2.75,2.75,0,0,1-.67-2,3,3,0,0,1,.71-2.09,2.54,2.54,0,0,1,1.93-.77,2.32,2.32,0,0,1,1.81.71,2.8,2.8,0,0,1,.65,2,2.9,2.9,0,0,1-.72,2.07,2.5,2.5,0,0,1-1.87.81Zm.11-4.49a1.13,1.13,0,0,0-1,.47,2,2,0,0,0-.36,1.29,2,2,0,0,0,.35,1.25,1.13,1.13,0,0,0,.95.45,1.12,1.12,0,0,0,1-.46,2.22,2.22,0,0,0,.35-1.3,2,2,0,0,0-.35-1.26,1.08,1.08,0,0,0-.91-.44Z" transform="translate(0 -0.03)"/><rect class="cls-2" x="374.27" y="450.18" width="48.26" height="34.25"/><rect class="cls-1" x="374.27" y="450.18" width="48.26" height="34.25"/><path class="cls-13" d="M374.28,460.49v-3.43h.58V450.8h9.07v-.59h4.82v.59h19.31v-.59h4.82v.59H422v13.12h.59v6.85H422v13.11h-9.07v.58h-4.82v-.58H388.75v.58h-4.82v-.58h-9.07v-6.27h-.58v-3.42h.58v-13.7Z" transform="translate(0 -0.03)"/><path class="cls-8" d="M385.9,473.53v-1.66a3.83,3.83,0,0,0,2.14.71,2.64,2.64,0,0,0,1.75-.56,1.85,1.85,0,0,0,.67-1.49,1.67,1.67,0,0,0-.68-1.41,3.11,3.11,0,0,0-1.94-.51,16.08,16.08,0,0,0-1.75.09l.38-5.64h5.27v1.48h-3.83l-.18,2.68h.94a3.69,3.69,0,0,1,2.62.87,3.06,3.06,0,0,1,.94,2.39,3.31,3.31,0,0,1-1.07,2.56,4.21,4.21,0,0,1-2.92,1A4.88,4.88,0,0,1,385.9,473.53Zm11.48.43a3,3,0,0,1-2.62-1.37,7,7,0,0,1-.93-4,7.69,7.69,0,0,1,1-4.3,3.2,3.2,0,0,1,2.85-1.41q3.54,0,3.54,5.5a7.2,7.2,0,0,1-1,4.15A3.2,3.2,0,0,1,397.38,474Zm.17-9.69q-2,0-1.95,4.29c0,2.68.64,4,1.91,4s1.89-1.36,1.89-4.08-.62-4.21-1.85-4.21Zm7.31,4.17a2.36,2.36,0,0,1-1.81-.72,2.75,2.75,0,0,1-.67-2,2.92,2.92,0,0,1,.71-2.09,2.45,2.45,0,0,1,1.92-.77,2.27,2.27,0,0,1,1.82.71,3.32,3.32,0,0,1-.08,4.05,2.44,2.44,0,0,1-1.89.82ZM405,464a1.15,1.15,0,0,0-1,.47,2.13,2.13,0,0,0-.28,1.26,2,2,0,0,0,.34,1.25,1.27,1.27,0,0,0,2,0,2.14,2.14,0,0,0,.34-1.3,2,2,0,0,0-.34-1.26,1.11,1.11,0,0,0-1-.41Zm7.15-.89-6.87,10.79h-1.07L411,463.06Zm-1,10.88a2.36,2.36,0,0,1-1.81-.72,2.75,2.75,0,0,1-.67-2,2.92,2.92,0,0,1,.71-2.09,2.48,2.48,0,0,1,1.92-.77,2.27,2.27,0,0,1,1.82.71,2.84,2.84,0,0,1,.65,2,2.9,2.9,0,0,1-.72,2.06,2.48,2.48,0,0,1-1.86.81Zm.1-4.49a1.15,1.15,0,0,0-1,.47,2.22,2.22,0,0,0-.35,1.3,2,2,0,0,0,.34,1.25,1.27,1.27,0,0,0,1.95,0,2.14,2.14,0,0,0,.34-1.3,2,2,0,0,0-.34-1.26,1.07,1.07,0,0,0-.9-.45Z" transform="translate(0 -0.03)"/><rect class="cls-2" x="374.27" y="578.39" width="48.26" height="34.25"/><rect class="cls-1" x="374.27" y="578.39" width="48.26" height="34.25"/><path class="cls-14" d="M374.28,588.68v-3.43h.58V579h9.07v-.59h4.82V579h19.31v-.59h4.82V579H422V592.1h.59V599H422v13.13h-9.07v.6h-4.82v-.59H388.75v.59h-4.82v-.59h-9.07v-6.26h-.58v-3.42h.58V588.68Z" transform="translate(0 -0.03)"/><path class="cls-8" d="M385.9,601.74v-1.67a3.73,3.73,0,0,0,2.14.71,2.63,2.63,0,0,0,1.75-.55,1.85,1.85,0,0,0,.67-1.49,1.68,1.68,0,0,0-.68-1.42,3.11,3.11,0,0,0-1.94-.51,16.08,16.08,0,0,0-1.75.09l.38-5.63h5.27v1.48h-3.83l-.18,2.68h.94a3.62,3.62,0,0,1,2.62.88,3.06,3.06,0,0,1,.94,2.39,3.25,3.25,0,0,1-1.07,2.55,4.2,4.2,0,0,1-2.92,1A4.88,4.88,0,0,1,385.9,601.74Zm11.48.42a3,3,0,0,1-2.62-1.36,7,7,0,0,1-.93-4,7.65,7.65,0,0,1,1-4.29,3.19,3.19,0,0,1,2.82-1.46q3.54,0,3.54,5.49a7.21,7.21,0,0,1-1,4.16A3.18,3.18,0,0,1,397.38,602.16Zm.17-9.69c-1.3,0-1.95,1.44-1.95,4.3,0,2.68.64,4,1.91,4s1.89-1.36,1.89-4.09-.62-4.21-1.85-4.21Zm7.31,4.18a2.36,2.36,0,0,1-1.81-.72,2.75,2.75,0,0,1-.67-2,2.92,2.92,0,0,1,.71-2.1,2.52,2.52,0,0,1,1.92-.77,2.34,2.34,0,0,1,1.82.71,3.33,3.33,0,0,1-.08,4.06,2.46,2.46,0,0,1-1.89.85Zm.1-4.49a1.15,1.15,0,0,0-1,.47,2.17,2.17,0,0,0-.35,1.29,2,2,0,0,0,.34,1.26,1.26,1.26,0,0,0,1.95,0,2.14,2.14,0,0,0,.34-1.3,2,2,0,0,0-.34-1.25,1.09,1.09,0,0,0-.94-.45Zm7.15-.89-6.87,10.79h-1.07L411,591.27Zm-1,10.88a2.33,2.33,0,0,1-1.81-.73,2.7,2.7,0,0,1-.67-1.94,2.92,2.92,0,0,1,.71-2.1,2.52,2.52,0,0,1,1.92-.77,2.34,2.34,0,0,1,1.82.71,3.35,3.35,0,0,1-.07,4.06,2.55,2.55,0,0,1-1.86.77Zm.1-4.49a1.15,1.15,0,0,0-1,.47,2.17,2.17,0,0,0-.35,1.29,2,2,0,0,0,.34,1.26,1.26,1.26,0,0,0,1.95,0,2.14,2.14,0,0,0,.34-1.3,2,2,0,0,0-.34-1.25,1.09,1.09,0,0,0-.9-.43Z" transform="translate(0 -0.03)"/><g class="cls-15"><path class="cls-8" d="M838.38,223.86a4.51,4.51,0,1,0-5.17,0,7.84,7.84,0,0,0-2.66,1.56,9.89,9.89,0,0,0-3.65-2,5.71,5.71,0,1,0-5.9,0,10.14,10.14,0,0,0-3.62,2,8.13,8.13,0,0,0-2.62-1.53,4.51,4.51,0,1,0-5.17,0,7.92,7.92,0,0,0-5.33,7.47v.52h9.54a11.69,11.69,0,0,0-.08,1.32v.53a4.14,4.14,0,0,0,4.13,4.15H830a4.15,4.15,0,0,0,4.15-4.15h0v-.53a9.76,9.76,0,0,0-.09-1.32h9.65v-.52A7.93,7.93,0,0,0,838.38,223.86Zm-5.84-3.7a3.26,3.26,0,1,1,3.32,3.26h-.12A3.25,3.25,0,0,1,832.54,220.16Zm-13.06-1.62a4.46,4.46,0,1,1,4.71,4.45h-.51A4.46,4.46,0,0,1,819.48,218.54Zm-10.59,1.62a3.26,3.26,0,1,1,3.32,3.26h-.13a3.27,3.27,0,0,1-3.19-3.26Zm5.17,10.46h-8.53a6.67,6.67,0,0,1,6.57-6h.09a6.65,6.65,0,0,1,4.26,1.58,10.25,10.25,0,0,0-2.39,4.37Zm18.83,3.11a2.9,2.9,0,0,1-2.9,2.9h-12.1a2.9,2.9,0,0,1-2.9-2.9h0v-.53a9,9,0,0,1,8.69-8.95h.53a9,9,0,0,1,8.68,8.95Zm.93-3.11a10.19,10.19,0,0,0-2.36-4.34,6.56,6.56,0,0,1,4.29-1.61h.09a6.67,6.67,0,0,1,6.58,6Z" transform="translate(0 -0.03)"/></g><circle class="cls-16" cx="893.02" cy="705.61" r="119.33"/><circle class="cls-1" cx="893.02" cy="705.61" r="119.33"/><circle class="cls-17" cx="893.02" cy="705.61" r="118.72"/><circle class="cls-16" cx="605.05" cy="705.61" r="119.33"/><circle class="cls-1" cx="605.05" cy="705.61" r="119.33"/><circle class="cls-18" cx="605.05" cy="705.61" r="118.72"/><path class="cls-19" d="M893,597.33a108.31,108.31,0,0,0-63.66,195.94L848.46,767A75.82,75.82,0,0,1,893,629.82Z" transform="translate(0 -0.03)"/><path class="cls-20" d="M893,597.33a108.31,108.31,0,0,0-63.66,195.94L848.46,767A75.82,75.82,0,0,1,893,629.82Z" transform="translate(0 -0.03)"/><path class="cls-21" d="M541.78,617.68a108.29,108.29,0,0,1,63.76-20.39l-.14,32.49a75.9,75.9,0,0,0-44.64,14.28Z" transform="translate(0 -0.03)"/><path class="cls-22" d="M541.78,617.68a108.29,108.29,0,0,1,63.76-20.39l-.14,32.49a75.9,75.9,0,0,0-44.64,14.28Z" transform="translate(0 -0.03)"/><path class="cls-23" d="M541,793a108.34,108.34,0,0,1,.8-175.3l19,26.38a75.84,75.84,0,0,0-.56,122.68Z" transform="translate(0 -0.03)"/><path class="cls-24" d="M541,793a108.34,108.34,0,0,1,.8-175.3l19,26.38a75.84,75.84,0,0,0-.56,122.68Z" transform="translate(0 -0.03)"/><path class="cls-25" d="M893,597.33a108.31,108.31,0,1,1-63.66,195.94L848.46,767A75.82,75.82,0,1,0,893,629.82Z" transform="translate(0 -0.03)"/><path class="cls-26" d="M893,597.33a108.31,108.31,0,1,1-63.66,195.94L848.46,767A75.82,75.82,0,1,0,893,629.82Z" transform="translate(0 -0.03)"/><path class="cls-27" d="M605.05,597.33a108.31,108.31,0,1,1-63.67,195.94L560.48,767a75.82,75.82,0,1,0,44.57-137.16Z" transform="translate(0 -0.03)"/><path class="cls-28" d="M605.05,597.33a108.31,108.31,0,1,1-63.67,195.94L560.48,767a75.82,75.82,0,1,0,44.57-137.16Z" transform="translate(0 -0.03)"/><path class="cls-8" d="M856.25,704.68H847v-16.6h8.94v2.34h-6.21v4.69h5.7v2.32h-5.7v4.9h6.55Zm12.55-11.84-4,6,3.9,5.85h-3L863.6,701c-.13-.22-.29-.51-.46-.85h0a6.52,6.52,0,0,1-.48.85l-2.21,3.66h-3.1l4-5.8-3.82-6h3.15l2,3.85.45.88h0l2.65-4.73Zm8.2,11.71a4.6,4.6,0,0,1-2.07.39c-2.29,0-3.43-1.1-3.44-3.3v-6.7h-2v-2.1h2v-2.76l2.68-.76v3.5H877v2.1h-2.83v5.92a2.34,2.34,0,0,0,.38,1.5,1.61,1.61,0,0,0,1.27.46,1.81,1.81,0,0,0,1.18-.4Zm9.18-9.15a2.17,2.17,0,0,0-1.4-.38,2.36,2.36,0,0,0-2,1.07A4.87,4.87,0,0,0,882,699v5.67H879.3V692.82H882v2.44h0a4.06,4.06,0,0,1,1.2-1.94,2.73,2.73,0,0,1,1.83-.7,2.37,2.37,0,0,1,1.11.21Zm11,9.28h-2.6v-1.85h0A3.92,3.92,0,0,1,891,705a3.81,3.81,0,0,1-2.74-.94,3.33,3.33,0,0,1-1-2.51q0-3.36,3.86-3.91l3.52-.5c0-1.68-.8-2.53-2.41-2.53a5.7,5.7,0,0,0-3.81,1.46v-2.34a8.29,8.29,0,0,1,4.32-1.11c3,0,4.49,1.48,4.49,4.42Zm-2.59-5.82-2.49.35a3.85,3.85,0,0,0-1.74.57,1.88,1.88,0,0,0-.05,2.67,2.13,2.13,0,0,0,1.45.47,2.61,2.61,0,0,0,2-.85,3.08,3.08,0,0,0,.81-2.18Zm14.34,5.27a6.59,6.59,0,0,1-3.36.82,5.68,5.68,0,0,1-4.26-1.64A5.79,5.79,0,0,1,899.7,699a6.36,6.36,0,0,1,1.73-4.69,6.22,6.22,0,0,1,4.66-1.79,6.67,6.67,0,0,1,2.85.57v2.5a4.32,4.32,0,0,0-2.63-.93,3.68,3.68,0,0,0-2.79,1.16,4.2,4.2,0,0,0-1.08,3,4,4,0,0,0,1,2.9,3.63,3.63,0,0,0,2.75,1.07,4.27,4.27,0,0,0,2.73-1Zm8.91.42a4.6,4.6,0,0,1-2.07.39c-2.3,0-3.44-1.1-3.44-3.3v-6.7h-2v-2.1h2v-2.76l2.68-.76v3.5h2.83v2.1H915v5.92a2.34,2.34,0,0,0,.38,1.5,1.58,1.58,0,0,0,1.27.46,1.81,1.81,0,0,0,1.18-.4ZM930,699.49H922a3.41,3.41,0,0,0,1,2.53,3.79,3.79,0,0,0,2.66.89,5.88,5.88,0,0,0,3.48-1.13v2.16a7.9,7.9,0,0,1-4.28,1,5.34,5.34,0,0,1-4.1-1.6,6.43,6.43,0,0,1-1.48-4.55,6.29,6.29,0,0,1,1.63-4.49,5.37,5.37,0,0,1,4.07-1.75,4.65,4.65,0,0,1,3.75,1.56,6.52,6.52,0,0,1,1.33,4.34Zm-2.59-1.9a3.35,3.35,0,0,0-.68-2.24,2.24,2.24,0,0,0-1.85-.81,2.6,2.6,0,0,0-2,.84,3.91,3.91,0,0,0-1,2.21Zm15.89,7.09h-2.65v-2h0a4.27,4.27,0,0,1-4,2.29,4.34,4.34,0,0,1-3.5-1.58,6.67,6.67,0,0,1-1.31-4.33,7.25,7.25,0,0,1,1.45-4.71,4.75,4.75,0,0,1,3.87-1.77,3.71,3.71,0,0,1,3.48,1.92h.06v-7.32h2.68Zm-2.65-5.43v-1.57a3,3,0,0,0-.82-2.14,2.76,2.76,0,0,0-2.09-.88,2.88,2.88,0,0,0-2.37,1.12,5,5,0,0,0-.86,3.11,4.63,4.63,0,0,0,.82,2.86,2.73,2.73,0,0,0,2.24,1,2.84,2.84,0,0,0,2.23-1A3.85,3.85,0,0,0,940.68,699.25Zm-85,31V713.73h5.26a6.11,6.11,0,0,1,3.8,1,3.26,3.26,0,0,1,1.41,2.74,3.93,3.93,0,0,1-.8,2.45,4.4,4.4,0,0,1-2.21,1.48h0a4.3,4.3,0,0,1,2.73,1.27,3.86,3.86,0,0,1,1,2.78,4.19,4.19,0,0,1-1.68,3.44,6.64,6.64,0,0,1-4.23,1.32Zm2.73-14.37v4.8h1.79a3.47,3.47,0,0,0,2.24-.67,2.39,2.39,0,0,0,.82-1.92q0-2.13-2.85-2.13Zm0,6.93v5.24h2.35a3.53,3.53,0,0,0,2.37-.7,2.49,2.49,0,0,0,.84-2c0-1.72-1.19-2.57-3.57-2.57ZM871,715.93a1.65,1.65,0,0,1-1.14-.43,1.52,1.52,0,0,1,0-2.18,1.7,1.7,0,0,1,2.29,0,1.47,1.47,0,0,1,.09,2.08l-.09.09A1.64,1.64,0,0,1,871,716Zm1.32,14.32h-2.68V718.46h2.68Zm6.21,0h-2.69V712.78h2.69Zm6.2,0h-2.7V712.78h2.7Zm16.73-1.13a12.08,12.08,0,0,1-5.82,1.46,8,8,0,0,1-5.95-2.29,8.2,8.2,0,0,1-2.28-6.06,8.49,8.49,0,0,1,8.82-8.78,11.73,11.73,0,0,1,4.65.81v2.83a8,8,0,0,0-4.54-1.27,5.81,5.81,0,0,0-4.35,1.74,6.3,6.3,0,0,0-1.69,4.52,6.56,6.56,0,0,0,1.46,4.5,5,5,0,0,0,4,1.63,6.24,6.24,0,0,0,3-.66v-3.94h-3.49V721.3h6.23Zm12.36,1.13h-2.61V728.4h0a3.93,3.93,0,0,1-3.6,2.13,3.87,3.87,0,0,1-2.74-.95,3.37,3.37,0,0,1-1-2.51c0-2.23,1.29-3.54,3.86-3.91l3.52-.49c0-1.69-.81-2.53-2.41-2.53a5.69,5.69,0,0,0-3.81,1.45v-2.34a8.29,8.29,0,0,1,4.32-1.11q4.49,0,4.49,4.41Zm-2.59-5.81-2.49.34a3.85,3.85,0,0,0-1.74.57,1.88,1.88,0,0,0,0,2.67,2.13,2.13,0,0,0,1.45.47,2.66,2.66,0,0,0,2-.85,3.08,3.08,0,0,0,.81-2.18Zm12.11,5.68a4.6,4.6,0,0,1-2.07.39c-2.3,0-3.44-1.1-3.44-3.3v-6.69h-2v-2.11h2v-2.73l2.68-.76v3.5h2.83v2.11h-2.83v5.91a2.3,2.3,0,0,0,.38,1.51,1.57,1.57,0,0,0,1.27.45,1.8,1.8,0,0,0,1.18-.4Zm12.19-5.06H927.5a3.41,3.41,0,0,0,1,2.53,3.79,3.79,0,0,0,2.66.89,5.88,5.88,0,0,0,3.48-1.13v2.16a8,8,0,0,1-4.28,1,5.33,5.33,0,0,1-4.1-1.61,6.46,6.46,0,0,1-1.48-4.54,6.32,6.32,0,0,1,1.63-4.5,5.35,5.35,0,0,1,4.06-1.74,4.67,4.67,0,0,1,3.76,1.56,6.42,6.42,0,0,1,1.33,4.33Zm-2.59-1.9a3.46,3.46,0,0,0-.68-2.24,2.3,2.3,0,0,0-1.85-.81,2.61,2.61,0,0,0-2,.85,3.88,3.88,0,0,0-1,2.2Z" transform="translate(0 -0.03)"/><path class="cls-8" d="M568.28,704.68H559v-16.6h8.93v2.34h-6.18v4.69h5.7v2.32h-5.7v4.9h6.55Zm12.54-11.84-3.94,6,3.89,5.85h-3.09L575.6,701c-.13-.22-.29-.51-.47-.85h0a6,6,0,0,1-.49.85l-2.16,3.66h-3.1l4-5.8-3.81-6h3.11l2.05,3.85c.15.29.3.58.44.88h0l2.65-4.73ZM589,704.55a4.74,4.74,0,0,1-2.07.39q-3.45,0-3.45-3.3v-6.7h-2v-2.1h2v-2.76l2.69-.76v3.5H589v2.1H586.2v5.92a2.28,2.28,0,0,0,.38,1.5,1.58,1.58,0,0,0,1.27.46,1.87,1.87,0,0,0,1.18-.4Zm9.17-9.15a2.17,2.17,0,0,0-1.4-.38,2.36,2.36,0,0,0-2,1.07A4.87,4.87,0,0,0,594,699v5.67h-2.68V692.82H594v2.44h0a4.06,4.06,0,0,1,1.2-1.94,2.73,2.73,0,0,1,1.82-.7,2.37,2.37,0,0,1,1.11.21Zm11,9.28h-2.6v-1.85h0A3.93,3.93,0,0,1,603,705a3.83,3.83,0,0,1-2.74-.94,3.37,3.37,0,0,1-1-2.51q0-3.36,3.86-3.91l3.51-.5c0-1.68-.8-2.53-2.4-2.53a5.7,5.7,0,0,0-3.81,1.46v-2.34a8.29,8.29,0,0,1,4.32-1.11c3,0,4.48,1.48,4.48,4.42Zm-2.59-5.82-2.48.35a3.85,3.85,0,0,0-1.74.57,1.88,1.88,0,0,0-.06,2.66h0a2.1,2.1,0,0,0,1.44.47,2.7,2.7,0,0,0,2-.85,3.13,3.13,0,0,0,.8-2.18ZM621,704.13a6.6,6.6,0,0,1-3.37.82,5.71,5.71,0,0,1-4.25-1.64,5.84,5.84,0,0,1-1.62-4.27,6.41,6.41,0,0,1,1.74-4.69,6.2,6.2,0,0,1,4.65-1.79,6.86,6.86,0,0,1,2.86.57v2.5a4.35,4.35,0,0,0-2.64-.93,3.66,3.66,0,0,0-2.78,1.16,4.14,4.14,0,0,0-1.09,3,4,4,0,0,0,1,2.9,3.62,3.62,0,0,0,2.75,1.07,4.33,4.33,0,0,0,2.73-1Zm8.91.42a4.74,4.74,0,0,1-2.07.39q-3.45,0-3.45-3.3v-6.7h-2v-2.1h2v-2.76l2.69-.76v3.5h2.83v2.1H627v5.92a2.28,2.28,0,0,0,.38,1.5,1.58,1.58,0,0,0,1.27.46,1.87,1.87,0,0,0,1.18-.4Zm12.19-5.06H634a3.41,3.41,0,0,0,1,2.53,3.79,3.79,0,0,0,2.66.89,5.88,5.88,0,0,0,3.48-1.13v2.16a8,8,0,0,1-4.28,1,5.34,5.34,0,0,1-4.1-1.6,6.43,6.43,0,0,1-1.48-4.55,6.29,6.29,0,0,1,1.63-4.49,5.37,5.37,0,0,1,4.07-1.75,4.65,4.65,0,0,1,3.75,1.56,6.52,6.52,0,0,1,1.33,4.34Zm-2.59-1.9a3.46,3.46,0,0,0-.68-2.24,2.3,2.3,0,0,0-1.85-.81,2.6,2.6,0,0,0-2,.84,3.91,3.91,0,0,0-1,2.21Zm15.9,7.09h-2.69v-2h0a4.64,4.64,0,0,1-6.35,1.65,4.69,4.69,0,0,1-1.14-.94,6.67,6.67,0,0,1-1.31-4.33,7.19,7.19,0,0,1,1.45-4.71,4.75,4.75,0,0,1,3.87-1.77,3.73,3.73,0,0,1,3.48,1.92h0v-7.32h2.68Zm-2.69-5.43v-1.57a3.08,3.08,0,0,0-.82-2.14,2.76,2.76,0,0,0-2.09-.88,2.83,2.83,0,0,0-2.38,1.12,5,5,0,0,0-.85,3.11,4.48,4.48,0,0,0,.82,2.86,2.7,2.7,0,0,0,2.23,1,2.77,2.77,0,0,0,2.23-1A3.86,3.86,0,0,0,652.68,699.25Zm-67,31V713.73h5.25a6.14,6.14,0,0,1,3.81,1,3.26,3.26,0,0,1,1.41,2.74,3.93,3.93,0,0,1-.8,2.45,4.4,4.4,0,0,1-2.21,1.48h0a4.3,4.3,0,0,1,2.73,1.27,3.86,3.86,0,0,1,1,2.78,4.19,4.19,0,0,1-1.68,3.44,6.64,6.64,0,0,1-4.23,1.32Zm2.73-14.37v4.8h1.79a3.47,3.47,0,0,0,2.24-.67,2.39,2.39,0,0,0,.82-1.92q0-2.13-2.85-2.13Zm0,6.93v5.24h2.35a3.53,3.53,0,0,0,2.37-.7,2.49,2.49,0,0,0,.84-2c0-1.72-1.19-2.57-3.57-2.57ZM614,730.25h-3l-7.91-12.18a5.49,5.49,0,0,1-.5-1h-.07a17.17,17.17,0,0,1,.09,2.27v10.87H600V713.73h3.21l7.65,11.89c.22.32.43.66.62,1h0a14,14,0,0,1-.12-2.24V713.73H614Zm4.11,0V713.73h5.26a6.11,6.11,0,0,1,3.8,1,3.26,3.26,0,0,1,1.41,2.74,3.93,3.93,0,0,1-.79,2.45,4.4,4.4,0,0,1-2.21,1.48h0a4.3,4.3,0,0,1,2.73,1.27,3.86,3.86,0,0,1,1,2.78,4.17,4.17,0,0,1-1.67,3.48,6.64,6.64,0,0,1-4.23,1.32Zm2.74-14.37v4.8h1.79a3.41,3.41,0,0,0,2.24-.67,2.36,2.36,0,0,0,.82-1.92c0-1.42-.94-2.13-2.84-2.13Zm0,6.93v5.24h2.35a3.53,3.53,0,0,0,2.37-.7,2.49,2.49,0,0,0,.84-2c0-1.72-1.19-2.57-3.57-2.57Z" transform="translate(0 -0.03)"/><path class="cls-8" d="M1012.75,512.84a4.88,4.88,0,0,1-.35,1.89,4.18,4.18,0,0,1-2.39,2.45,4.61,4.61,0,0,1-1.8.34,4.35,4.35,0,0,1-1.91-.41,4.21,4.21,0,0,1-1.51-1.2,6.06,6.06,0,0,1-1-2,9.93,9.93,0,0,1-.35-2.77,11.82,11.82,0,0,1,.46-3.4,7.46,7.46,0,0,1,1.26-2.48,5.3,5.3,0,0,1,4.21-2,8.36,8.36,0,0,1,1.41.1,3.94,3.94,0,0,1,1,.29v2a6.76,6.76,0,0,0-1-.42,4.29,4.29,0,0,0-1.28-.17,3.36,3.36,0,0,0-1.49.32,3.26,3.26,0,0,0-1.18,1,4.49,4.49,0,0,0-.78,1.56,7.3,7.3,0,0,0-.29,2.13h0a3.25,3.25,0,0,1,1.2-1.07,3.66,3.66,0,0,1,1.78-.4,4.14,4.14,0,0,1,1.63.3,3.13,3.13,0,0,1,1.24.85,3.64,3.64,0,0,1,.8,1.35A5.18,5.18,0,0,1,1012.75,512.84Zm-2.25.18a4,4,0,0,0-.15-1.09,2.22,2.22,0,0,0-.42-.84,1.83,1.83,0,0,0-.72-.54,2.29,2.29,0,0,0-1-.2,2.46,2.46,0,0,0-1,.21,2.24,2.24,0,0,0-1.18,1.31,2.73,2.73,0,0,0-.15.89,3.77,3.77,0,0,0,.14,1,2.92,2.92,0,0,0,.43.93,2.47,2.47,0,0,0,.73.71,2,2,0,0,0,1.07.27,2.29,2.29,0,0,0,1-.2,2,2,0,0,0,.71-.56,2.39,2.39,0,0,0,.43-.84,3.72,3.72,0,0,0,.11-1.05Zm8.34,4.49a3.88,3.88,0,0,1-3.38-1.76,9.09,9.09,0,0,1-1.2-5.1,10,10,0,0,1,1.26-5.54,4.12,4.12,0,0,1,3.64-1.87c3,0,4.56,2.35,4.56,7.07a9.33,9.33,0,0,1-1.29,5.36,4.16,4.16,0,0,1-3.59,1.84Zm.22-12.49q-2.52,0-2.52,5.53c0,3.46.83,5.19,2.47,5.19s2.42-1.76,2.42-5.27-.75-5.45-2.37-5.45Zm9.42,5.38a3.06,3.06,0,0,1-2.34-.93,3.62,3.62,0,0,1-.86-2.52,3.77,3.77,0,0,1,.91-2.69,3.24,3.24,0,0,1,2.49-1,3,3,0,0,1,2.34.92,3.65,3.65,0,0,1,.84,2.57,3.71,3.71,0,0,1-.94,2.66,3.19,3.19,0,0,1-2.44,1Zm.13-5.79a1.5,1.5,0,0,0-1.25.61,2.71,2.71,0,0,0-.45,1.66,2.6,2.6,0,0,0,.44,1.62,1.58,1.58,0,0,0,2.22.24,1.36,1.36,0,0,0,.24-.24,2.82,2.82,0,0,0,.44-1.67,2.67,2.67,0,0,0-.44-1.62,1.44,1.44,0,0,0-1.2-.6Zm9.22-1.14-8.86,13.9h-1.38l8.85-13.9Zm-1.25,14a3,3,0,0,1-2.32-.93,3.58,3.58,0,0,1-.87-2.52,3.81,3.81,0,0,1,.91-2.7,3.24,3.24,0,0,1,2.49-1,3,3,0,0,1,2.34.92,3.65,3.65,0,0,1,.84,2.57,3.77,3.77,0,0,1-.94,2.66,3.19,3.19,0,0,1-2.45,1Zm.1-5.79a1.47,1.47,0,0,0-1.25.61A2.72,2.72,0,0,0,1035,514a2.51,2.51,0,0,0,.45,1.62,1.48,1.48,0,0,0,1.23.58,1.44,1.44,0,0,0,1.22-.6,2.74,2.74,0,0,0,.45-1.67,2.51,2.51,0,0,0-.45-1.62A1.39,1.39,0,0,0,1036.68,511.68Z" transform="translate(0 -0.03)"/><path class="cls-8" d="M1003.68,531.08v-9.66h3.07a3.56,3.56,0,0,1,2.22.61,1.91,1.91,0,0,1,.82,1.6,2.31,2.31,0,0,1-.46,1.43,2.53,2.53,0,0,1-1.29.86h0a2.47,2.47,0,0,1,1.59.74,2.21,2.21,0,0,1,.6,1.62,2.4,2.4,0,0,1-1,2,3.84,3.84,0,0,1-2.46.77Zm1.6-8.38v2.75h1a2,2,0,0,0,1.31-.39,1.37,1.37,0,0,0,.48-1.12c0-.82-.56-1.24-1.66-1.24Zm0,4v3.06h1.4a2,2,0,0,0,1.38-.41,1.41,1.41,0,0,0,.5-1.14c0-1-.7-1.51-2.09-1.51Zm12.6,4.34h-1.57V530h0a2.24,2.24,0,0,1-2.11,1.26c-1.63,0-2.45-1-2.45-2.94v-4.09h1.56v4c0,1.24.48,1.85,1.44,1.85a1.39,1.39,0,0,0,1.14-.51,2,2,0,0,0,.45-1.34v-4h1.57Zm6-5.41a1.29,1.29,0,0,0-.81-.22,1.38,1.38,0,0,0-1.16.62,2.79,2.79,0,0,0-.47,1.71V531h-1.56v-6.9h1.56v1.42h0a2.43,2.43,0,0,1,.7-1.13,1.6,1.6,0,0,1,1.07-.41,1.19,1.19,0,0,1,.64.13Zm7.26,5.41h-1.57v-3.89c0-1.29-.45-1.93-1.36-1.93a1.52,1.52,0,0,0-1.19.54,2,2,0,0,0-.46,1.35V531H1025v-6.9h1.57v1.15h0a2.43,2.43,0,0,1,2.23-1.31,2.05,2.05,0,0,1,1.72.73,3.24,3.24,0,0,1,.6,2.11Zm7.76-3h-4.71a2,2,0,0,0,.59,1.47,2.2,2.2,0,0,0,1.55.52,3.42,3.42,0,0,0,2-.66v1.31a4.66,4.66,0,0,1-2.5.6,3.14,3.14,0,0,1-2.39-.94,3.79,3.79,0,0,1-.76-2.66,3.63,3.63,0,0,1,1-2.62,3.12,3.12,0,0,1,2.37-1,2.72,2.72,0,0,1,2.19.91,3.78,3.78,0,0,1,.78,2.53Zm-1.51-1.11a2.06,2.06,0,0,0-.4-1.31,1.36,1.36,0,0,0-1.08-.47,1.57,1.57,0,0,0-1.15.49,2.3,2.3,0,0,0-.57,1.29Zm9.27,4.13h-1.56v-1.17h0a2.5,2.5,0,0,1-2.32,1.34,2.54,2.54,0,0,1-2-.93,3.89,3.89,0,0,1-.76-2.53,4.14,4.14,0,0,1,.85-2.74,2.74,2.74,0,0,1,2.25-1,2.15,2.15,0,0,1,2,1.12h0v-4.28h1.56Zm-1.54-3.15V527a1.73,1.73,0,0,0-.48-1.24,1.57,1.57,0,0,0-1.22-.51,1.66,1.66,0,0,0-1.38.65,3,3,0,0,0-.5,1.81,2.7,2.7,0,0,0,.48,1.67,1.6,1.6,0,0,0,1.3.6,1.62,1.62,0,0,0,1.3-.58,2.26,2.26,0,0,0,.54-1.47Z" transform="translate(0 -0.03)"/><rect class="cls-29" x="968.96" y="506.4" width="21.7" height="21.7"/><path class="cls-8" d="M1012.4,548.83v8.92h2v1.86h-2v3h-2.17v-3H1004v-1.88c.56-.63,1.14-1.32,1.73-2.06s1.17-1.5,1.72-2.27,1.06-1.56,1.53-2.33a20.78,20.78,0,0,0,1.18-2.24Zm-2.17,8.92V552a31.52,31.52,0,0,1-2.08,3.3c-.68.93-1.32,1.77-1.92,2.5Zm9.94,5.12a3.85,3.85,0,0,1-3.37-1.76,9,9,0,0,1-1.21-5.09,10,10,0,0,1,1.26-5.54,4.15,4.15,0,0,1,3.65-1.88c3,0,4.54,2.36,4.55,7.08a9.33,9.33,0,0,1-1.29,5.36A4.15,4.15,0,0,1,1020.17,562.87Zm.22-12.49c-1.68,0-2.51,1.85-2.51,5.54q0,5.18,2.46,5.18t2.43-5.27Q1022.77,550.39,1020.39,550.38Zm9.42,5.39a3,3,0,0,1-2.33-.94,3.59,3.59,0,0,1-.87-2.51,3.85,3.85,0,0,1,.92-2.7,3.22,3.22,0,0,1,2.48-1,3,3,0,0,1,2.34.91,4.31,4.31,0,0,1-.09,5.23A3.23,3.23,0,0,1,1029.81,555.77Zm.13-5.79a1.47,1.47,0,0,0-1.25.61,2.71,2.71,0,0,0-.45,1.66,2.67,2.67,0,0,0,.44,1.62,1.5,1.5,0,0,0,1.23.58,1.45,1.45,0,0,0,1.23-.6,2.85,2.85,0,0,0,.44-1.68,2.62,2.62,0,0,0-.44-1.61,1.42,1.42,0,0,0-1.2-.58Zm9.22-1.15-8.86,13.91h-1.38l8.85-13.91Zm-1.24,14a3,3,0,0,1-2.33-.93,3.59,3.59,0,0,1-.87-2.51,3.74,3.74,0,0,1,.92-2.7,3.22,3.22,0,0,1,2.48-1,3,3,0,0,1,2.34.91,3.65,3.65,0,0,1,.84,2.57,3.71,3.71,0,0,1-.94,2.66,3.18,3.18,0,0,1-2.44,1Zm.13-5.78a1.49,1.49,0,0,0-1.25.6,2.74,2.74,0,0,0-.45,1.67,2.67,2.67,0,0,0,.44,1.62,1.59,1.59,0,0,0,2.46,0,2.85,2.85,0,0,0,.44-1.68,2.67,2.67,0,0,0-.44-1.62,1.43,1.43,0,0,0-1.2-.55Z" transform="translate(0 -0.03)"/><path class="cls-8" d="M1012.22,575.79a7,7,0,0,1-3.37.82,4.63,4.63,0,0,1-3.47-1.33,4.8,4.8,0,0,1-1.33-3.54,4.95,4.95,0,0,1,5.14-5.12,6.77,6.77,0,0,1,2.71.47v1.65a4.67,4.67,0,0,0-2.64-.74,3.4,3.4,0,0,0-2.54,1,3.6,3.6,0,0,0-1,2.64,3.78,3.78,0,0,0,.85,2.62,2.94,2.94,0,0,0,2.3,1,3.83,3.83,0,0,0,1.73-.38v-2.3h-2v-1.35h3.64Zm2.69-7.69a1,1,0,0,1-.66-.25.82.82,0,0,1-.27-.64.83.83,0,0,1,.27-.64.91.91,0,0,1,.66-.25,1,1,0,0,1,.68.25.88.88,0,0,1,0,1.24l0,0A1,1,0,0,1,1014.91,568.1Zm.78,8.35h-1.57v-6.9h1.56Zm8-6.9-2.67,6.9h-1.69l-2.54-6.9h1.7l1.53,4.82a3.69,3.69,0,0,1,.21.93h0a5.54,5.54,0,0,1,.19-.9l1.61-4.85Zm6.8,3.87h-4.7a2,2,0,0,0,.59,1.48,2.24,2.24,0,0,0,1.55.52,3.49,3.49,0,0,0,2-.66V576a4.74,4.74,0,0,1-2.5.59,3.06,3.06,0,0,1-2.39-.94,4.27,4.27,0,0,1,.08-5.27,3.14,3.14,0,0,1,2.38-1,2.75,2.75,0,0,1,2.19.91,3.77,3.77,0,0,1,.77,2.53Zm-1.5-1.1a2,2,0,0,0-.4-1.31,1.33,1.33,0,0,0-1.08-.47,1.52,1.52,0,0,0-1.15.49,2.3,2.3,0,0,0-.57,1.29Zm8.29,4.13h-1.51v-1.08h0a2.28,2.28,0,0,1-2.1,1.24,2.17,2.17,0,0,1-1.59-.55,1.94,1.94,0,0,1-.58-1.46c0-1.31.75-2.07,2.26-2.28l2-.29c0-1-.46-1.48-1.4-1.48a3.31,3.31,0,0,0-2.22.85V570a4.86,4.86,0,0,1,2.52-.65,2.29,2.29,0,0,1,2.61,1.92,2.43,2.43,0,0,1,0,.66Zm-1.51-3.39-1.45.2a2.24,2.24,0,0,0-1,.33,1,1,0,0,0-.34.84.91.91,0,0,0,.31.72,1.23,1.23,0,0,0,.84.27,1.5,1.5,0,0,0,1.18-.49,1.75,1.75,0,0,0,.47-1.27Zm12.71-3.51-2,6.9h-1.64l-1.26-4.68a3.1,3.1,0,0,1-.09-.61h0a3.19,3.19,0,0,1-.12.6l-1.36,4.69h-1.61l-2-6.9H1040l1.26,5a3.81,3.81,0,0,1,.08.59h0a4.21,4.21,0,0,1,.11-.6l1.4-5h1.47l1.24,5a2.9,2.9,0,0,1,.09.59h0a3.83,3.83,0,0,1,.1-.59l1.23-5Zm6.47,6.9h-1.52v-1.08h0a2.27,2.27,0,0,1-2.09,1.24,2.24,2.24,0,0,1-1.6-.55,2,2,0,0,1-.57-1.46q0-2,2.25-2.28l2-.29c0-1-.47-1.48-1.41-1.48a3.31,3.31,0,0,0-2.22.85V570a4.86,4.86,0,0,1,2.52-.65,2.3,2.3,0,0,1,2.62,1.93,2.36,2.36,0,0,1,0,.65Zm-1.51-3.39-1.45.2a2.37,2.37,0,0,0-1,.33,1.1,1.1,0,0,0,0,1.56,1.28,1.28,0,0,0,.84.27,1.5,1.5,0,0,0,1.18-.49,1.8,1.8,0,0,0,.48-1.27Zm9.4-3.51-3.11,8c-.65,1.42-1.56,2.14-2.73,2.14a2.83,2.83,0,0,1-.82-.09v-1.3a2,2,0,0,0,.68.12,1.37,1.37,0,0,0,1.3-.86l.47-1.13-2.75-6.89h1.74l1.64,5c0,.07.06.23.12.5h0a2.51,2.51,0,0,1,.12-.48l1.72-5Zm.62,6.68v-1.45a3.08,3.08,0,0,0,1.93.67c.94,0,1.42-.28,1.42-.83a.58.58,0,0,0-.13-.4,1.18,1.18,0,0,0-.33-.3,2.65,2.65,0,0,0-.48-.23l-.62-.23a7.59,7.59,0,0,1-.77-.35,2.67,2.67,0,0,1-.57-.43,1.47,1.47,0,0,1-.33-.55,1.84,1.84,0,0,1-.12-.7,1.6,1.6,0,0,1,.24-.88,1.93,1.93,0,0,1,.63-.64,3.27,3.27,0,0,1,.9-.39,4.23,4.23,0,0,1,1-.14,4.77,4.77,0,0,1,1.71.29V571a2.9,2.9,0,0,0-1.67-.5,2,2,0,0,0-.54.07,1.16,1.16,0,0,0-.4.16.87.87,0,0,0-.27.27.63.63,0,0,0-.09.33.78.78,0,0,0,.09.37.93.93,0,0,0,.28.28,2.58,2.58,0,0,0,.44.22l.61.21a8.08,8.08,0,0,1,.79.37,2.17,2.17,0,0,1,.61.43,1.75,1.75,0,0,1,.38.55,1.71,1.71,0,0,1,.14.74,1.68,1.68,0,0,1-.25.92,2.09,2.09,0,0,1-.64.65,2.93,2.93,0,0,1-.94.37,4.61,4.61,0,0,1-1.11.13,4.67,4.67,0,0,1-1.92-.38Z" transform="translate(0 -0.03)"/><rect class="cls-30" x="968.96" y="551.76" width="21.7" height="21.7"/><path class="cls-8" d="M395.19,753.46v-2.1a4.77,4.77,0,0,0,3,1.07,3.52,3.52,0,0,0,2.2-.63,2,2,0,0,0,.82-1.69c0-1.57-1.19-2.35-3.59-2.35h-1.07V746h1c2.13,0,3.19-.73,3.19-2.21s-.83-2-2.48-2a4,4,0,0,0-2.61,1v-2A6.72,6.72,0,0,1,399,740a4.42,4.42,0,0,1,2.95.92,3,3,0,0,1,1.1,2.37,3.36,3.36,0,0,1-2.77,3.5h0a3.66,3.66,0,0,1,2.36,1,3.12,3.12,0,0,1,.87,2.25,3.71,3.71,0,0,1-1.4,3,5.66,5.66,0,0,1-3.68,1.14A6.28,6.28,0,0,1,395.19,753.46Zm15.1.74a3.85,3.85,0,0,1-3.37-1.76,9,9,0,0,1-1.21-5.1A10,10,0,0,1,407,741.8a4.15,4.15,0,0,1,3.64-1.87c3,0,4.56,2.35,4.56,7.07a9.33,9.33,0,0,1-1.29,5.36,4.16,4.16,0,0,1-3.59,1.84Zm.22-12.49c-1.68,0-2.51,1.84-2.51,5.54,0,3.45.82,5.17,2.46,5.18s2.45-1.75,2.43-5.27-.8-5.48-2.38-5.48Zm9.42,5.38a3,3,0,0,1-2.33-.93,3.58,3.58,0,0,1-.87-2.52,3.77,3.77,0,0,1,.91-2.69,3.24,3.24,0,0,1,2.49-1,3,3,0,0,1,2.34.91,3.65,3.65,0,0,1,.84,2.57,3.71,3.71,0,0,1-.94,2.66,3.2,3.2,0,0,1-2.44,1Zm.13-5.79a1.53,1.53,0,0,0-1.25.61,2.78,2.78,0,0,0-.45,1.66,2.67,2.67,0,0,0,.44,1.62,1.58,1.58,0,0,0,2.22.24,1.36,1.36,0,0,0,.24-.24,2.82,2.82,0,0,0,.44-1.67,2.67,2.67,0,0,0-.44-1.62,1.44,1.44,0,0,0-1.2-.6Zm9.22-1.14-8.86,13.9H419l8.85-13.9Zm-1.24,14a3,3,0,0,1-2.33-.93,3.58,3.58,0,0,1-.87-2.52,3.81,3.81,0,0,1,.91-2.7,3.24,3.24,0,0,1,2.49-1,3,3,0,0,1,2.34.92,3.65,3.65,0,0,1,.84,2.57,3.71,3.71,0,0,1-.94,2.66,3.18,3.18,0,0,1-2.44,1Zm.13-5.79a1.47,1.47,0,0,0-1.25.61,2.78,2.78,0,0,0-.45,1.66,2.6,2.6,0,0,0,.44,1.62,1.58,1.58,0,0,0,2.22.24,1.36,1.36,0,0,0,.24-.24,2.82,2.82,0,0,0,.44-1.67,2.6,2.6,0,0,0-.44-1.62,1.42,1.42,0,0,0-1.2-.58Z" transform="translate(0 -0.03)"/><path class="cls-8" d="M405.58,767.77H404v-6.25a14.77,14.77,0,0,1,.09-1.88h0a5.88,5.88,0,0,1-.26.91l-2.89,7.22h-1.1l-2.89-7.17a7,7,0,0,1-.26-1h0c0,.38.06,1,.06,1.89v6.24h-1.49v-9.66h2.26l2.55,6.44a10.93,10.93,0,0,1,.37,1.1h0c.16-.51.3-.89.4-1.13l2.59-6.41h2.18Zm7.51,0h-1.52v-1.09h0a2.28,2.28,0,0,1-2.09,1.24,2.23,2.23,0,0,1-1.6-.56,1.93,1.93,0,0,1-.57-1.46q0-1.95,2.25-2.28l2-.29c0-1-.47-1.48-1.41-1.48a3.31,3.31,0,0,0-2.22.85v-1.36a4.75,4.75,0,0,1,2.52-.65,2.29,2.29,0,0,1,2.61,1.94,1.9,1.9,0,0,1,0,.63Zm-1.51-3.39-1.45.2a2.21,2.21,0,0,0-1,.34,1.09,1.09,0,0,0,0,1.54h0a1.18,1.18,0,0,0,.84.28,1.54,1.54,0,0,0,1.18-.5,1.8,1.8,0,0,0,.48-1.27Zm7.43-2a1.32,1.32,0,0,0-.82-.22,1.38,1.38,0,0,0-1.16.62,2.89,2.89,0,0,0-.46,1.71v3.3H415v-6.9h1.57v1.42h0a2.43,2.43,0,0,1,.7-1.13,1.64,1.64,0,0,1,1.07-.41,1.33,1.33,0,0,1,.65.13Zm7.36,5.41h-2l-2.69-3.33h0v3.31h-1.57V757.55h1.57V764h0l2.53-3.16h1.89l-2.86,3.33Zm6.6-3h-4.71a2,2,0,0,0,.59,1.47,2.2,2.2,0,0,0,1.55.52,3.42,3.42,0,0,0,2-.66v1.26a4.66,4.66,0,0,1-2.5.6,3.14,3.14,0,0,1-2.39-.94,3.8,3.8,0,0,1-.86-2.65,3.67,3.67,0,0,1,1-2.62,3.12,3.12,0,0,1,2.37-1,2.72,2.72,0,0,1,2.19.91,3.78,3.78,0,0,1,.78,2.53Zm-1.51-1.11a2,2,0,0,0-.4-1.31,1.36,1.36,0,0,0-1.08-.47,1.53,1.53,0,0,0-1.14.49,2.22,2.22,0,0,0-.58,1.29Zm6.64,4.06a2.64,2.64,0,0,1-1.21.23c-1.34,0-2-.64-2-1.93v-3.9h-1.15v-1.23h1.15v-1.6l1.57-.44v2h1.65v1.23h-1.65v3.45a1.34,1.34,0,0,0,.22.87.88.88,0,0,0,.74.27,1.14,1.14,0,0,0,.69-.23Zm2.13-8.28a1,1,0,0,1-.66-.25.92.92,0,0,1,0-1.27,1,1,0,0,1,1.34,0,.86.86,0,0,1,.28.64.82.82,0,0,1-.28.62.93.93,0,0,1-.68.22Zm.78,8.35h-1.56v-6.9H441Zm8.2,0h-1.53v-3.93c0-1.29-.45-1.93-1.36-1.93a1.48,1.48,0,0,0-1.18.54,2,2,0,0,0-.47,1.35v3.93H443.1v-6.9h1.58V762h0a2.44,2.44,0,0,1,2.24-1.31,2.09,2.09,0,0,1,1.72.73,3.31,3.31,0,0,1,.59,2.11Zm8.2-.55c0,2.54-1.28,3.8-3.83,3.8a5.72,5.72,0,0,1-2.35-.45v-1.43a4.43,4.43,0,0,0,2.15.65,2.17,2.17,0,0,0,2.46-1.82,2.41,2.41,0,0,0,0-.6v-.76h0a2.69,2.69,0,0,1-4.36.41,3.72,3.72,0,0,1-.77-2.47,4.33,4.33,0,0,1,.83-2.8,2.73,2.73,0,0,1,2.28-1,2.17,2.17,0,0,1,2,1.12h0v-1h1.57Zm-1.55-2.61v-1a1.78,1.78,0,0,0-.49-1.24,1.61,1.61,0,0,0-1.2-.51,1.69,1.69,0,0,0-1.4.66,3,3,0,0,0-.49,1.83,2.57,2.57,0,0,0,.48,1.63,1.53,1.53,0,0,0,1.28.61,1.69,1.69,0,0,0,1.31-.58,2.23,2.23,0,0,0,.51-1.47Z" transform="translate(0 -0.03)"/><rect class="cls-31" x="361.45" y="743.09" width="21.7" height="21.7"/><path class="cls-8" d="M399.92,785.21v14.12h-2.24V788a7.35,7.35,0,0,1-1.31.74,9.89,9.89,0,0,1-1.59.53v-1.91c.37-.12.73-.25,1.08-.38a7.62,7.62,0,0,0,1-.46c.31-.17.68-.35,1-.55s.7-.44,1.07-.71Zm7.34,14.35a3.85,3.85,0,0,1-3.37-1.76,9,9,0,0,1-1.21-5.12,10,10,0,0,1,1.26-5.54,4.12,4.12,0,0,1,3.64-1.88q4.56,0,4.56,7.08a9.33,9.33,0,0,1-1.29,5.36A4.15,4.15,0,0,1,407.26,799.56Zm.22-12.49q-2.5,0-2.51,5.54,0,5.17,2.47,5.18c1.65,0,2.45-1.76,2.42-5.27S409.07,787.08,407.48,787.07Zm9.42,5.39a3,3,0,0,1-2.33-.94,3.64,3.64,0,0,1-.86-2.51,3.81,3.81,0,0,1,.91-2.7,3.24,3.24,0,0,1,2.49-1,3,3,0,0,1,2.34.91,4.34,4.34,0,0,1-.1,5.23A3.16,3.16,0,0,1,416.9,792.46Zm.14-5.79a1.47,1.47,0,0,0-1.25.61,2.65,2.65,0,0,0-.46,1.66,2.61,2.61,0,0,0,.45,1.62,1.48,1.48,0,0,0,1.23.58,1.44,1.44,0,0,0,1.22-.6,2.72,2.72,0,0,0,.45-1.68,2.5,2.5,0,0,0-.45-1.61,1.39,1.39,0,0,0-1.19-.57Zm9.22-1.15-8.87,13.91H416l8.85-13.91Zm-1.25,14a3,3,0,0,1-2.33-.93,3.53,3.53,0,0,1-.86-2.51,3.81,3.81,0,0,1,.91-2.7,3.22,3.22,0,0,1,2.48-1,3,3,0,0,1,2.35.91,3.69,3.69,0,0,1,.83,2.57,3.76,3.76,0,0,1-.93,2.66,3.19,3.19,0,0,1-2.45,1Zm.14-5.78a1.52,1.52,0,0,0-1.26.6,2.74,2.74,0,0,0-.45,1.67,2.67,2.67,0,0,0,.44,1.62,1.5,1.5,0,0,0,1.24.57,1.43,1.43,0,0,0,1.22-.59,2.78,2.78,0,0,0,.44-1.68,2.6,2.6,0,0,0-.44-1.62,1.41,1.41,0,0,0-1.19-.55Z" transform="translate(0 -0.03)"/><path class="cls-8" d="M395.19,813.14v-9.67H398q5.34,0,5.34,4.71a4.62,4.62,0,0,1-1.48,3.6,5.67,5.67,0,0,1-4,1.36Zm1.6-8.31v7h1.28a3.57,3.57,0,0,0,2.63-.93,3.52,3.52,0,0,0,1-2.63c0-2.26-1.18-3.39-3.52-3.39Zm14,5.28h-4.7a2,2,0,0,0,.59,1.48,2.24,2.24,0,0,0,1.55.52,3.35,3.35,0,0,0,2-.66v1.23a4.7,4.7,0,0,1-2.49.59,3.06,3.06,0,0,1-2.39-.94,4.27,4.27,0,0,1,.08-5.27,3.14,3.14,0,0,1,2.38-1A2.76,2.76,0,0,1,410,807a3.77,3.77,0,0,1,.77,2.53Zm-1.51-1.1a2,2,0,0,0-.39-1.31,1.33,1.33,0,0,0-1.08-.47,1.55,1.55,0,0,0-1.13.45,2.3,2.3,0,0,0-.57,1.29Zm9-2.77-2.67,6.9h-1.69l-2.54-6.9H413l1.53,4.82a4.83,4.83,0,0,1,.21.93h0a4.5,4.5,0,0,1,.19-.9l1.61-4.85Zm6.8,3.87h-4.7a2,2,0,0,0,.58,1.48,2.24,2.24,0,0,0,1.55.52,3.35,3.35,0,0,0,2-.66v1.23a4.7,4.7,0,0,1-2.49.59,3.06,3.06,0,0,1-2.39-.94,4.27,4.27,0,0,1,.08-5.27,3.14,3.14,0,0,1,2.38-1,2.76,2.76,0,0,1,2.19.91,3.82,3.82,0,0,1,.77,2.53Zm-1.51-1.1a1.93,1.93,0,0,0-.4-1.31,1.33,1.33,0,0,0-1.08-.47,1.5,1.5,0,0,0-1.14.49,2.3,2.3,0,0,0-.57,1.29Zm4.57,4.13h-1.57V802.92h1.57Zm5.11.16a3.44,3.44,0,0,1-2.56-1,3.53,3.53,0,0,1-.95-2.57,3.41,3.41,0,0,1,3.1-3.7,3.62,3.62,0,0,1,.57,0,3.32,3.32,0,0,1,2.53,1,4.17,4.17,0,0,1-.08,5.28,3.48,3.48,0,0,1-2.63,1Zm.07-6a1.82,1.82,0,0,0-1.45.64,2.74,2.74,0,0,0-.53,1.77,2.57,2.57,0,0,0,.54,1.71,1.83,1.83,0,0,0,1.44.62,1.72,1.72,0,0,0,1.42-.61,3.33,3.33,0,0,0,0-3.51,1.72,1.72,0,0,0-1.44-.6Zm6.71,4.8h0v4.2h-1.56V806.24H440v1.21h0a2.57,2.57,0,0,1,2.35-1.38,2.45,2.45,0,0,1,2,.93,3.87,3.87,0,0,1,.74,2.48,4.27,4.27,0,0,1-.83,2.76,2.76,2.76,0,0,1-2.26,1,2.24,2.24,0,0,1-2-1.12Zm0-2.72v.85a1.85,1.85,0,0,0,.48,1.29,1.71,1.71,0,0,0,2.59-.15,3.19,3.19,0,0,0,.49-1.9,2.44,2.44,0,0,0-.46-1.59,1.51,1.51,0,0,0-1.25-.58,1.7,1.7,0,0,0-1.35.59,2.21,2.21,0,0,0-.56,1.51Zm17.09,3.74H455.5v-3.74a3.06,3.06,0,0,0-.31-1.57,1.1,1.1,0,0,0-1-.49,1.23,1.23,0,0,0-1,.61,2.48,2.48,0,0,0-.43,1.47v3.74h-1.57v-3.89c0-1.29-.45-1.93-1.36-1.93a1.24,1.24,0,0,0-1,.58,2.65,2.65,0,0,0-.4,1.5v3.74h-1.75v-6.9h1.56v1.09h0a2.38,2.38,0,0,1,2.18-1.26,2.08,2.08,0,0,1,2,1.4,2.46,2.46,0,0,1,2.29-1.43q2.28,0,2.28,2.82Zm7.75-3h-4.7a2,2,0,0,0,.58,1.48,2.24,2.24,0,0,0,1.55.52,3.35,3.35,0,0,0,2-.66v1.22a4.7,4.7,0,0,1-2.49.59,3.06,3.06,0,0,1-2.39-.94,4.27,4.27,0,0,1,.08-5.27,3.12,3.12,0,0,1,2.37-1,2.78,2.78,0,0,1,2.2.91,3.82,3.82,0,0,1,.77,2.53Zm-1.51-1.1a2.06,2.06,0,0,0-.4-1.31,1.29,1.29,0,0,0-1.07-.47,1.57,1.57,0,0,0-1.16.44,2.3,2.3,0,0,0-.57,1.29Zm9.15,4.13H470.9v-3.89c0-1.29-.46-1.93-1.37-1.93a1.49,1.49,0,0,0-1.18.53,2,2,0,0,0-.47,1.35v3.94h-1.57v-6.9h1.57v1.14h0a2.46,2.46,0,0,1,2.24-1.31,2.09,2.09,0,0,1,1.72.74,3.31,3.31,0,0,1,.59,2.11Zm5.55-.08a2.49,2.49,0,0,1-1.2.24c-1.34,0-2-.65-2-1.93v-3.91h-1.15v-1.22h1.15v-1.57l1.56-.45v2H478v1.22h-1.65v3.45a1.37,1.37,0,0,0,.22.88.91.91,0,0,0,.75.26,1,1,0,0,0,.68-.23Z" transform="translate(0 -0.03)"/><rect class="cls-32" x="361.45" y="788.45" width="21.7" height="21.7"/><path class="cls-8" d="M404.26,706.13a4.93,4.93,0,0,1-.35,1.9,4.21,4.21,0,0,1-2.39,2.45,4.79,4.79,0,0,1-1.8.33,4.49,4.49,0,0,1-1.91-.4,4.21,4.21,0,0,1-1.51-1.2,5.88,5.88,0,0,1-1-2,10.29,10.29,0,0,1-.35-2.76,11.48,11.48,0,0,1,.46-3.4,7.32,7.32,0,0,1,1.26-2.49,5.23,5.23,0,0,1,4.21-2,8.37,8.37,0,0,1,1.41.11,3.48,3.48,0,0,1,1,.29v2a6.76,6.76,0,0,0-1.05-.42,4,4,0,0,0-1.28-.18,3.33,3.33,0,0,0-2.68,1.29,4.84,4.84,0,0,0-.77,1.56,7.37,7.37,0,0,0-.29,2.14h0a3.37,3.37,0,0,1,1.2-1.08,3.77,3.77,0,0,1,1.78-.39,4.14,4.14,0,0,1,1.63.3,3.29,3.29,0,0,1,1.24.84,3.78,3.78,0,0,1,.8,1.35A5.53,5.53,0,0,1,404.26,706.13Zm-2.26.19a3.63,3.63,0,0,0-.14-1.09,2.22,2.22,0,0,0-.42-.84,1.85,1.85,0,0,0-.72-.55,2.31,2.31,0,0,0-1-.19,2.46,2.46,0,0,0-1,.21,2.24,2.24,0,0,0-1.18,1.31,2.73,2.73,0,0,0-.15.89,4.23,4.23,0,0,0,.14,1,2.92,2.92,0,0,0,.43.93,2.47,2.47,0,0,0,.73.71,1.93,1.93,0,0,0,1.07.26,2,2,0,0,0,1-.2,1.94,1.94,0,0,0,.71-.56,2.44,2.44,0,0,0,.43-.83,3.71,3.71,0,0,0,.1-1Zm8.34,4.48A3.85,3.85,0,0,1,407,709a9,9,0,0,1-1.2-5.09,10,10,0,0,1,1.26-5.54,4.13,4.13,0,0,1,3.64-1.88q4.56,0,4.56,7.08a9.33,9.33,0,0,1-1.29,5.36,4.16,4.16,0,0,1-3.6,1.83Zm.23-12.49q-2.52,0-2.52,5.54c0,3.46.82,5.18,2.47,5.18s2.42-1.75,2.42-5.26-.79-5.46-2.37-5.46ZM420,703.7a3,3,0,0,1-2.34-.94,3.59,3.59,0,0,1-.86-2.51,3.81,3.81,0,0,1,.91-2.7,3.24,3.24,0,0,1,2.49-1,3,3,0,0,1,2.34.92,3.65,3.65,0,0,1,.84,2.57,3.77,3.77,0,0,1-.94,2.66,3.2,3.2,0,0,1-2.44,1Zm.13-5.79a1.47,1.47,0,0,0-1.25.61,2.78,2.78,0,0,0-.45,1.66,2.6,2.6,0,0,0,.44,1.62,1.48,1.48,0,0,0,1.23.58,1.44,1.44,0,0,0,1.22-.6,2.72,2.72,0,0,0,.45-1.68,2.5,2.5,0,0,0-.45-1.61,1.39,1.39,0,0,0-1.19-.58Zm9.22-1.15-8.86,13.92H419.1L428,696.77Zm-1.25,14a3,3,0,0,1-2.33-.93,3.64,3.64,0,0,1-.86-2.51,3.81,3.81,0,0,1,.91-2.7,3.24,3.24,0,0,1,2.49-1,3,3,0,0,1,2.34.91,4.34,4.34,0,0,1-.1,5.23,3.19,3.19,0,0,1-2.45,1Zm.14-5.78a1.49,1.49,0,0,0-1.25.6,2.75,2.75,0,0,0-.46,1.67,2.61,2.61,0,0,0,.45,1.62,1.48,1.48,0,0,0,1.23.58,1.44,1.44,0,0,0,1.22-.6,2.72,2.72,0,0,0,.45-1.68,2.5,2.5,0,0,0-.45-1.61,1.41,1.41,0,0,0-1.19-.56Z" transform="translate(0 -0.03)"/><path class="cls-8" d="M401.94,724a5.93,5.93,0,0,1-2.72.56,4.44,4.44,0,0,1-3.37-1.32,4.83,4.83,0,0,1-1.27-3.49A5.07,5.07,0,0,1,396,716a4.92,4.92,0,0,1,3.61-1.43,5.78,5.78,0,0,1,2.33.4v1.59a4.1,4.1,0,0,0-2.16-.58,3.42,3.42,0,0,0-2.55,1,3.73,3.73,0,0,0-1,2.69,3.52,3.52,0,0,0,.91,2.55,3.16,3.16,0,0,0,2.39.94,4.25,4.25,0,0,0,2.38-.65Zm7.79.4h-1.57v-3.77c0-1.37-.45-2-1.36-2a1.44,1.44,0,0,0-1.16.59,2.36,2.36,0,0,0-.48,1.52v3.71h-1.57V714.16h1.57v4.46h0a2.48,2.48,0,0,1,2.24-1.3c1.53,0,2.3.93,2.3,2.81Zm7.2,0h-1.52V723.3h0a2.3,2.3,0,0,1-2.1,1.24,2.2,2.2,0,0,1-1.6-.55,2,2,0,0,1-.57-1.46q0-2,2.25-2.28l2.05-.29c0-1-.47-1.48-1.4-1.48a3.34,3.34,0,0,0-2.23.85V718a4.85,4.85,0,0,1,2.52-.64,2.29,2.29,0,0,1,2.61,1.91,2.09,2.09,0,0,1,0,.66ZM415.42,721l-1.45.2a2.37,2.37,0,0,0-1,.33,1.1,1.1,0,0,0,0,1.56,1.3,1.3,0,0,0,.85.28,1.54,1.54,0,0,0,1.18-.5,1.81,1.81,0,0,0,.47-1.27Zm7.43-2a1.32,1.32,0,0,0-.82-.22,1.38,1.38,0,0,0-1.16.62,2.89,2.89,0,0,0-.46,1.71v3.3h-1.57v-6.9h1.57v1.42h0a2.31,2.31,0,0,1,.7-1.13,1.55,1.55,0,0,1,1.06-.41,1.45,1.45,0,0,1,.65.12Zm1.89-2.94a1,1,0,0,1-.66-.25.82.82,0,0,1-.27-.64.83.83,0,0,1,.27-.64,1,1,0,0,1,1.34,0,.88.88,0,0,1,0,1.27,1,1,0,0,1-.68.24Zm.78,8.35H424v-6.9h1.57Zm5.69-.07a2.64,2.64,0,0,1-1.21.23c-1.34,0-2-.65-2-1.93v-4h-1.15v-1.2H428v-1.6l1.57-.45v2h1.65v1.25h-1.65v3.46a1.34,1.34,0,0,0,.22.87.88.88,0,0,0,.74.27,1.08,1.08,0,0,0,.69-.23Zm7.33-6.83-3.12,8c-.65,1.43-1.55,2.14-2.72,2.14a2.83,2.83,0,0,1-.82-.09v-1.3a1.93,1.93,0,0,0,.67.12,1.39,1.39,0,0,0,1.31-.86l.46-1.13-2.74-6.89h1.73l1.65,5c0,.07.06.23.12.5h0a4,4,0,0,1,.12-.48l1.73-5Z" transform="translate(0 -0.03)"/><rect class="cls-33" x="361.45" y="699.69" width="21.7" height="21.7"/><path class="cls-34" d="M40.94,430.49H25.16V560.68H40.94" transform="translate(0 -0.03)"/><path class="cls-35" d="M295.38,556.68v70.54a10.39,10.39,0,0,1-.09,1.37,10.66,10.66,0,0,1,.09,1.38v1h0V788.25c0,20.28-56.52,36.72-126.23,36.72S42.91,808.53,42.91,788.25V700.51h0V630a10.66,10.66,0,0,1,.09-1.38,10.39,10.39,0,0,1-.09-1.37V556.68C42.91,536.4,99.43,520,169.15,520S295.38,536.4,295.38,556.68Z" transform="translate(0 -0.03)"/><path class="cls-36" d="M295.38,558.68v-63c0-20.28-56.52-36.72-126.23-36.72S42.91,475.46,42.91,495.74v63c0,20.28,56.52,36.72,126.24,36.72S295.38,579,295.38,558.68Z" transform="translate(0 -0.03)"/><path class="cls-8" d="M110.2,684.93H99.35V665.6h10.42v2.72h-7.21v5.48h6.64v2.71h-6.64v5.71h7.64Zm14.63-13.8-4.6,7,4.55,6.82h-3.63l-2.47-4.27c-.15-.26-.33-.6-.54-1h0l-.57,1L115.05,685h-3.57l4.69-6.77-4.45-7h3.64l2.39,4.48.53,1h0l3.08-5.51Zm3.87-2.9a1.89,1.89,0,0,1-1.32-.5,1.65,1.65,0,0,1-.54-1.27,1.69,1.69,0,0,1,.54-1.28,1.84,1.84,0,0,1,1.3-.5,1.93,1.93,0,0,1,1.35.51,1.68,1.68,0,0,1,.55,1.28,1.71,1.71,0,0,1-.55,1.26,1.92,1.92,0,0,1-1.35.5Zm1.55,16.7h-3.13v-13.8h3.13Zm3.24-.43v-2.9a6.25,6.25,0,0,0,3.87,1.34c1.88,0,2.83-.56,2.83-1.67a1.27,1.27,0,0,0-.25-.8,2.19,2.19,0,0,0-.66-.59,4.53,4.53,0,0,0-1-.46L137,679a10.68,10.68,0,0,1-1.53-.72,5.25,5.25,0,0,1-1.14-.84,3.35,3.35,0,0,1-.67-1.1,4,4,0,0,1-.23-1.41,3.26,3.26,0,0,1,.47-1.75,4,4,0,0,1,1.27-1.29,5.71,5.71,0,0,1,1.81-.78,8.15,8.15,0,0,1,2.09-.27,9.72,9.72,0,0,1,3.42.58v2.74a5.75,5.75,0,0,0-3.34-1,4.9,4.9,0,0,0-1.08.12,2.63,2.63,0,0,0-.81.34,1.5,1.5,0,0,0-.53.53,1.21,1.21,0,0,0-.19.66,1.52,1.52,0,0,0,.19.75,1.73,1.73,0,0,0,.56.55,5.66,5.66,0,0,0,.89.44l1.2.41c.59.25,1.12.49,1.59.74a5.47,5.47,0,0,1,1.21.87,3.27,3.27,0,0,1,.77,1.1,3.79,3.79,0,0,1,.27,1.49,3.29,3.29,0,0,1-.49,1.83,4,4,0,0,1-1.29,1.29,5.81,5.81,0,0,1-1.88.76,10.17,10.17,0,0,1-6.14-.5Zm20.06.28a5.27,5.27,0,0,1-2.41.46q-4,0-4-3.85v-7.81h-2.31v-2.45h2.31v-3.2l3.13-.89v4.09h3.3v2.45h-3.3v6.9a2.74,2.74,0,0,0,.44,1.76,1.87,1.87,0,0,0,1.48.52,2.15,2.15,0,0,0,1.38-.46Zm4.27-16.55a1.89,1.89,0,0,1-1.32-.5,1.65,1.65,0,0,1-.54-1.27,1.69,1.69,0,0,1,.54-1.28,1.86,1.86,0,0,1,1.32-.51,1.93,1.93,0,0,1,1.35.51,1.68,1.68,0,0,1,.55,1.28,1.71,1.71,0,0,1-.55,1.26,1.93,1.93,0,0,1-1.35.51Zm1.55,16.7h-3.12v-13.8h3.12Zm16.4,0h-3.09v-7.78q0-3.87-2.74-3.87a3,3,0,0,0-2.36,1.08,4,4,0,0,0-.93,2.7v7.87h-3.14v-13.8h3.14v2.29h0a4.91,4.91,0,0,1,4.47-2.62,4.15,4.15,0,0,1,3.44,1.47,6.55,6.55,0,0,1,1.19,4.22Zm16.4-1.1q0,7.6-7.65,7.6a11.36,11.36,0,0,1-4.71-.9v-2.85a8.78,8.78,0,0,0,4.31,1.29q4.92,0,4.92-4.84v-1.51H189a5.42,5.42,0,0,1-7.43,1.89,5.2,5.2,0,0,1-1.3-1.08,7.45,7.45,0,0,1-1.54-5,8.68,8.68,0,0,1,1.66-5.59,5.47,5.47,0,0,1,4.55-2.08A4.39,4.39,0,0,1,189,673H189v-1.91h3.13Zm-3.11-5.22v-1.79a3.5,3.5,0,0,0-1-2.49,3.12,3.12,0,0,0-2.4-1,3.34,3.34,0,0,0-2.79,1.32,6,6,0,0,0-1,3.67,5.15,5.15,0,0,0,1,3.26,3.11,3.11,0,0,0,2.56,1.21,3.35,3.35,0,0,0,2.63-1.16,4.37,4.37,0,0,0,1-3Zm25.84,6.32H204.19V665.6h3.21v16.62h7.5Zm6-7v7h-3.22V665.6h5.87a7.72,7.72,0,0,1,5.16,1.55,5.43,5.43,0,0,1,1.84,4.37,6,6,0,0,1-1.92,4.61,7.29,7.29,0,0,1-5.18,1.79Zm0-9.68v7.07H223a4.6,4.6,0,0,0,3.15-1,3.47,3.47,0,0,0,1.08-2.7q0-3.4-4-3.41Zm-89.14,43.82h-2.08a13.43,13.43,0,0,1-3.35-9.25,13.88,13.88,0,0,1,3.35-9.4h2.09a14.41,14.41,0,0,0-3.29,9.37,14.14,14.14,0,0,0,3.28,9.27Zm4.28-3.46h-2.46V692.54H136Zm8,.26a5.37,5.37,0,0,1-4-1.52,5.53,5.53,0,0,1-1.49-4,5.69,5.69,0,0,1,1.55-4.26,5.76,5.76,0,0,1,4.22-1.54,5.26,5.26,0,0,1,4,1.49,5.77,5.77,0,0,1,1.42,4.15,5.67,5.67,0,0,1-1.54,4.16,5.48,5.48,0,0,1-4.14,1.51Zm.12-9.4a2.81,2.81,0,0,0-2.28,1,4.24,4.24,0,0,0-.83,2.77,4,4,0,0,0,.84,2.69,2.87,2.87,0,0,0,2.27,1,2.7,2.7,0,0,0,2.23-1,4.25,4.25,0,0,0,.78-2.74,4.35,4.35,0,0,0-.78-2.77,2.67,2.67,0,0,0-2.21-1ZM160,708.11a6,6,0,0,1-3.09.76,5.23,5.23,0,0,1-3.89-1.51,5.35,5.35,0,0,1-1.49-3.92,5.9,5.9,0,0,1,1.59-4.3,5.66,5.66,0,0,1,4.27-1.63A6.23,6.23,0,0,1,160,698v2.29a4,4,0,0,0-2.42-.85,3.33,3.33,0,0,0-2.55,1.06,3.87,3.87,0,0,0-1,2.75,3.61,3.61,0,0,0,.94,2.66,3.32,3.32,0,0,0,2.52,1,4,4,0,0,0,2.5-1Zm12.29.5h-3.12l-4.21-5.21h-.05v5.21h-2.47V692.54h2.47v10.14h.05l4-5h2.95l-4.48,5.24Zm10.42-4.77h-7.4a3.21,3.21,0,0,0,.92,2.33,3.49,3.49,0,0,0,2.44.81,5.44,5.44,0,0,0,3.19-1v2a7.35,7.35,0,0,1-3.92.94,4.9,4.9,0,0,1-3.76-1.48,6,6,0,0,1-1.36-4.16,5.78,5.78,0,0,1,1.5-4.12,4.88,4.88,0,0,1,3.73-1.6,4.29,4.29,0,0,1,3.44,1.43,6,6,0,0,1,1.22,4Zm-2.38-1.73a3.11,3.11,0,0,0-.62-2.06,2.09,2.09,0,0,0-1.7-.74,2.42,2.42,0,0,0-1.8.77,3.66,3.66,0,0,0-.9,2Zm14.58,6.49h-2.5v-1.84h0a4.24,4.24,0,0,1-5.8,1.52,4.08,4.08,0,0,1-1.06-.88,6,6,0,0,1-1.2-4,6.61,6.61,0,0,1,1.32-4.31,4.36,4.36,0,0,1,3.55-1.62,3.37,3.37,0,0,1,3.19,1.76h0v-6.72h2.46Zm-2.42-5v-1.42a2.76,2.76,0,0,0-.76-2,2.51,2.51,0,0,0-1.91-.8,2.6,2.6,0,0,0-2.18,1,4.58,4.58,0,0,0-.78,2.85,4.12,4.12,0,0,0,.75,2.61,2.49,2.49,0,0,0,2,1,2.54,2.54,0,0,0,2-.93,3.5,3.5,0,0,0,.84-2.23Zm6.33,8.42h-2.11a14.16,14.16,0,0,0,3.29-9.28,14.35,14.35,0,0,0-3.3-9.37h2.1a13.84,13.84,0,0,1,3.36,9.4,13.38,13.38,0,0,1-3.38,9.29Z" transform="translate(0 -0.03)"/><path class="cls-37" d="M295.38,494.84V431.89c0-20.28-56.52-36.72-126.23-36.72S42.91,411.61,42.91,431.89v62.95c0,20.29,56.52,36.73,126.24,36.73S295.38,515.13,295.38,494.84Z" transform="translate(0 -0.03)"/><ellipse class="cls-38" cx="169.14" cy="431.44" rx="126.23" ry="36.49"/><ellipse class="cls-39" cx="169.14" cy="788.45" rx="126.23" ry="36.49"/><path class="cls-8" d="M125.53,503.47h-7.65V489.68h2.29v11.88h5.36Zm4.28-5v5h-2.28V489.68h4.15a5.57,5.57,0,0,1,3.69,1.11,3.85,3.85,0,0,1,1.31,3.12,4.32,4.32,0,0,1-1.37,3.29,5.22,5.22,0,0,1-3.7,1.28Zm0-6.91v5h1.49a3.23,3.23,0,0,0,2.24-.68,2.46,2.46,0,0,0,.77-1.93c0-1.62-.94-2.43-2.83-2.43Zm22.44,11.92H144.5v-13.8h7.44v1.94h-5.15v3.92h4.75v1.93h-4.75v4.09h5.46Zm10.43-9.87-3.28,5,3.24,4.87h-2.59l-1.73-3q-.16-.28-.39-.72h0a5,5,0,0,1-.41.72l-1.76,3h-2.58l3.35-4.83-3.18-5H156l1.71,3.21c.12.23.25.48.37.73h0l2.21-3.94Zm2.77-2.07a1.34,1.34,0,0,1-.95-.36,1.18,1.18,0,0,1-.38-.9,1.22,1.22,0,0,1,.38-.92,1.42,1.42,0,0,1,1.91,0,1.24,1.24,0,0,1,.06,1.75l-.06.06a1.38,1.38,0,0,1-.94.37Zm1.1,11.93h-2.23v-9.86h2.23Zm2.32-.31v-2.07a4.41,4.41,0,0,0,2.76,1c1.35,0,2-.39,2-1.19a1.06,1.06,0,0,0-.17-.57,1.71,1.71,0,0,0-.47-.42,4.47,4.47,0,0,0-.7-.33l-.88-.33a11,11,0,0,1-1.1-.51,3.41,3.41,0,0,1-.81-.6,2.61,2.61,0,0,1-.48-.78,2.84,2.84,0,0,1-.17-1,2.31,2.31,0,0,1,.34-1.25,2.83,2.83,0,0,1,.91-.91,4.11,4.11,0,0,1,1.29-.56,5.8,5.8,0,0,1,1.49-.19,7.08,7.08,0,0,1,2.45.41v2a4.15,4.15,0,0,0-2.39-.72,3.31,3.31,0,0,0-.77.09,2.09,2.09,0,0,0-.58.24,1.15,1.15,0,0,0-.38.38.85.85,0,0,0-.13.47,1,1,0,0,0,.13.54,1.24,1.24,0,0,0,.4.39,4.6,4.6,0,0,0,.63.31l.86.3a11.79,11.79,0,0,1,1.14.53,3.54,3.54,0,0,1,.87.62,2.23,2.23,0,0,1,.54.78,2.6,2.6,0,0,1,.2,1.06,2.41,2.41,0,0,1-.35,1.31,2.92,2.92,0,0,1-.92.93,4.71,4.71,0,0,1-1.34.54,6.79,6.79,0,0,1-1.56.05,6.66,6.66,0,0,1-2.79-.52Zm14.33.2a4,4,0,0,1-1.73.33c-1.91,0-2.87-.92-2.87-2.75v-5.58H177v-1.75h1.64v-2.28l2.24-.64v2.92h2.36v1.75h-2.36v4.93a2,2,0,0,0,.31,1.25,1.31,1.31,0,0,0,1.06.38,1.56,1.56,0,0,0,1-.33Zm3.05-11.82a1.3,1.3,0,0,1-.94-.36,1.15,1.15,0,0,1-.39-.9,1.2,1.2,0,0,1,.39-.92,1.46,1.46,0,0,1,1.94,0,1.22,1.22,0,0,1,.09,1.72l-.09.09a1.37,1.37,0,0,1-1,.37Zm1.11,11.93h-2.24v-9.86h2.24Zm11.71,0h-2.24v-5.56q0-2.76-2-2.76a2.13,2.13,0,0,0-1.69.77,2.81,2.81,0,0,0-.66,1.92v5.63h-2.25v-9.86h2.25v1.64h0a3.49,3.49,0,0,1,3.19-1.87,3,3,0,0,1,2.46,1,4.65,4.65,0,0,1,.85,3Zm11.71-.79q0,5.43-5.46,5.43a8.08,8.08,0,0,1-3.36-.64v-2a6.17,6.17,0,0,0,3.07.93q3.51,0,3.51-3.46v-1.08h0a3.88,3.88,0,0,1-5.32,1.34,3.92,3.92,0,0,1-.92-.76,5.29,5.29,0,0,1-1.1-3.53,6.23,6.23,0,0,1,1.18-4,3.93,3.93,0,0,1,3.3-1.53,3.14,3.14,0,0,1,2.9,1.59h0v-1.36h2.24ZM208.56,499v-1.27a2.53,2.53,0,0,0-.69-1.77,2.19,2.19,0,0,0-1.71-.74,2.37,2.37,0,0,0-2,.94,4.26,4.26,0,0,0-.71,2.62,3.73,3.73,0,0,0,.68,2.33,2.26,2.26,0,0,0,1.83.87,2.38,2.38,0,0,0,1.88-.83,3.18,3.18,0,0,0,.74-2.15Z" transform="translate(0 -0.03)"/><path class="cls-8" d="M128.85,566.59h-2.68l-2.2-3.7a8.32,8.32,0,0,0-.59-.87,3.24,3.24,0,0,0-.58-.59,1.68,1.68,0,0,0-.63-.34,2.94,2.94,0,0,0-.78-.11h-.93v5.61h-2.28V552.78h4.5a6.44,6.44,0,0,1,1.8.23,4.19,4.19,0,0,1,1.42.7,3.05,3.05,0,0,1,.94,1.17,3.36,3.36,0,0,1,.35,1.62,3.86,3.86,0,0,1-.22,1.35,3.46,3.46,0,0,1-.62,1.09,3.56,3.56,0,0,1-1,.81,4.79,4.79,0,0,1-1.26.52h0a3.37,3.37,0,0,1,.65.47,6.5,6.5,0,0,1,.53.52,5,5,0,0,1,.49.62c.17.22.35.48.55.79Zm-8.39-12v4.49h1.91a2.83,2.83,0,0,0,1-.16,2.23,2.23,0,0,0,.78-.47,2.27,2.27,0,0,0,.51-.75,2.64,2.64,0,0,0,.18-1,2,2,0,0,0-.62-1.56,2.65,2.65,0,0,0-1.8-.56Zm17.59,7.63h-6.73a2.87,2.87,0,0,0,.84,2.11,3.15,3.15,0,0,0,2.22.74,5,5,0,0,0,2.9-.94v1.8a6.56,6.56,0,0,1-3.57.85,4.43,4.43,0,0,1-3.42-1.34,5.46,5.46,0,0,1-1.23-3.78,5.23,5.23,0,0,1,1.36-3.75,4.46,4.46,0,0,1,3.39-1.46,3.88,3.88,0,0,1,3.13,1.3,5.42,5.42,0,0,1,1.11,3.62Zm-2.16-1.54a2.87,2.87,0,0,0-.57-1.86,1.87,1.87,0,0,0-1.54-.68,2.21,2.21,0,0,0-1.64.7,3.33,3.33,0,0,0-.82,1.84Zm9.49,5.8a4,4,0,0,1-1.73.33c-1.91,0-2.87-.92-2.87-2.76v-5.57h-1.64v-1.75h1.64v-2.29l2.24-.63v2.92h2.36v1.75H143v4.93a2,2,0,0,0,.31,1.25,1.31,1.31,0,0,0,1.06.38,1.56,1.56,0,0,0,1-.33Zm9.49.11h-2.19v-1.54h0a3.26,3.26,0,0,1-3,1.77,3.14,3.14,0,0,1-2.28-.79,2.74,2.74,0,0,1-.82-2.09q0-2.79,3.22-3.26l2.92-.41c0-1.41-.66-2.11-2-2.11a4.79,4.79,0,0,0-3.18,1.21v-2a6.92,6.92,0,0,1,3.61-.93q3.73,0,3.73,3.68Zm-2.19-4.85-2.07.29a3.27,3.27,0,0,0-1.45.47,1.39,1.39,0,0,0-.48,1.18,1.36,1.36,0,0,0,.44,1,1.81,1.81,0,0,0,1.21.39,2.18,2.18,0,0,0,1.68-.71,2.56,2.56,0,0,0,.67-1.81Zm6-7.09a1.36,1.36,0,0,1-.94-.35,1.28,1.28,0,0,1,0-1.82,1.31,1.31,0,0,1,.94-.37,1.37,1.37,0,0,1,1,.37,1.25,1.25,0,0,1,0,1.77l0,0a1.37,1.37,0,0,1-1,.39Zm1.11,11.94h-2.23v-9.86h2.23Zm11.71,0h-2.23V561c0-1.84-.65-2.76-2-2.76a2.1,2.1,0,0,0-1.68.77,2.85,2.85,0,0,0-.67,1.92v5.63h-2.24v-9.86h2.24v1.63h0a3.54,3.54,0,0,1,3.2-1.87,3,3,0,0,1,2.46,1,4.71,4.71,0,0,1,.84,3Zm11.18-4.33H176a2.82,2.82,0,0,0,.83,2.11,3.15,3.15,0,0,0,2.22.74,5,5,0,0,0,2.9-.94V566a6.56,6.56,0,0,1-3.57.85,4.4,4.4,0,0,1-3.41-1.34,5.37,5.37,0,0,1-1.25-3.8,5.23,5.23,0,0,1,1.36-3.75,4.46,4.46,0,0,1,3.39-1.46,3.91,3.91,0,0,1,3.13,1.3,5.42,5.42,0,0,1,1.11,3.62Zm-2.2-1.58a2.77,2.77,0,0,0-.57-1.86,1.87,1.87,0,0,0-1.54-.68,2.21,2.21,0,0,0-1.64.7,3.25,3.25,0,0,0-.81,1.84Zm13.25,5.91H191.5v-1.68h0a3.87,3.87,0,0,1-6.24.59,5.52,5.52,0,0,1-1.09-3.61,6,6,0,0,1,1.2-3.92,4,4,0,0,1,3.23-1.48,3.11,3.11,0,0,1,2.9,1.6h0V552h2.23Zm-2.2-4.51v-1.29a2.51,2.51,0,0,0-.69-1.78,2.26,2.26,0,0,0-1.74-.73,2.36,2.36,0,0,0-2,.93,4.18,4.18,0,0,0-.72,2.59,3.74,3.74,0,0,0,.69,2.38,2.25,2.25,0,0,0,1.86.87,2.31,2.31,0,0,0,1.85-.84,3.17,3.17,0,0,0,.75-2.13ZM210,566.59h-7.65V552.78h2.35v11.9H210Zm4.29-5v5H212V552.78h4.19a5.57,5.57,0,0,1,3.69,1.11,3.82,3.82,0,0,1,1.31,3.12,4.3,4.3,0,0,1-1.37,3.29,5.2,5.2,0,0,1-3.69,1.28Zm0-6.92v5h1.48A3.35,3.35,0,0,0,218,559a2.42,2.42,0,0,0,.77-1.93c0-1.62-.94-2.44-2.83-2.44Z" transform="translate(0 -0.03)"/><path class="cls-8" d="M17.27,516.73v2.51l-10.15,6.6a5,5,0,0,1-.8.41v.06a13.42,13.42,0,0,1,1.9-.08h9v2.21H3.46v-2.66l9.91-6.38a9.19,9.19,0,0,1,.85-.52h0a11.6,11.6,0,0,1-1.86.1H3.46v-2.21Zm-4.33-11.52v6.72a2.87,2.87,0,0,0,2.11-.84,3.11,3.11,0,0,0,.75-2.22,4.86,4.86,0,0,0-1-2.89h1.83a6.52,6.52,0,0,1,.85,3.56A4.43,4.43,0,0,1,16.19,513a5.46,5.46,0,0,1-3.78,1.23,5.2,5.2,0,0,1-3.73-1.36,4.45,4.45,0,0,1-1.45-3.39,3.88,3.88,0,0,1,1.3-3.13,5.38,5.38,0,0,1,3.61-1.1Zm-1.57,2.15a2.92,2.92,0,0,0-1.87.57,1.9,1.9,0,0,0-.68,1.54,2.18,2.18,0,0,0,.71,1.64,3.23,3.23,0,0,0,1.84.82Zm-4-17.55,9.9,2.87V495l-6.68,1.79a3.67,3.67,0,0,1-.87.14h0a4.13,4.13,0,0,1,.85.17l6.7,2v2.29l-9.86,2.9V502l7.1-1.79a4.05,4.05,0,0,1,.85-.12V500a4.19,4.19,0,0,1-.86-.15l-7.09-2v-2.1L14.54,494a6,6,0,0,1,.85-.12v-.07a4.86,4.86,0,0,1-.85-.14L7.41,491.9Zm9.86-15v7.65H3.46v-2.3H15.33v-5.35Zm-5-4.29h5v2.29H3.46v-4.13A5.57,5.57,0,0,1,4.57,465a3.85,3.85,0,0,1,3.11-1.31A4.3,4.3,0,0,1,11,465.05a5.2,5.2,0,0,1,1.29,3.63Zm-6.91,0h5V469a3.35,3.35,0,0,0-.68-2.24A2.42,2.42,0,0,0,7.71,466c-1.62,0-2.43.94-2.43,2.83Z" transform="translate(0 -0.03)"/><path class="cls-9" d="M172.1,227.33h-1v-1h1Zm195.27,1H172.1v-2H367.37Zm-194.28-1V423.59h-2V227.33Z" transform="translate(0 -0.03)"/><circle class="cls-8" cx="294.39" cy="466.95" r="4.93"/><circle class="cls-8" cx="367.37" cy="226.31" r="4.93"/><circle class="cls-8" cx="663.23" cy="226.31" r="4.93"/><circle class="cls-8" cx="166.18" cy="68.52" r="4.93"/><circle class="cls-8" cx="294.39" cy="535.98" r="4.93"/><circle class="cls-8" cx="43.89" cy="561.62" r="4.93"/><circle class="cls-8" cx="43.89" cy="431.44" r="4.93"/><rect class="cls-2" x="147.45" y="288.44" width="48.26" height="34.25"/><rect class="cls-1" x="147.45" y="288.44" width="48.26" height="34.25"/><path class="cls-40" d="M147.45,298.75v-3.42H148v-6.27h9.06v-.58h4.83v.58h19.3v-.58h4.83v.58h9.06v13.12h.56V309h-.59v13.11H186v.59H181.2v-.59H161.9v.59h-4.83v-.59H148v-6.26h-.59v-3.43H148v-13.7Z" transform="translate(0 -0.03)"/><path class="cls-8" d="M170,302.19c-.45.82-.88,1.64-1.27,2.44s-.76,1.61-1.09,2.43-.6,1.63-.84,2.45a20,20,0,0,0-.55,2.53h-1.82a18,18,0,0,1,.51-2.29c.22-.77.48-1.54.78-2.3s.64-1.54,1-2.31.77-1.55,1.19-2.34h-5.07v-1.48H170Zm3.68,4.49a2.37,2.37,0,0,1-1.81-.73,2.74,2.74,0,0,1-.67-1.95,2.92,2.92,0,0,1,.71-2.09,2.52,2.52,0,0,1,1.92-.77,2.34,2.34,0,0,1,1.82.71,2.84,2.84,0,0,1,.65,2,2.9,2.9,0,0,1-.72,2.07A2.52,2.52,0,0,1,173.68,306.68Zm.1-4.5a1.16,1.16,0,0,0-1,.48,2.17,2.17,0,0,0-.35,1.29,2,2,0,0,0,.34,1.25,1.27,1.27,0,0,0,1.95,0,2.14,2.14,0,0,0,.34-1.3,2,2,0,0,0-.38-1.21,1.09,1.09,0,0,0-1-.47Zm7.15-.89-6.87,10.79H173l6.87-10.79Zm-1,10.88a2.36,2.36,0,0,1-1.81-.72,2.74,2.74,0,0,1-.67-1.95,2.92,2.92,0,0,1,.71-2.09,2.47,2.47,0,0,1,1.93-.77,2.32,2.32,0,0,1,1.81.71,2.84,2.84,0,0,1,.65,2,2.9,2.9,0,0,1-.72,2.07,2.51,2.51,0,0,1-1.91.78Zm.1-4.49a1.18,1.18,0,0,0-1,.47,2.22,2.22,0,0,0-.35,1.3,2.13,2.13,0,0,0,.34,1.25,1.15,1.15,0,0,0,1,.45,1.12,1.12,0,0,0,1-.46,2.14,2.14,0,0,0,.34-1.3,2,2,0,0,0-.34-1.26,1.09,1.09,0,0,0-1-.45Z" transform="translate(0 -0.03)"/><rect class="cls-2" x="490.65" y="108.95" width="48.26" height="34.25"/><rect class="cls-1" x="490.65" y="108.95" width="48.26" height="34.25"/><path class="cls-41" d="M490.68,119.26v-3.42h.59v-6.26h9.06V109h4.83v.59h19.3V109h4.83v.59h9.06v13.1h.59v6.85h-.59v13.15h-9.06v.59h-4.83v-.59h-19.3v.59h-4.83v-.59h-9.06v-6.26h-.59V133h.59v-13.7Z" transform="translate(0 -0.03)"/><path class="cls-8" d="M506.88,121.6v11h-1.73v-8.92a6.15,6.15,0,0,1-1,.57,7.72,7.72,0,0,1-1.23.41v-1.48c.29-.09.57-.19.84-.29l.79-.35c.26-.13.53-.28.79-.44s.55-.34.83-.54Zm5.7,11.13a3,3,0,0,1-2.62-1.37,7,7,0,0,1-.93-4,7.69,7.69,0,0,1,1-4.3,3.18,3.18,0,0,1,2.82-1.45q3.54,0,3.54,5.49a7.12,7.12,0,0,1-1,4.15A3.19,3.19,0,0,1,512.58,132.73Zm.17-9.69q-2,0-2,4.29c0,2.68.64,4,1.91,4s1.88-1.36,1.88-4.08S514,123,512.75,123Zm7.31,4.17a2.36,2.36,0,0,1-1.81-.72,2.79,2.79,0,0,1-.68-1.95,3,3,0,0,1,.71-2.09,2.54,2.54,0,0,1,1.93-.77,2.34,2.34,0,0,1,1.82.71,3.35,3.35,0,0,1-.08,4.07A2.47,2.47,0,0,1,520.06,127.21Zm.1-4.49a1.16,1.16,0,0,0-1,.48,2.17,2.17,0,0,0-.35,1.29,2,2,0,0,0,.34,1.25,1.27,1.27,0,0,0,2,0,2.14,2.14,0,0,0,.34-1.3,2,2,0,0,0-.34-1.26,1.1,1.1,0,0,0-.94-.49Zm7.15-.88-6.87,10.78h-1.07l6.87-10.78Zm-1,10.87a2.36,2.36,0,0,1-1.81-.72,2.74,2.74,0,0,1-.67-2,2.92,2.92,0,0,1,.71-2.09,2.45,2.45,0,0,1,1.92-.77,2.27,2.27,0,0,1,1.82.71,2.84,2.84,0,0,1,.65,2,2.9,2.9,0,0,1-.72,2.06,2.49,2.49,0,0,1-1.86.73Zm.1-4.49a1.15,1.15,0,0,0-1,.47,2.22,2.22,0,0,0-.35,1.3,2,2,0,0,0,.34,1.25,1.15,1.15,0,0,0,1,.45,1.12,1.12,0,0,0,1-.46,2.14,2.14,0,0,0,.34-1.3,2,2,0,0,0-.34-1.26,1.11,1.11,0,0,0-.95-.45Z" transform="translate(0 -0.03)"/><rect class="cls-2" x="212.53" y="51.75" width="54.31" height="34.25"/><rect class="cls-1" x="212.53" y="51.75" width="54.31" height="34.25"/><path class="cls-42" d="M212.54,62.06V58.68h.59V52.37H223.4v-.58h5.43v.58h21.72v-.58H256v.58h10.28V65.49h.58v6.85h-.58V85.45H256V86h-5.43v-.59H228.83V86H223.4v-.59H213.13V79.19h-.59V75.76h.59V62.06Z" transform="translate(0 -0.03)"/><path class="cls-8" d="M227.13,64.4v11H225.4V66.52a6.61,6.61,0,0,1-1,.57,7.72,7.72,0,0,1-1.23.41V66c.29-.09.57-.19.83-.29s.54-.23.8-.36a8.67,8.67,0,0,0,.79-.43c.27-.16.54-.34.83-.54Zm5.69,11.13a3,3,0,0,1-2.61-1.37,7,7,0,0,1-.94-4,7.79,7.79,0,0,1,1-4.3,3.21,3.21,0,0,1,2.83-1.45q3.53,0,3.53,5.49a7.2,7.2,0,0,1-1,4.15A3.22,3.22,0,0,1,232.82,75.53Zm.18-9.69c-1.31,0-1.95,1.43-1.95,4.29,0,2.68.63,4,1.91,4s1.88-1.36,1.88-4.08-.61-4.21-1.84-4.21Zm8.33,9.69a3,3,0,0,1-2.62-1.37,7,7,0,0,1-.93-4,7.69,7.69,0,0,1,1-4.3,3.18,3.18,0,0,1,2.82-1.45c2.36,0,3.53,1.83,3.53,5.49a7.2,7.2,0,0,1-1,4.15A3.2,3.2,0,0,1,241.33,75.53Zm.17-9.69q-2,0-1.95,4.29c0,2.68.64,4,1.91,4s1.88-1.36,1.88-4.08-.61-4.21-1.84-4.21ZM248.81,70a2.36,2.36,0,0,1-1.81-.72,2.75,2.75,0,0,1-.67-2,3,3,0,0,1,.7-2.09,2.5,2.5,0,0,1,1.93-.77,2.34,2.34,0,0,1,1.82.71,3.35,3.35,0,0,1-.08,4.07A2.45,2.45,0,0,1,248.81,70Zm.1-4.49a1.15,1.15,0,0,0-1,.47,2.06,2.06,0,0,0-.35,1.3,2,2,0,0,0,.34,1.25,1.15,1.15,0,0,0,1,.45,1.12,1.12,0,0,0,1-.46,2.14,2.14,0,0,0,.34-1.3A2,2,0,0,0,249.9,66,1.12,1.12,0,0,0,248.91,65.52Zm7.15-.89-6.87,10.79h-1.07L255,64.68Zm-1,10.88a2.36,2.36,0,0,1-1.81-.72,2.75,2.75,0,0,1-.67-2,2.92,2.92,0,0,1,.71-2.09,2.45,2.45,0,0,1,1.92-.77,2.27,2.27,0,0,1,1.82.71,3.32,3.32,0,0,1-.08,4,2.45,2.45,0,0,1-1.85.87Zm.1-4.49a1.15,1.15,0,0,0-1,.47,2.22,2.22,0,0,0-.35,1.3,2,2,0,0,0,.34,1.25,1.27,1.27,0,0,0,2,0,2.14,2.14,0,0,0,.34-1.3,2,2,0,0,0-.34-1.26,1.11,1.11,0,0,0-.9-.45Z" transform="translate(0 -0.03)"/><rect class="cls-2" x="778.62" y="51.75" width="48.26" height="34.25"/><rect class="cls-1" x="778.62" y="51.75" width="48.26" height="34.25"/><path class="cls-43" d="M778.62,62.06V58.68h.59V52.37h9.07v-.58h4.82v.58h19.3v-.58h4.83v.58h9.06V65.49h.59v6.85h-.59V85.45h-9.06V86H812.4v-.59H793.1V86h-4.82v-.59h-9.07V79.19h-.59V75.76h.59V62.06Z" transform="translate(0 -0.03)"/><path class="cls-8" d="M796.89,69.41a9.55,9.55,0,0,1-.35,2.76,5.3,5.3,0,0,1-1,1.91,3.76,3.76,0,0,1-1.42,1.11,4.64,4.64,0,0,1-1.76.35h-.62l-.59-.1a4.77,4.77,0,0,1-.51-.13,1.66,1.66,0,0,1-.37-.14V73.61a1.79,1.79,0,0,0,.39.2,4.09,4.09,0,0,0,.49.18l.57.13h.58a2.67,2.67,0,0,0,1.15-.24,2.51,2.51,0,0,0,.89-.73,3.7,3.7,0,0,0,.56-1.21,6.31,6.31,0,0,0,.2-1.67h0a2,2,0,0,1-.36.45,2.28,2.28,0,0,1-.5.38,2.85,2.85,0,0,1-.63.25,2.64,2.64,0,0,1-.74.1,3.6,3.6,0,0,1-1.26-.23,3.19,3.19,0,0,1-1-.67,3.08,3.08,0,0,1-.67-1.06,3.62,3.62,0,0,1-.24-1.38A3.89,3.89,0,0,1,790,66.6a3.3,3.3,0,0,1,.76-1.15,3.18,3.18,0,0,1,1.14-.73,3.7,3.7,0,0,1,1.43-.26,3.56,3.56,0,0,1,1.37.27,2.92,2.92,0,0,1,1.13.87,4.19,4.19,0,0,1,.78,1.53A8,8,0,0,1,796.89,69.41Zm-1.81-1.14a3.36,3.36,0,0,0-.14-1,2.46,2.46,0,0,0-.38-.76A1.71,1.71,0,0,0,794,66a1.47,1.47,0,0,0-.74-.17,1.81,1.81,0,0,0-.69.14,2,2,0,0,0-.57.42,2,2,0,0,0-.38.65,2.64,2.64,0,0,0-.14.84,2.73,2.73,0,0,0,.13.9,2,2,0,0,0,.39.65,1.7,1.7,0,0,0,.59.41,2.27,2.27,0,0,0,.77.13,1.8,1.8,0,0,0,.69-.13,1.75,1.75,0,0,0,.55-.38,1.79,1.79,0,0,0,.38-.56A1.65,1.65,0,0,0,795.08,68.27Zm6.66,7.26a3,3,0,0,1-2.61-1.37,7,7,0,0,1-.93-4,7.79,7.79,0,0,1,1-4.3A3.21,3.21,0,0,1,802,64.41c2.36,0,3.53,1.83,3.53,5.49a7.2,7.2,0,0,1-1,4.15A3.2,3.2,0,0,1,801.74,75.53Zm.18-9.69q-1.95,0-2,4.29c0,2.68.63,4,1.91,4s1.88-1.36,1.88-4.08S803.15,65.84,801.92,65.84Zm7.3,4.17a2.34,2.34,0,0,1-1.8-.72,2.75,2.75,0,0,1-.67-2,3,3,0,0,1,.7-2.09,2.5,2.5,0,0,1,1.93-.77,2.34,2.34,0,0,1,1.82.71,3.35,3.35,0,0,1-.08,4.07A2.49,2.49,0,0,1,809.22,70Zm.11-4.49a1.16,1.16,0,0,0-1,.48,2,2,0,0,0-.35,1.29,2,2,0,0,0,.34,1.25,1.15,1.15,0,0,0,1,.45,1.12,1.12,0,0,0,1-.46,2.29,2.29,0,0,0,.34-1.3,2.14,2.14,0,0,0-.34-1.26,1.12,1.12,0,0,0-1-.45Zm7.15-.84-6.87,10.78h-1.07l6.86-10.78Zm-1,10.87a2.36,2.36,0,0,1-1.81-.72,2.75,2.75,0,0,1-.67-2,2.92,2.92,0,0,1,.71-2.09,2.47,2.47,0,0,1,2-.76,2.27,2.27,0,0,1,1.82.71,3.32,3.32,0,0,1-.08,4,2.46,2.46,0,0,1-1.9.82Zm.1-4.49a1.15,1.15,0,0,0-1,.47,2.22,2.22,0,0,0-.35,1.3,2,2,0,0,0,.34,1.25,1.15,1.15,0,0,0,1,.45,1.12,1.12,0,0,0,1-.46,2.14,2.14,0,0,0,.34-1.3,2,2,0,0,0-.34-1.26,1.1,1.1,0,0,0-1-.49Z" transform="translate(0 -0.03)"/><rect class="cls-2" x="689.86" y="209.55" width="48.26" height="34.25"/><rect class="cls-1" x="689.86" y="209.55" width="48.26" height="34.25"/><path class="cls-44" d="M689.86,219.85v-3.42h.59v-6.26h9.07v-.59h4.82v.59h19.34v-.59h4.82v.59h9.06v13.11h.59v6.85h-.59v13.11H728.5v.59h-4.82v-.59H704.34v.59h-4.82v-.59h-9.07V237h-.59v-3.43h.59v-13.7Z" transform="translate(0 -0.03)"/><path class="cls-8" d="M705.5,232.75v-1.63a3.75,3.75,0,0,0,2.36.83,2.69,2.69,0,0,0,1.7-.49,1.54,1.54,0,0,0,.65-1.31q0-1.83-2.79-1.83h-.83v-1.39h.79c1.65,0,2.48-.57,2.48-1.71s-.65-1.59-1.93-1.59a3.19,3.19,0,0,0-2,.77v-1.54a5.25,5.25,0,0,1,2.58-.61,3.44,3.44,0,0,1,2.29.72,2.28,2.28,0,0,1,.86,1.83,2.61,2.61,0,0,1-2.15,2.72h0a2.81,2.81,0,0,1,1.83.82,2.4,2.4,0,0,1,.67,1.74,2.85,2.85,0,0,1-1.08,2.33,4.38,4.38,0,0,1-2.86.88A4.87,4.87,0,0,1,705.5,232.75Zm10.69-4.94a2.33,2.33,0,0,1-1.81-.73,2.75,2.75,0,0,1-.67-2,3,3,0,0,1,.71-2.09,2.54,2.54,0,0,1,1.93-.77,2.32,2.32,0,0,1,1.81.71,2.8,2.8,0,0,1,.65,2,2.9,2.9,0,0,1-.72,2.06A2.54,2.54,0,0,1,716.19,227.81Zm.11-4.49a1.15,1.15,0,0,0-1,.47,2,2,0,0,0-.36,1.29,2,2,0,0,0,.35,1.26,1.14,1.14,0,0,0,1,.45,1.11,1.11,0,0,0,1-.47,2.2,2.2,0,0,0,.35-1.3,2,2,0,0,0-.35-1.25A1.09,1.09,0,0,0,716.3,223.32Zm7.15-.89-6.88,10.79H715.5l6.87-10.79Zm-1,10.88a2.33,2.33,0,0,1-1.81-.73,2.83,2.83,0,0,1-.67-2,3,3,0,0,1,.71-2.09,2.54,2.54,0,0,1,1.93-.77,2.34,2.34,0,0,1,1.82.71,2.84,2.84,0,0,1,.65,2,2.93,2.93,0,0,1-.73,2.06,2.5,2.5,0,0,1-1.87.77Zm.11-4.49a1.13,1.13,0,0,0-1,.47,2,2,0,0,0-.35,1.29,2,2,0,0,0,.34,1.25,1.14,1.14,0,0,0,1,.45,1.09,1.09,0,0,0,.94-.46,2.2,2.2,0,0,0,.35-1.3,2,2,0,0,0-.35-1.26,1.1,1.1,0,0,0-.9-.44Z" transform="translate(0 -0.03)"/><path class="cls-45" d="M298.86,536.56H400v41" transform="translate(0 -0.03)"/></svg>