<svg id="_1" data-name="1" xmlns="http://www.w3.org/2000/svg" viewBox="0 0 98.71 53.58"><defs><style>.cls-1,.cls-2{fill:none;stroke:#fff;}.cls-1{stroke-width:2px;}.cls-2{stroke-width:3px;}</style></defs><title>Redistribution_2_h</title><path class="cls-1" d="M77.36,49.28v-1H67.79V42.65h9.57V38.87l10.4,6.61L77.36,52.1Z" transform="translate(-0.59 -24.4)"/><path class="cls-1" d="M88.72,53.09v1h9.57v5.66H88.72v3.79L78.33,56.89l10.39-6.61Z" transform="translate(-0.59 -24.4)"/><path class="cls-2" d="M22.89,71.48A21.62,21.62,0,0,1,44.51,49.86h2A21.63,21.63,0,0,1,68.15,71.48a5,5,0,0,1-5,5H27.88A5,5,0,0,1,22.89,71.48Z" transform="translate(-0.59 -24.4)"/><path class="cls-1" d="M1.59,73.21A15.37,15.37,0,0,1,17,57.84h1.22A15.37,15.37,0,0,1,33.54,73.21a3.28,3.28,0,0,1-3.28,3.27H4.86A3.27,3.27,0,0,1,1.59,73.21Z" transform="translate(-0.59 -24.4)"/><circle class="cls-1" cx="16.97" cy="22.8" r="7.99"/><circle class="cls-2" cx="43.6" cy="12.15" r="10.65"/></svg>