<svg width="278" height="278" fill="none" xmlns="http://www.w3.org/2000/svg"><path d="M118 228.5h42a3.5 3.5 0 013.5 3.5v42a3.5 3.5 0 01-3.5 3.5h-42a3.5 3.5 0 01-3.5-3.5v-42a3.5 3.5 0 013.5-3.5z" stroke="url(#paint0_linear-bottom-2_1:29)"/><path d="M175 228.5h42a3.5 3.5 0 013.5 3.5v42a3.5 3.5 0 01-3.5 3.5h-42a3.5 3.5 0 01-3.5-3.5v-42a3.5 3.5 0 013.5-3.5z" stroke="url(#paint1_linear-bottom-2_1:29)"/><path d="M232 228.5h42a3.5 3.5 0 013.5 3.5v42a3.5 3.5 0 01-3.5 3.5h-42a3.5 3.5 0 01-3.5-3.5v-42a3.5 3.5 0 013.5-3.5z" stroke="url(#paint2_linear-bottom-2_1:29)"/><path d="M61 228.5h42a3.5 3.5 0 013.5 3.5v42a3.5 3.5 0 01-3.5 3.5H61a3.5 3.5 0 01-3.5-3.5v-42a3.5 3.5 0 013.5-3.5z" stroke="url(#paint3_linear-bottom-2_1:29)"/><path d="M4 228.5h42a3.5 3.5 0 013.5 3.5v42a3.5 3.5 0 01-3.5 3.5H4A3.5 3.5 0 01.5 274v-42a3.5 3.5 0 013.5-3.5z" stroke="url(#paint4_linear-bottom-2_1:29)"/><path d="M232 171.5h42a3.5 3.5 0 013.5 3.5v42a3.5 3.5 0 01-3.5 3.5h-42a3.5 3.5 0 01-3.5-3.5v-42a3.5 3.5 0 013.5-3.5z" stroke="url(#paint5_linear-bottom-2_1:29)"/><path d="M175 171.5h42a3.5 3.5 0 013.5 3.5v42a3.5 3.5 0 01-3.5 3.5h-42a3.5 3.5 0 01-3.5-3.5v-42a3.5 3.5 0 013.5-3.5z" stroke="url(#paint6_linear-bottom-2_1:29)"/><path d="M118 171.5h42a3.5 3.5 0 013.5 3.5v42a3.5 3.5 0 01-3.5 3.5h-42a3.5 3.5 0 01-3.5-3.5v-42a3.5 3.5 0 013.5-3.5z" stroke="url(#paint7_linear-bottom-2_1:29)"/><path d="M61 171.5h42a3.5 3.5 0 013.5 3.5v42a3.5 3.5 0 01-3.5 3.5H61a3.5 3.5 0 01-3.5-3.5v-42a3.5 3.5 0 013.5-3.5z" stroke="url(#paint8_linear-bottom-2_1:29)"/><path d="M232 114.5h42a3.5 3.5 0 013.5 3.5v42a3.5 3.5 0 01-3.5 3.5h-42a3.5 3.5 0 01-3.5-3.5v-42a3.5 3.5 0 013.5-3.5z" stroke="url(#paint9_linear-bottom-2_1:29)"/><path d="M175 114.5h42a3.5 3.5 0 013.5 3.5v42a3.5 3.5 0 01-3.5 3.5h-42a3.5 3.5 0 01-3.5-3.5v-42a3.5 3.5 0 013.5-3.5z" stroke="url(#paint10_linear-bottom-2_1:29)"/><path d="M118 114.5h42a3.5 3.5 0 013.5 3.5v42a3.5 3.5 0 01-3.5 3.5h-42a3.5 3.5 0 01-3.5-3.5v-42a3.5 3.5 0 013.5-3.5z" stroke="url(#paint11_linear-bottom-2_1:29)"/><path d="M232 57.5h42a3.5 3.5 0 013.5 3.5v42a3.5 3.5 0 01-3.5 3.5h-42a3.5 3.5 0 01-3.5-3.5V61a3.5 3.5 0 013.5-3.5z" stroke="url(#paint12_linear-bottom-2_1:29)"/><path d="M175 57.5h42a3.5 3.5 0 013.5 3.5v42a3.5 3.5 0 01-3.5 3.5h-42a3.5 3.5 0 01-3.5-3.5V61a3.5 3.5 0 013.5-3.5z" stroke="url(#paint13_linear-bottom-2_1:29)"/><path d="M232 .5h42a3.5 3.5 0 013.5 3.5v42a3.5 3.5 0 01-3.5 3.5h-42a3.5 3.5 0 01-3.5-3.5V4A3.5 3.5 0 01232 .5z" stroke="url(#paint14_linear-bottom-2_1:29)"/><defs><linearGradient id="paint0_linear-bottom-2_1:29" x1="-77.091" y1="-497.5" x2="305.908" y2="317" gradientUnits="userSpaceOnUse"><stop stop-color="#F7DE52"/><stop offset=".214" stop-color="#FCB5EF" stop-opacity=".38"/><stop offset=".389" stop-color="#FCB5EF" stop-opacity="0"/><stop offset=".637" stop-color="#FCB5EF" stop-opacity="0"/><stop offset=".799" stop-color="#FCB5EF" stop-opacity=".38"/><stop offset="1" stop-color="#F7DE52"/></linearGradient><linearGradient id="paint1_linear-bottom-2_1:29" x1="-77.092" y1="-497.5" x2="305.908" y2="317" gradientUnits="userSpaceOnUse"><stop stop-color="#F7DE52"/><stop offset=".214" stop-color="#FCB5EF" stop-opacity=".38"/><stop offset=".389" stop-color="#FCB5EF" stop-opacity="0"/><stop offset=".637" stop-color="#FCB5EF" stop-opacity="0"/><stop offset=".799" stop-color="#FCB5EF" stop-opacity=".38"/><stop offset="1" stop-color="#F7DE52"/></linearGradient><linearGradient id="paint2_linear-bottom-2_1:29" x1="-77.091" y1="-497.5" x2="305.908" y2="317" gradientUnits="userSpaceOnUse"><stop stop-color="#F7DE52"/><stop offset=".214" stop-color="#FCB5EF" stop-opacity=".38"/><stop offset=".389" stop-color="#FCB5EF" stop-opacity="0"/><stop offset=".637" stop-color="#FCB5EF" stop-opacity="0"/><stop offset=".799" stop-color="#FCB5EF" stop-opacity=".38"/><stop offset="1" stop-color="#F7DE52"/></linearGradient><linearGradient id="paint3_linear-bottom-2_1:29" x1="-77.091" y1="-497.5" x2="305.908" y2="317" gradientUnits="userSpaceOnUse"><stop stop-color="#F7DE52"/><stop offset=".214" stop-color="#FCB5EF" stop-opacity=".38"/><stop offset=".389" stop-color="#FCB5EF" stop-opacity="0"/><stop offset=".637" stop-color="#FCB5EF" stop-opacity="0"/><stop offset=".799" stop-color="#FCB5EF" stop-opacity=".38"/><stop offset="1" stop-color="#F7DE52"/></linearGradient><linearGradient id="paint4_linear-bottom-2_1:29" x1="-77.091" y1="-497.5" x2="305.908" y2="317" gradientUnits="userSpaceOnUse"><stop stop-color="#F7DE52"/><stop offset=".214" stop-color="#FCB5EF" stop-opacity=".38"/><stop offset=".389" stop-color="#FCB5EF" stop-opacity="0"/><stop offset=".637" stop-color="#FCB5EF" stop-opacity="0"/><stop offset=".799" stop-color="#FCB5EF" stop-opacity=".38"/><stop offset="1" stop-color="#F7DE52"/></linearGradient><linearGradient id="paint5_linear-bottom-2_1:29" x1="-77.091" y1="-497.5" x2="305.908" y2="317" gradientUnits="userSpaceOnUse"><stop stop-color="#F7DE52"/><stop offset=".214" stop-color="#FCB5EF" stop-opacity=".38"/><stop offset=".389" stop-color="#FCB5EF" stop-opacity="0"/><stop offset=".637" stop-color="#FCB5EF" stop-opacity="0"/><stop offset=".799" stop-color="#FCB5EF" stop-opacity=".38"/><stop offset="1" stop-color="#F7DE52"/></linearGradient><linearGradient id="paint6_linear-bottom-2_1:29" x1="-77.091" y1="-497.5" x2="305.908" y2="317" gradientUnits="userSpaceOnUse"><stop stop-color="#F7DE52"/><stop offset=".214" stop-color="#FCB5EF" stop-opacity=".38"/><stop offset=".389" stop-color="#FCB5EF" stop-opacity="0"/><stop offset=".637" stop-color="#FCB5EF" stop-opacity="0"/><stop offset=".799" stop-color="#FCB5EF" stop-opacity=".38"/><stop offset="1" stop-color="#F7DE52"/></linearGradient><linearGradient id="paint7_linear-bottom-2_1:29" x1="-77.091" y1="-497.5" x2="305.908" y2="317" gradientUnits="userSpaceOnUse"><stop stop-color="#F7DE52"/><stop offset=".214" stop-color="#FCB5EF" stop-opacity=".38"/><stop offset=".389" stop-color="#FCB5EF" stop-opacity="0"/><stop offset=".637" stop-color="#FCB5EF" stop-opacity="0"/><stop offset=".799" stop-color="#FCB5EF" stop-opacity=".38"/><stop offset="1" stop-color="#F7DE52"/></linearGradient><linearGradient id="paint8_linear-bottom-2_1:29" x1="-77.091" y1="-497.5" x2="305.908" y2="317" gradientUnits="userSpaceOnUse"><stop stop-color="#F7DE52"/><stop offset=".214" stop-color="#FCB5EF" stop-opacity=".38"/><stop offset=".389" stop-color="#FCB5EF" stop-opacity="0"/><stop offset=".637" stop-color="#FCB5EF" stop-opacity="0"/><stop offset=".799" stop-color="#FCB5EF" stop-opacity=".38"/><stop offset="1" stop-color="#F7DE52"/></linearGradient><linearGradient id="paint9_linear-bottom-2_1:29" x1="-77.091" y1="-497.5" x2="305.908" y2="317" gradientUnits="userSpaceOnUse"><stop stop-color="#F7DE52"/><stop offset=".214" stop-color="#FCB5EF" stop-opacity=".38"/><stop offset=".389" stop-color="#FCB5EF" stop-opacity="0"/><stop offset=".637" stop-color="#FCB5EF" stop-opacity="0"/><stop offset=".799" stop-color="#FCB5EF" stop-opacity=".38"/><stop offset="1" stop-color="#F7DE52"/></linearGradient><linearGradient id="paint10_linear-bottom-2_1:29" x1="-77.091" y1="-497.5" x2="305.908" y2="317" gradientUnits="userSpaceOnUse"><stop stop-color="#F7DE52"/><stop offset=".214" stop-color="#FCB5EF" stop-opacity=".38"/><stop offset=".389" stop-color="#FCB5EF" stop-opacity="0"/><stop offset=".637" stop-color="#FCB5EF" stop-opacity="0"/><stop offset=".799" stop-color="#FCB5EF" stop-opacity=".38"/><stop offset="1" stop-color="#F7DE52"/></linearGradient><linearGradient id="paint11_linear-bottom-2_1:29" x1="-77.091" y1="-497.5" x2="305.908" y2="317" gradientUnits="userSpaceOnUse"><stop stop-color="#F7DE52"/><stop offset=".214" stop-color="#FCB5EF" stop-opacity=".38"/><stop offset=".389" stop-color="#FCB5EF" stop-opacity="0"/><stop offset=".637" stop-color="#FCB5EF" stop-opacity="0"/><stop offset=".799" stop-color="#FCB5EF" stop-opacity=".38"/><stop offset="1" stop-color="#F7DE52"/></linearGradient><linearGradient id="paint12_linear-bottom-2_1:29" x1="-77.091" y1="-497.5" x2="305.908" y2="317" gradientUnits="userSpaceOnUse"><stop stop-color="#F7DE52"/><stop offset=".214" stop-color="#FCB5EF" stop-opacity=".38"/><stop offset=".389" stop-color="#FCB5EF" stop-opacity="0"/><stop offset=".637" stop-color="#FCB5EF" stop-opacity="0"/><stop offset=".799" stop-color="#FCB5EF" stop-opacity=".38"/><stop offset="1" stop-color="#F7DE52"/></linearGradient><linearGradient id="paint13_linear-bottom-2_1:29" x1="-77.091" y1="-497.5" x2="305.908" y2="317" gradientUnits="userSpaceOnUse"><stop stop-color="#F7DE52"/><stop offset=".214" stop-color="#FCB5EF" stop-opacity=".38"/><stop offset=".389" stop-color="#FCB5EF" stop-opacity="0"/><stop offset=".637" stop-color="#FCB5EF" stop-opacity="0"/><stop offset=".799" stop-color="#FCB5EF" stop-opacity=".38"/><stop offset="1" stop-color="#F7DE52"/></linearGradient><linearGradient id="paint14_linear-bottom-2_1:29" x1="-77.091" y1="-497.5" x2="305.908" y2="317" gradientUnits="userSpaceOnUse"><stop stop-color="#F7DE52"/><stop offset=".214" stop-color="#FCB5EF" stop-opacity=".38"/><stop offset=".389" stop-color="#FCB5EF" stop-opacity="0"/><stop offset=".637" stop-color="#FCB5EF" stop-opacity="0"/><stop offset=".799" stop-color="#FCB5EF" stop-opacity=".38"/><stop offset="1" stop-color="#F7DE52"/></linearGradient></defs></svg>