<svg width="221" height="221" fill="none" xmlns="http://www.w3.org/2000/svg"><path d="M4 171.5h42a3.5 3.5 0 013.5 3.5v42a3.5 3.5 0 01-3.5 3.5H4A3.5 3.5 0 01.5 217v-42a3.5 3.5 0 013.5-3.5z" stroke="url(#paint0_lineartop-2_1:12)"/><path d="M61 114.5h42a3.5 3.5 0 013.5 3.5v42a3.5 3.5 0 01-3.5 3.5H61a3.5 3.5 0 01-3.5-3.5v-42a3.5 3.5 0 013.5-3.5z" stroke="url(#paint1_lineartop-2_1:12)"/><path d="M4 114.5h42a3.5 3.5 0 013.5 3.5v42a3.5 3.5 0 01-3.5 3.5H4A3.5 3.5 0 01.5 160v-42a3.5 3.5 0 013.5-3.5z" stroke="url(#paint2_lineartop-2_1:12)"/><path d="M118 57.5h42a3.5 3.5 0 013.5 3.5v42a3.5 3.5 0 01-3.5 3.5h-42a3.5 3.5 0 01-3.5-3.5V61a3.5 3.5 0 013.5-3.5z" stroke="url(#paint3_lineartop-2_1:12)"/><path d="M61 57.5h42a3.5 3.5 0 013.5 3.5v42a3.5 3.5 0 01-3.5 3.5H61a3.5 3.5 0 01-3.5-3.5V61a3.5 3.5 0 013.5-3.5z" stroke="url(#paint4_lineartop-2_1:12)"/><path d="M4 57.5h42a3.5 3.5 0 013.5 3.5v42a3.5 3.5 0 01-3.5 3.5H4A3.5 3.5 0 01.5 103V61A3.5 3.5 0 014 57.5z" stroke="url(#paint5_lineartop-2_1:12)"/><path d="M175 .5h42a3.5 3.5 0 013.5 3.5v42a3.5 3.5 0 01-3.5 3.5h-42a3.5 3.5 0 01-3.5-3.5V4A3.5 3.5 0 01175 .5z" stroke="url(#paint6_lineartop-2_1:12)"/><path d="M118 .5h42a3.5 3.5 0 013.5 3.5v42a3.5 3.5 0 01-3.5 3.5h-42a3.5 3.5 0 01-3.5-3.5V4A3.5 3.5 0 01118 .5z" stroke="url(#paint7_lineartop-2_1:12)"/><path d="M61 .5h42a3.5 3.5 0 013.5 3.5v42a3.5 3.5 0 01-3.5 3.5H61a3.5 3.5 0 01-3.5-3.5V4A3.5 3.5 0 0161 .5z" stroke="url(#paint8_lineartop-2_1:12)"/><path d="M4 .5h42A3.5 3.5 0 0149.5 4v42a3.5 3.5 0 01-3.5 3.5H4A3.5 3.5 0 01.5 46V4A3.5 3.5 0 014 .5z" stroke="url(#paint9_lineartop-2_1:12)"/><defs><linearGradient id="paint0_lineartop-2_1:12" x1="-40.092" y1="-98.5" x2="342.908" y2="716" gradientUnits="userSpaceOnUse"><stop stop-color="#F7DE52"/><stop offset=".214" stop-color="#FCB5EF" stop-opacity=".38"/><stop offset=".389" stop-color="#FCB5EF" stop-opacity="0"/><stop offset=".637" stop-color="#FCB5EF" stop-opacity="0"/><stop offset=".799" stop-color="#FCB5EF" stop-opacity=".38"/><stop offset="1" stop-color="#F7DE52"/></linearGradient><linearGradient id="paint1_lineartop-2_1:12" x1="-40.092" y1="-98.5" x2="342.908" y2="716" gradientUnits="userSpaceOnUse"><stop stop-color="#F7DE52"/><stop offset=".214" stop-color="#FCB5EF" stop-opacity=".38"/><stop offset=".389" stop-color="#FCB5EF" stop-opacity="0"/><stop offset=".637" stop-color="#FCB5EF" stop-opacity="0"/><stop offset=".799" stop-color="#FCB5EF" stop-opacity=".38"/><stop offset="1" stop-color="#F7DE52"/></linearGradient><linearGradient id="paint2_lineartop-2_1:12" x1="-40.092" y1="-98.5" x2="342.908" y2="716" gradientUnits="userSpaceOnUse"><stop stop-color="#F7DE52"/><stop offset=".214" stop-color="#FCB5EF" stop-opacity=".38"/><stop offset=".389" stop-color="#FCB5EF" stop-opacity="0"/><stop offset=".637" stop-color="#FCB5EF" stop-opacity="0"/><stop offset=".799" stop-color="#FCB5EF" stop-opacity=".38"/><stop offset="1" stop-color="#F7DE52"/></linearGradient><linearGradient id="paint3_lineartop-2_1:12" x1="-40.092" y1="-98.5" x2="342.908" y2="716" gradientUnits="userSpaceOnUse"><stop stop-color="#F7DE52"/><stop offset=".214" stop-color="#FCB5EF" stop-opacity=".38"/><stop offset=".389" stop-color="#FCB5EF" stop-opacity="0"/><stop offset=".637" stop-color="#FCB5EF" stop-opacity="0"/><stop offset=".799" stop-color="#FCB5EF" stop-opacity=".38"/><stop offset="1" stop-color="#F7DE52"/></linearGradient><linearGradient id="paint4_lineartop-2_1:12" x1="-40.092" y1="-98.5" x2="342.908" y2="716" gradientUnits="userSpaceOnUse"><stop stop-color="#F7DE52"/><stop offset=".214" stop-color="#FCB5EF" stop-opacity=".38"/><stop offset=".389" stop-color="#FCB5EF" stop-opacity="0"/><stop offset=".637" stop-color="#FCB5EF" stop-opacity="0"/><stop offset=".799" stop-color="#FCB5EF" stop-opacity=".38"/><stop offset="1" stop-color="#F7DE52"/></linearGradient><linearGradient id="paint5_lineartop-2_1:12" x1="-40.092" y1="-98.5" x2="342.908" y2="716" gradientUnits="userSpaceOnUse"><stop stop-color="#F7DE52"/><stop offset=".214" stop-color="#FCB5EF" stop-opacity=".38"/><stop offset=".389" stop-color="#FCB5EF" stop-opacity="0"/><stop offset=".637" stop-color="#FCB5EF" stop-opacity="0"/><stop offset=".799" stop-color="#FCB5EF" stop-opacity=".38"/><stop offset="1" stop-color="#F7DE52"/></linearGradient><linearGradient id="paint6_lineartop-2_1:12" x1="-40.092" y1="-98.5" x2="342.908" y2="716" gradientUnits="userSpaceOnUse"><stop stop-color="#F7DE52"/><stop offset=".214" stop-color="#FCB5EF" stop-opacity=".38"/><stop offset=".389" stop-color="#FCB5EF" stop-opacity="0"/><stop offset=".637" stop-color="#FCB5EF" stop-opacity="0"/><stop offset=".799" stop-color="#FCB5EF" stop-opacity=".38"/><stop offset="1" stop-color="#F7DE52"/></linearGradient><linearGradient id="paint7_lineartop-2_1:12" x1="-40.092" y1="-98.5" x2="342.908" y2="716" gradientUnits="userSpaceOnUse"><stop stop-color="#F7DE52"/><stop offset=".214" stop-color="#FCB5EF" stop-opacity=".38"/><stop offset=".389" stop-color="#FCB5EF" stop-opacity="0"/><stop offset=".637" stop-color="#FCB5EF" stop-opacity="0"/><stop offset=".799" stop-color="#FCB5EF" stop-opacity=".38"/><stop offset="1" stop-color="#F7DE52"/></linearGradient><linearGradient id="paint8_lineartop-2_1:12" x1="-40.092" y1="-98.5" x2="342.908" y2="716" gradientUnits="userSpaceOnUse"><stop stop-color="#F7DE52"/><stop offset=".214" stop-color="#FCB5EF" stop-opacity=".38"/><stop offset=".389" stop-color="#FCB5EF" stop-opacity="0"/><stop offset=".637" stop-color="#FCB5EF" stop-opacity="0"/><stop offset=".799" stop-color="#FCB5EF" stop-opacity=".38"/><stop offset="1" stop-color="#F7DE52"/></linearGradient><linearGradient id="paint9_lineartop-2_1:12" x1="-40.092" y1="-98.5" x2="342.908" y2="716" gradientUnits="userSpaceOnUse"><stop stop-color="#F7DE52"/><stop offset=".214" stop-color="#FCB5EF" stop-opacity=".38"/><stop offset=".389" stop-color="#FCB5EF" stop-opacity="0"/><stop offset=".637" stop-color="#FCB5EF" stop-opacity="0"/><stop offset=".799" stop-color="#FCB5EF" stop-opacity=".38"/><stop offset="1" stop-color="#F7DE52"/></linearGradient></defs></svg>