<svg width="616" height="382" fill="none" xmlns="http://www.w3.org/2000/svg"><path d="M551.444 312.5h59.112a4.945 4.945 0 014.944 4.944v59.112a4.945 4.945 0 01-4.944 4.944h-59.112a4.945 4.945 0 01-4.944-4.944v-59.112a4.945 4.945 0 014.944-4.944z" stroke="url(#paint0tablet_linear_1)"/><path d="M473.444 312.5h59.112a4.945 4.945 0 014.944 4.944v59.112a4.945 4.945 0 01-4.944 4.944h-59.112a4.945 4.945 0 01-4.944-4.944v-59.112a4.945 4.945 0 014.944-4.944z" stroke="url(#paint1tablet_linear_1)"/><path d="M395.444 312.5h59.112a4.945 4.945 0 014.944 4.944v59.112a4.945 4.945 0 01-4.944 4.944h-59.112a4.945 4.945 0 01-4.944-4.944v-59.112a4.945 4.945 0 014.944-4.944z" stroke="url(#paint2tablet_linear_1)"/><path d="M317.444 312.5h59.112a4.945 4.945 0 014.944 4.944v59.112a4.945 4.945 0 01-4.944 4.944h-59.112a4.945 4.945 0 01-4.944-4.944v-59.112a4.945 4.945 0 014.944-4.944z" stroke="url(#paint3tablet_linear_1)"/><path d="M239.444 312.5h59.112a4.945 4.945 0 014.944 4.944v59.112a4.945 4.945 0 01-4.944 4.944h-59.112a4.945 4.945 0 01-4.944-4.944v-59.112a4.945 4.945 0 014.944-4.944z" stroke="url(#paint4tablet_linear_1)"/><path d="M161.444 312.5h59.112a4.945 4.945 0 014.944 4.944v59.112a4.945 4.945 0 01-4.944 4.944h-59.112a4.945 4.945 0 01-4.944-4.944v-59.112a4.945 4.945 0 014.944-4.944z" stroke="url(#paint5tablet_linear_1)"/><path d="M83.444 312.5h59.112a4.945 4.945 0 014.944 4.944v59.112a4.945 4.945 0 01-4.944 4.944H83.444a4.945 4.945 0 01-4.944-4.944v-59.112a4.945 4.945 0 014.944-4.944z" stroke="url(#paint6tablet_linear_1)"/><path d="M5.444 312.5h59.112a4.945 4.945 0 014.944 4.944v59.112a4.945 4.945 0 01-4.944 4.944H5.444A4.945 4.945 0 01.5 376.556v-59.112a4.945 4.945 0 014.944-4.944z" stroke="url(#paint7tablet_linear_1)"/><path d="M551.444 234.5h59.112a4.945 4.945 0 014.944 4.944v59.112a4.945 4.945 0 01-4.944 4.944h-59.112a4.945 4.945 0 01-4.944-4.944v-59.112a4.945 4.945 0 014.944-4.944z" stroke="url(#paint8tablet_linear_1)"/><path d="M473.444 234.5h59.112a4.945 4.945 0 014.944 4.944v59.112a4.945 4.945 0 01-4.944 4.944h-59.112a4.945 4.945 0 01-4.944-4.944v-59.112a4.945 4.945 0 014.944-4.944z" stroke="url(#paint9tablet_linear_1)"/><path d="M395.444 234.5h59.112a4.945 4.945 0 014.944 4.944v59.112a4.945 4.945 0 01-4.944 4.944h-59.112a4.945 4.945 0 01-4.944-4.944v-59.112a4.945 4.945 0 014.944-4.944z" stroke="url(#paint10tablet_linear_1)"/><path d="M317.444 234.5h59.112a4.945 4.945 0 014.944 4.944v59.112a4.945 4.945 0 01-4.944 4.944h-59.112a4.945 4.945 0 01-4.944-4.944v-59.112a4.945 4.945 0 014.944-4.944z" stroke="url(#paint11tablet_linear_1)"/><path d="M239.444 234.5h59.112a4.945 4.945 0 014.944 4.944v59.112a4.945 4.945 0 01-4.944 4.944h-59.112a4.945 4.945 0 01-4.944-4.944v-59.112a4.945 4.945 0 014.944-4.944z" stroke="url(#paint12tablet_linear_1)"/><path d="M551.444 156.5h59.112a4.945 4.945 0 014.944 4.944v59.112a4.945 4.945 0 01-4.944 4.944h-59.112a4.945 4.945 0 01-4.944-4.944v-59.112a4.945 4.945 0 014.944-4.944z" stroke="url(#paint13tablet_linear_1)"/><path d="M473.444 156.5h59.112a4.945 4.945 0 014.944 4.944v59.112a4.945 4.945 0 01-4.944 4.944h-59.112a4.945 4.945 0 01-4.944-4.944v-59.112a4.945 4.945 0 014.944-4.944z" stroke="url(#paint14tablet_linear_1)"/><path d="M395.444 156.5h59.112a4.945 4.945 0 014.944 4.944v59.112a4.945 4.945 0 01-4.944 4.944h-59.112a4.945 4.945 0 01-4.944-4.944v-59.112a4.945 4.945 0 014.944-4.944z" stroke="url(#paint15tablet_linear_1)"/><path d="M317.444 156.5h59.112a4.945 4.945 0 014.944 4.944v59.112a4.945 4.945 0 01-4.944 4.944h-59.112a4.945 4.945 0 01-4.944-4.944v-59.112a4.945 4.945 0 014.944-4.944z" stroke="url(#paint16tablet_linear_1)"/><path d="M239.444 156.5h59.112a4.945 4.945 0 014.944 4.944v59.112a4.945 4.945 0 01-4.944 4.944h-59.112a4.945 4.945 0 01-4.944-4.944v-59.112a4.945 4.945 0 014.944-4.944z" stroke="url(#paint17tablet_linear_1)"/><path d="M551.444 78.5h59.112a4.945 4.945 0 014.944 4.944v59.112a4.945 4.945 0 01-4.944 4.944h-59.112a4.945 4.945 0 01-4.944-4.944V83.444a4.945 4.945 0 014.944-4.944z" stroke="url(#paint18tablet_linear_1)"/><path d="M473.444 78.5h59.112a4.945 4.945 0 014.944 4.944v59.112a4.945 4.945 0 01-4.944 4.944h-59.112a4.945 4.945 0 01-4.944-4.944V83.444a4.945 4.945 0 014.944-4.944z" stroke="url(#paint19tablet_linear_1)"/><path d="M395.444 78.5h59.112a4.945 4.945 0 014.944 4.944v59.112a4.945 4.945 0 01-4.944 4.944h-59.112a4.945 4.945 0 01-4.944-4.944V83.444a4.945 4.945 0 014.944-4.944z" stroke="url(#paint20tablet_linear_1)"/><path d="M317.444 78.5h59.112a4.945 4.945 0 014.944 4.944v59.112a4.945 4.945 0 01-4.944 4.944h-59.112a4.945 4.945 0 01-4.944-4.944V83.444a4.945 4.945 0 014.944-4.944z" stroke="url(#paint21tablet_linear_1)"/><path d="M239.444 78.5h59.112a4.945 4.945 0 014.944 4.944v59.112a4.945 4.945 0 01-4.944 4.944h-59.112a4.945 4.945 0 01-4.944-4.944V83.444a4.945 4.945 0 014.944-4.944z" stroke="url(#paint22tablet_linear_1)"/><path d="M551.444.5h59.112a4.945 4.945 0 014.944 4.944v59.112a4.945 4.945 0 01-4.944 4.944h-59.112a4.945 4.945 0 01-4.944-4.944V5.444A4.945 4.945 0 01551.444.5z" stroke="url(#paint23tablet_linear_1)"/><path d="M473.444.5h59.112a4.945 4.945 0 014.944 4.944v59.112a4.945 4.945 0 01-4.944 4.944h-59.112a4.945 4.945 0 01-4.944-4.944V5.444A4.945 4.945 0 01473.444.5z" stroke="url(#paint24tablet_linear_1)"/><path d="M395.444.5h59.112a4.945 4.945 0 014.944 4.944v59.112a4.945 4.945 0 01-4.944 4.944h-59.112a4.945 4.945 0 01-4.944-4.944V5.444A4.945 4.945 0 01395.444.5z" stroke="url(#paint25tablet_linear_1)"/><path d="M317.444.5h59.112a4.945 4.945 0 014.944 4.944v59.112a4.945 4.945 0 01-4.944 4.944h-59.112a4.945 4.945 0 01-4.944-4.944V5.444A4.945 4.945 0 01317.444.5z" stroke="url(#paint26tablet_linear_1)"/><path d="M239.444.5h59.112a4.945 4.945 0 014.944 4.944v59.112a4.945 4.945 0 01-4.944 4.944h-59.112a4.945 4.945 0 01-4.944-4.944V5.444A4.945 4.945 0 01239.444.5z" stroke="url(#paint27tablet_linear_1)"/><path d="M161.444.5h59.112a4.945 4.945 0 014.944 4.944v59.112a4.945 4.945 0 01-4.944 4.944h-59.112a4.945 4.945 0 01-4.944-4.944V5.444A4.945 4.945 0 01161.444.5z" stroke="url(#paint28tablet_linear_1)"/><path d="M83.444.5h59.112a4.945 4.945 0 014.944 4.944v59.112a4.945 4.945 0 01-4.944 4.944H83.444a4.944 4.944 0 01-4.944-4.944V5.444A4.944 4.944 0 0183.444.5z" stroke="url(#paint29tablet_linear_1)"/><path d="M5.444.5h59.112A4.944 4.944 0 0169.5 5.444v59.112a4.944 4.944 0 01-4.944 4.944H5.444A4.944 4.944 0 01.5 64.556V5.444A4.944 4.944 0 015.444.5z" stroke="url(#paint30tablet_linear_1)"/><defs><linearGradient id="paint0tablet_linear_1" x1="-407.167" y1="147.111" x2="713.222" y2="147.111" gradientUnits="userSpaceOnUse"><stop offset=".368" stop-color="#FCB5EF" stop-opacity="0"/><stop offset=".819" stop-color="#FCB5EF"/><stop offset="1" stop-color="#F7DE52"/></linearGradient><linearGradient id="paint1tablet_linear_1" x1="-407.389" y1="147.111" x2="713" y2="147.111" gradientUnits="userSpaceOnUse"><stop offset=".368" stop-color="#FCB5EF" stop-opacity="0"/><stop offset=".819" stop-color="#FCB5EF"/><stop offset="1" stop-color="#F7DE52"/></linearGradient><linearGradient id="paint2tablet_linear_1" x1="-407.611" y1="147.111" x2="712.778" y2="147.111" gradientUnits="userSpaceOnUse"><stop offset=".368" stop-color="#FCB5EF" stop-opacity="0"/><stop offset=".819" stop-color="#FCB5EF"/><stop offset="1" stop-color="#F7DE52"/></linearGradient><linearGradient id="paint3tablet_linear_1" x1="-407.833" y1="147.111" x2="712.555" y2="147.111" gradientUnits="userSpaceOnUse"><stop offset=".368" stop-color="#FCB5EF" stop-opacity="0"/><stop offset=".819" stop-color="#FCB5EF"/><stop offset="1" stop-color="#F7DE52"/></linearGradient><linearGradient id="paint4tablet_linear_1" x1="-408.056" y1="147.111" x2="712.333" y2="147.111" gradientUnits="userSpaceOnUse"><stop offset=".368" stop-color="#FCB5EF" stop-opacity="0"/><stop offset=".819" stop-color="#FCB5EF"/><stop offset="1" stop-color="#F7DE52"/></linearGradient><linearGradient id="paint5tablet_linear_1" x1="-408.278" y1="147.111" x2="712.111" y2="147.111" gradientUnits="userSpaceOnUse"><stop offset=".368" stop-color="#FCB5EF" stop-opacity="0"/><stop offset=".819" stop-color="#FCB5EF"/><stop offset="1" stop-color="#F7DE52"/></linearGradient><linearGradient id="paint6tablet_linear_1" x1="-408.5" y1="147.111" x2="711.889" y2="147.111" gradientUnits="userSpaceOnUse"><stop offset=".368" stop-color="#FCB5EF" stop-opacity="0"/><stop offset=".819" stop-color="#FCB5EF"/><stop offset="1" stop-color="#F7DE52"/></linearGradient><linearGradient id="paint7tablet_linear_1" x1="-408.722" y1="147.111" x2="711.667" y2="147.111" gradientUnits="userSpaceOnUse"><stop offset=".368" stop-color="#FCB5EF" stop-opacity="0"/><stop offset=".819" stop-color="#FCB5EF"/><stop offset="1" stop-color="#F7DE52"/></linearGradient><linearGradient id="paint8tablet_linear_1" x1="-407.166" y1="146.889" x2="713.222" y2="146.889" gradientUnits="userSpaceOnUse"><stop offset=".368" stop-color="#FCB5EF" stop-opacity="0"/><stop offset=".819" stop-color="#FCB5EF"/><stop offset="1" stop-color="#F7DE52"/></linearGradient><linearGradient id="paint9tablet_linear_1" x1="-407.389" y1="146.889" x2="713" y2="146.889" gradientUnits="userSpaceOnUse"><stop offset=".368" stop-color="#FCB5EF" stop-opacity="0"/><stop offset=".819" stop-color="#FCB5EF"/><stop offset="1" stop-color="#F7DE52"/></linearGradient><linearGradient id="paint10tablet_linear_1" x1="-407.611" y1="146.889" x2="712.778" y2="146.889" gradientUnits="userSpaceOnUse"><stop offset=".368" stop-color="#FCB5EF" stop-opacity="0"/><stop offset=".819" stop-color="#FCB5EF"/><stop offset="1" stop-color="#F7DE52"/></linearGradient><linearGradient id="paint11tablet_linear_1" x1="-407.833" y1="146.889" x2="712.555" y2="146.889" gradientUnits="userSpaceOnUse"><stop offset=".368" stop-color="#FCB5EF" stop-opacity="0"/><stop offset=".819" stop-color="#FCB5EF"/><stop offset="1" stop-color="#F7DE52"/></linearGradient><linearGradient id="paint12tablet_linear_1" x1="-408.055" y1="146.889" x2="712.333" y2="146.889" gradientUnits="userSpaceOnUse"><stop offset=".368" stop-color="#FCB5EF" stop-opacity="0"/><stop offset=".819" stop-color="#FCB5EF"/><stop offset="1" stop-color="#F7DE52"/></linearGradient><linearGradient id="paint13tablet_linear_1" x1="-407.167" y1="146.667" x2="713.222" y2="146.667" gradientUnits="userSpaceOnUse"><stop offset=".368" stop-color="#FCB5EF" stop-opacity="0"/><stop offset=".819" stop-color="#FCB5EF"/><stop offset="1" stop-color="#F7DE52"/></linearGradient><linearGradient id="paint14tablet_linear_1" x1="-407.389" y1="146.667" x2="713" y2="146.667" gradientUnits="userSpaceOnUse"><stop offset=".368" stop-color="#FCB5EF" stop-opacity="0"/><stop offset=".819" stop-color="#FCB5EF"/><stop offset="1" stop-color="#F7DE52"/></linearGradient><linearGradient id="paint15tablet_linear_1" x1="-407.611" y1="146.667" x2="712.778" y2="146.667" gradientUnits="userSpaceOnUse"><stop offset=".368" stop-color="#FCB5EF" stop-opacity="0"/><stop offset=".819" stop-color="#FCB5EF"/><stop offset="1" stop-color="#F7DE52"/></linearGradient><linearGradient id="paint16tablet_linear_1" x1="-407.833" y1="146.667" x2="712.555" y2="146.667" gradientUnits="userSpaceOnUse"><stop offset=".368" stop-color="#FCB5EF" stop-opacity="0"/><stop offset=".819" stop-color="#FCB5EF"/><stop offset="1" stop-color="#F7DE52"/></linearGradient><linearGradient id="paint17tablet_linear_1" x1="-408.055" y1="146.667" x2="712.333" y2="146.667" gradientUnits="userSpaceOnUse"><stop offset=".368" stop-color="#FCB5EF" stop-opacity="0"/><stop offset=".819" stop-color="#FCB5EF"/><stop offset="1" stop-color="#F7DE52"/></linearGradient><linearGradient id="paint18tablet_linear_1" x1="-407.167" y1="146.444" x2="713.222" y2="146.445" gradientUnits="userSpaceOnUse"><stop offset=".368" stop-color="#FCB5EF" stop-opacity="0"/><stop offset=".819" stop-color="#FCB5EF"/><stop offset="1" stop-color="#F7DE52"/></linearGradient><linearGradient id="paint19tablet_linear_1" x1="-407.389" y1="146.444" x2="713" y2="146.445" gradientUnits="userSpaceOnUse"><stop offset=".368" stop-color="#FCB5EF" stop-opacity="0"/><stop offset=".819" stop-color="#FCB5EF"/><stop offset="1" stop-color="#F7DE52"/></linearGradient><linearGradient id="paint20tablet_linear_1" x1="-407.611" y1="146.444" x2="712.778" y2="146.445" gradientUnits="userSpaceOnUse"><stop offset=".368" stop-color="#FCB5EF" stop-opacity="0"/><stop offset=".819" stop-color="#FCB5EF"/><stop offset="1" stop-color="#F7DE52"/></linearGradient><linearGradient id="paint21tablet_linear_1" x1="-407.833" y1="146.444" x2="712.555" y2="146.445" gradientUnits="userSpaceOnUse"><stop offset=".368" stop-color="#FCB5EF" stop-opacity="0"/><stop offset=".819" stop-color="#FCB5EF"/><stop offset="1" stop-color="#F7DE52"/></linearGradient><linearGradient id="paint22tablet_linear_1" x1="-408.055" y1="146.444" x2="712.333" y2="146.445" gradientUnits="userSpaceOnUse"><stop offset=".368" stop-color="#FCB5EF" stop-opacity="0"/><stop offset=".819" stop-color="#FCB5EF"/><stop offset="1" stop-color="#F7DE52"/></linearGradient><linearGradient id="paint23tablet_linear_1" x1="-407.167" y1="146.222" x2="713.222" y2="146.222" gradientUnits="userSpaceOnUse"><stop offset=".368" stop-color="#FCB5EF" stop-opacity="0"/><stop offset=".819" stop-color="#FCB5EF"/><stop offset="1" stop-color="#F7DE52"/></linearGradient><linearGradient id="paint24tablet_linear_1" x1="-407.389" y1="146.222" x2="713" y2="146.222" gradientUnits="userSpaceOnUse"><stop offset=".368" stop-color="#FCB5EF" stop-opacity="0"/><stop offset=".819" stop-color="#FCB5EF"/><stop offset="1" stop-color="#F7DE52"/></linearGradient><linearGradient id="paint25tablet_linear_1" x1="-407.611" y1="146.222" x2="712.778" y2="146.222" gradientUnits="userSpaceOnUse"><stop offset=".368" stop-color="#FCB5EF" stop-opacity="0"/><stop offset=".819" stop-color="#FCB5EF"/><stop offset="1" stop-color="#F7DE52"/></linearGradient><linearGradient id="paint26tablet_linear_1" x1="-407.833" y1="146.222" x2="712.555" y2="146.222" gradientUnits="userSpaceOnUse"><stop offset=".368" stop-color="#FCB5EF" stop-opacity="0"/><stop offset=".819" stop-color="#FCB5EF"/><stop offset="1" stop-color="#F7DE52"/></linearGradient><linearGradient id="paint27tablet_linear_1" x1="-408.056" y1="146.222" x2="712.333" y2="146.222" gradientUnits="userSpaceOnUse"><stop offset=".368" stop-color="#FCB5EF" stop-opacity="0"/><stop offset=".819" stop-color="#FCB5EF"/><stop offset="1" stop-color="#F7DE52"/></linearGradient><linearGradient id="paint28tablet_linear_1" x1="-408.278" y1="146.222" x2="712.111" y2="146.222" gradientUnits="userSpaceOnUse"><stop offset=".368" stop-color="#FCB5EF" stop-opacity="0"/><stop offset=".819" stop-color="#FCB5EF"/><stop offset="1" stop-color="#F7DE52"/></linearGradient><linearGradient id="paint29tablet_linear_1" x1="-408.5" y1="146.222" x2="711.889" y2="146.222" gradientUnits="userSpaceOnUse"><stop offset=".368" stop-color="#FCB5EF" stop-opacity="0"/><stop offset=".819" stop-color="#FCB5EF"/><stop offset="1" stop-color="#F7DE52"/></linearGradient><linearGradient id="paint30tablet_linear_1" x1="-408.722" y1="146.222" x2="711.667" y2="146.222" gradientUnits="userSpaceOnUse"><stop offset=".368" stop-color="#FCB5EF" stop-opacity="0"/><stop offset=".819" stop-color="#FCB5EF"/><stop offset="1" stop-color="#F7DE52"/></linearGradient></defs></svg>