<svg width="790" height="490" fill="none" xmlns="http://www.w3.org/2000/svg"><path d="M700.5 407a6.5 6.5 0 016.5-6.5h76a6.5 6.5 0 016.5 6.5v76a6.5 6.5 0 01-6.5 6.5h-76a6.5 6.5 0 01-6.5-6.5v-76z" stroke="url(#paint0_linear)"/><path d="M600.5 407a6.5 6.5 0 016.5-6.5h76a6.5 6.5 0 016.5 6.5v76a6.5 6.5 0 01-6.5 6.5h-76a6.5 6.5 0 01-6.5-6.5v-76z" stroke="url(#paint1_linear)"/><path d="M500.5 407a6.5 6.5 0 016.5-6.5h76a6.5 6.5 0 016.5 6.5v76a6.5 6.5 0 01-6.5 6.5h-76a6.5 6.5 0 01-6.5-6.5v-76z" stroke="url(#paint2_linear)"/><path d="M400.5 407a6.5 6.5 0 016.5-6.5h76a6.5 6.5 0 016.5 6.5v76a6.5 6.5 0 01-6.5 6.5h-76a6.5 6.5 0 01-6.5-6.5v-76z" stroke="url(#paint3_linear)"/><path d="M300.5 407a6.5 6.5 0 016.5-6.5h76a6.5 6.5 0 016.5 6.5v76a6.5 6.5 0 01-6.5 6.5h-76a6.5 6.5 0 01-6.5-6.5v-76z" stroke="url(#paint4_linear)"/><path d="M200.5 407a6.5 6.5 0 016.5-6.5h76a6.5 6.5 0 016.5 6.5v76a6.5 6.5 0 01-6.5 6.5h-76a6.5 6.5 0 01-6.5-6.5v-76z" stroke="url(#paint5_linear)"/><path d="M100.5 407a6.5 6.5 0 016.5-6.5h76a6.5 6.5 0 016.5 6.5v76a6.5 6.5 0 01-6.5 6.5h-76a6.5 6.5 0 01-6.5-6.5v-76z" stroke="url(#paint6_linear)"/><path d="M.5 407a6.5 6.5 0 016.5-6.5h76a6.5 6.5 0 016.5 6.5v76a6.5 6.5 0 01-6.5 6.5H7A6.5 6.5 0 01.5 483v-76z" stroke="url(#paint7_linear)"/><path d="M700.5 307a6.5 6.5 0 016.5-6.5h76a6.5 6.5 0 016.5 6.5v76a6.5 6.5 0 01-6.5 6.5h-76a6.5 6.5 0 01-6.5-6.5v-76z" stroke="url(#paint8_linear)"/><path d="M600.5 307a6.5 6.5 0 016.5-6.5h76a6.5 6.5 0 016.5 6.5v76a6.5 6.5 0 01-6.5 6.5h-76a6.5 6.5 0 01-6.5-6.5v-76z" stroke="url(#paint9_linear)"/><path d="M500.5 307a6.5 6.5 0 016.5-6.5h76a6.5 6.5 0 016.5 6.5v76a6.5 6.5 0 01-6.5 6.5h-76a6.5 6.5 0 01-6.5-6.5v-76z" stroke="url(#paint10_linear)"/><path d="M400.5 307a6.5 6.5 0 016.5-6.5h76a6.5 6.5 0 016.5 6.5v76a6.5 6.5 0 01-6.5 6.5h-76a6.5 6.5 0 01-6.5-6.5v-76z" stroke="url(#paint11_linear)"/><path d="M300.5 307a6.5 6.5 0 016.5-6.5h76a6.5 6.5 0 016.5 6.5v76a6.5 6.5 0 01-6.5 6.5h-76a6.5 6.5 0 01-6.5-6.5v-76z" stroke="url(#paint12_linear)"/><path d="M700.5 207a6.5 6.5 0 016.5-6.5h76a6.5 6.5 0 016.5 6.5v76a6.5 6.5 0 01-6.5 6.5h-76a6.5 6.5 0 01-6.5-6.5v-76z" stroke="url(#paint13_linear)"/><path d="M600.5 207a6.5 6.5 0 016.5-6.5h76a6.5 6.5 0 016.5 6.5v76a6.5 6.5 0 01-6.5 6.5h-76a6.5 6.5 0 01-6.5-6.5v-76z" stroke="url(#paint14_linear)"/><path d="M500.5 207a6.5 6.5 0 016.5-6.5h76a6.5 6.5 0 016.5 6.5v76a6.5 6.5 0 01-6.5 6.5h-76a6.5 6.5 0 01-6.5-6.5v-76z" stroke="url(#paint15_linear)"/><path d="M400.5 207a6.5 6.5 0 016.5-6.5h76a6.5 6.5 0 016.5 6.5v76a6.5 6.5 0 01-6.5 6.5h-76a6.5 6.5 0 01-6.5-6.5v-76z" stroke="url(#paint16_linear)"/><path d="M300.5 207a6.5 6.5 0 016.5-6.5h76a6.5 6.5 0 016.5 6.5v76a6.5 6.5 0 01-6.5 6.5h-76a6.5 6.5 0 01-6.5-6.5v-76z" stroke="url(#paint17_linear)"/><path d="M700.5 107a6.5 6.5 0 016.5-6.5h76a6.5 6.5 0 016.5 6.5v76a6.5 6.5 0 01-6.5 6.5h-76a6.5 6.5 0 01-6.5-6.5v-76z" stroke="url(#paint18_linear)"/><path d="M600.5 107a6.5 6.5 0 016.5-6.5h76a6.5 6.5 0 016.5 6.5v76a6.5 6.5 0 01-6.5 6.5h-76a6.5 6.5 0 01-6.5-6.5v-76z" stroke="url(#paint19_linear)"/><path d="M500.5 107a6.5 6.5 0 016.5-6.5h76a6.5 6.5 0 016.5 6.5v76a6.5 6.5 0 01-6.5 6.5h-76a6.5 6.5 0 01-6.5-6.5v-76z" stroke="url(#paint20_linear)"/><path d="M400.5 107a6.5 6.5 0 016.5-6.5h76a6.5 6.5 0 016.5 6.5v76a6.5 6.5 0 01-6.5 6.5h-76a6.5 6.5 0 01-6.5-6.5v-76z" stroke="url(#paint21_linear)"/><path d="M300.5 107a6.5 6.5 0 016.5-6.5h76a6.5 6.5 0 016.5 6.5v76a6.5 6.5 0 01-6.5 6.5h-76a6.5 6.5 0 01-6.5-6.5v-76z" stroke="url(#paint22_linear)"/><path d="M700.5 7A6.5 6.5 0 01707 .5h76a6.5 6.5 0 016.5 6.5v76a6.5 6.5 0 01-6.5 6.5h-76a6.5 6.5 0 01-6.5-6.5V7z" stroke="url(#paint23_linear)"/><path d="M600.5 7A6.5 6.5 0 01607 .5h76a6.5 6.5 0 016.5 6.5v76a6.5 6.5 0 01-6.5 6.5h-76a6.5 6.5 0 01-6.5-6.5V7z" stroke="url(#paint24_linear)"/><path d="M500.5 7A6.5 6.5 0 01507 .5h76a6.5 6.5 0 016.5 6.5v76a6.5 6.5 0 01-6.5 6.5h-76a6.5 6.5 0 01-6.5-6.5V7z" stroke="url(#paint25_linear)"/><path d="M400.5 7A6.5 6.5 0 01407 .5h76a6.5 6.5 0 016.5 6.5v76a6.5 6.5 0 01-6.5 6.5h-76a6.5 6.5 0 01-6.5-6.5V7z" stroke="url(#paint26_linear)"/><path d="M300.5 7A6.5 6.5 0 01307 .5h76a6.5 6.5 0 016.5 6.5v76a6.5 6.5 0 01-6.5 6.5h-76a6.5 6.5 0 01-6.5-6.5V7z" stroke="url(#paint27_linear)"/><path d="M200.5 7A6.5 6.5 0 01207 .5h76a6.5 6.5 0 016.5 6.5v76a6.5 6.5 0 01-6.5 6.5h-76a6.5 6.5 0 01-6.5-6.5V7z" stroke="url(#paint28_linear)"/><path d="M100.5 7A6.5 6.5 0 01107 .5h76a6.5 6.5 0 016.5 6.5v76a6.5 6.5 0 01-6.5 6.5h-76a6.5 6.5 0 01-6.5-6.5V7z" stroke="url(#paint29_linear)"/><path d="M.5 7A6.5 6.5 0 017 .5h76A6.5 6.5 0 0189.5 7v76a6.5 6.5 0 01-6.5 6.5H7A6.5 6.5 0 01.5 83V7z" stroke="url(#paint30_linear)"/><defs><linearGradient id="paint0_linear" x1="-525.5" y1="188" x2="915" y2="188" gradientUnits="userSpaceOnUse"><stop offset=".368" stop-color="#FCB5EF" stop-opacity="0"/><stop offset=".819" stop-color="#FCB5EF"/><stop offset="1" stop-color="#F7DE52"/></linearGradient><linearGradient id="paint1_linear" x1="-525.5" y1="188" x2="915" y2="188" gradientUnits="userSpaceOnUse"><stop offset=".368" stop-color="#FCB5EF" stop-opacity="0"/><stop offset=".819" stop-color="#FCB5EF"/><stop offset="1" stop-color="#F7DE52"/></linearGradient><linearGradient id="paint2_linear" x1="-525.5" y1="188" x2="915" y2="188" gradientUnits="userSpaceOnUse"><stop offset=".368" stop-color="#FCB5EF" stop-opacity="0"/><stop offset=".819" stop-color="#FCB5EF"/><stop offset="1" stop-color="#F7DE52"/></linearGradient><linearGradient id="paint3_linear" x1="-525.5" y1="188" x2="915" y2="188" gradientUnits="userSpaceOnUse"><stop offset=".368" stop-color="#FCB5EF" stop-opacity="0"/><stop offset=".819" stop-color="#FCB5EF"/><stop offset="1" stop-color="#F7DE52"/></linearGradient><linearGradient id="paint4_linear" x1="-525.5" y1="188" x2="915" y2="188" gradientUnits="userSpaceOnUse"><stop offset=".368" stop-color="#FCB5EF" stop-opacity="0"/><stop offset=".819" stop-color="#FCB5EF"/><stop offset="1" stop-color="#F7DE52"/></linearGradient><linearGradient id="paint5_linear" x1="-525.5" y1="188" x2="915" y2="188" gradientUnits="userSpaceOnUse"><stop offset=".368" stop-color="#FCB5EF" stop-opacity="0"/><stop offset=".819" stop-color="#FCB5EF"/><stop offset="1" stop-color="#F7DE52"/></linearGradient><linearGradient id="paint6_linear" x1="-525.5" y1="188" x2="915" y2="188" gradientUnits="userSpaceOnUse"><stop offset=".368" stop-color="#FCB5EF" stop-opacity="0"/><stop offset=".819" stop-color="#FCB5EF"/><stop offset="1" stop-color="#F7DE52"/></linearGradient><linearGradient id="paint7_linear" x1="-525.5" y1="188" x2="915" y2="188" gradientUnits="userSpaceOnUse"><stop offset=".368" stop-color="#FCB5EF" stop-opacity="0"/><stop offset=".819" stop-color="#FCB5EF"/><stop offset="1" stop-color="#F7DE52"/></linearGradient><linearGradient id="paint8_linear" x1="-525.5" y1="188" x2="915" y2="188" gradientUnits="userSpaceOnUse"><stop offset=".368" stop-color="#FCB5EF" stop-opacity="0"/><stop offset=".819" stop-color="#FCB5EF"/><stop offset="1" stop-color="#F7DE52"/></linearGradient><linearGradient id="paint9_linear" x1="-525.5" y1="188" x2="915" y2="188" gradientUnits="userSpaceOnUse"><stop offset=".368" stop-color="#FCB5EF" stop-opacity="0"/><stop offset=".819" stop-color="#FCB5EF"/><stop offset="1" stop-color="#F7DE52"/></linearGradient><linearGradient id="paint10_linear" x1="-525.5" y1="188" x2="915" y2="188" gradientUnits="userSpaceOnUse"><stop offset=".368" stop-color="#FCB5EF" stop-opacity="0"/><stop offset=".819" stop-color="#FCB5EF"/><stop offset="1" stop-color="#F7DE52"/></linearGradient><linearGradient id="paint11_linear" x1="-525.5" y1="188" x2="915" y2="188" gradientUnits="userSpaceOnUse"><stop offset=".368" stop-color="#FCB5EF" stop-opacity="0"/><stop offset=".819" stop-color="#FCB5EF"/><stop offset="1" stop-color="#F7DE52"/></linearGradient><linearGradient id="paint12_linear" x1="-525.5" y1="188" x2="915" y2="188" gradientUnits="userSpaceOnUse"><stop offset=".368" stop-color="#FCB5EF" stop-opacity="0"/><stop offset=".819" stop-color="#FCB5EF"/><stop offset="1" stop-color="#F7DE52"/></linearGradient><linearGradient id="paint13_linear" x1="-525.5" y1="188" x2="915" y2="188" gradientUnits="userSpaceOnUse"><stop offset=".368" stop-color="#FCB5EF" stop-opacity="0"/><stop offset=".819" stop-color="#FCB5EF"/><stop offset="1" stop-color="#F7DE52"/></linearGradient><linearGradient id="paint14_linear" x1="-525.5" y1="188" x2="915" y2="188" gradientUnits="userSpaceOnUse"><stop offset=".368" stop-color="#FCB5EF" stop-opacity="0"/><stop offset=".819" stop-color="#FCB5EF"/><stop offset="1" stop-color="#F7DE52"/></linearGradient><linearGradient id="paint15_linear" x1="-525.5" y1="188" x2="915" y2="188" gradientUnits="userSpaceOnUse"><stop offset=".368" stop-color="#FCB5EF" stop-opacity="0"/><stop offset=".819" stop-color="#FCB5EF"/><stop offset="1" stop-color="#F7DE52"/></linearGradient><linearGradient id="paint16_linear" x1="-525.5" y1="188" x2="915" y2="188" gradientUnits="userSpaceOnUse"><stop offset=".368" stop-color="#FCB5EF" stop-opacity="0"/><stop offset=".819" stop-color="#FCB5EF"/><stop offset="1" stop-color="#F7DE52"/></linearGradient><linearGradient id="paint17_linear" x1="-525.5" y1="188" x2="915" y2="188" gradientUnits="userSpaceOnUse"><stop offset=".368" stop-color="#FCB5EF" stop-opacity="0"/><stop offset=".819" stop-color="#FCB5EF"/><stop offset="1" stop-color="#F7DE52"/></linearGradient><linearGradient id="paint18_linear" x1="-525.5" y1="188" x2="915" y2="188" gradientUnits="userSpaceOnUse"><stop offset=".368" stop-color="#FCB5EF" stop-opacity="0"/><stop offset=".819" stop-color="#FCB5EF"/><stop offset="1" stop-color="#F7DE52"/></linearGradient><linearGradient id="paint19_linear" x1="-525.5" y1="188" x2="915" y2="188" gradientUnits="userSpaceOnUse"><stop offset=".368" stop-color="#FCB5EF" stop-opacity="0"/><stop offset=".819" stop-color="#FCB5EF"/><stop offset="1" stop-color="#F7DE52"/></linearGradient><linearGradient id="paint20_linear" x1="-525.5" y1="188" x2="915" y2="188" gradientUnits="userSpaceOnUse"><stop offset=".368" stop-color="#FCB5EF" stop-opacity="0"/><stop offset=".819" stop-color="#FCB5EF"/><stop offset="1" stop-color="#F7DE52"/></linearGradient><linearGradient id="paint21_linear" x1="-525.5" y1="188" x2="915" y2="188" gradientUnits="userSpaceOnUse"><stop offset=".368" stop-color="#FCB5EF" stop-opacity="0"/><stop offset=".819" stop-color="#FCB5EF"/><stop offset="1" stop-color="#F7DE52"/></linearGradient><linearGradient id="paint22_linear" x1="-525.5" y1="188" x2="915" y2="188" gradientUnits="userSpaceOnUse"><stop offset=".368" stop-color="#FCB5EF" stop-opacity="0"/><stop offset=".819" stop-color="#FCB5EF"/><stop offset="1" stop-color="#F7DE52"/></linearGradient><linearGradient id="paint23_linear" x1="-525.5" y1="188" x2="915" y2="188" gradientUnits="userSpaceOnUse"><stop offset=".368" stop-color="#FCB5EF" stop-opacity="0"/><stop offset=".819" stop-color="#FCB5EF"/><stop offset="1" stop-color="#F7DE52"/></linearGradient><linearGradient id="paint24_linear" x1="-525.5" y1="188" x2="915" y2="188" gradientUnits="userSpaceOnUse"><stop offset=".368" stop-color="#FCB5EF" stop-opacity="0"/><stop offset=".819" stop-color="#FCB5EF"/><stop offset="1" stop-color="#F7DE52"/></linearGradient><linearGradient id="paint25_linear" x1="-525.5" y1="188" x2="915" y2="188" gradientUnits="userSpaceOnUse"><stop offset=".368" stop-color="#FCB5EF" stop-opacity="0"/><stop offset=".819" stop-color="#FCB5EF"/><stop offset="1" stop-color="#F7DE52"/></linearGradient><linearGradient id="paint26_linear" x1="-525.5" y1="188" x2="915" y2="188" gradientUnits="userSpaceOnUse"><stop offset=".368" stop-color="#FCB5EF" stop-opacity="0"/><stop offset=".819" stop-color="#FCB5EF"/><stop offset="1" stop-color="#F7DE52"/></linearGradient><linearGradient id="paint27_linear" x1="-525.5" y1="188" x2="915" y2="188" gradientUnits="userSpaceOnUse"><stop offset=".368" stop-color="#FCB5EF" stop-opacity="0"/><stop offset=".819" stop-color="#FCB5EF"/><stop offset="1" stop-color="#F7DE52"/></linearGradient><linearGradient id="paint28_linear" x1="-525.5" y1="188" x2="915" y2="188" gradientUnits="userSpaceOnUse"><stop offset=".368" stop-color="#FCB5EF" stop-opacity="0"/><stop offset=".819" stop-color="#FCB5EF"/><stop offset="1" stop-color="#F7DE52"/></linearGradient><linearGradient id="paint29_linear" x1="-525.5" y1="188" x2="915" y2="188" gradientUnits="userSpaceOnUse"><stop offset=".368" stop-color="#FCB5EF" stop-opacity="0"/><stop offset=".819" stop-color="#FCB5EF"/><stop offset="1" stop-color="#F7DE52"/></linearGradient><linearGradient id="paint30_linear" x1="-525.5" y1="188" x2="915" y2="188" gradientUnits="userSpaceOnUse"><stop offset=".368" stop-color="#FCB5EF" stop-opacity="0"/><stop offset=".819" stop-color="#FCB5EF"/><stop offset="1" stop-color="#F7DE52"/></linearGradient></defs></svg>