<svg preserveAspectRatio="xMinYMin meet" width="419" height="419" fill="none" xmlns="http://www.w3.org/2000/svg"><path d="M7.6 325h79.8a6.6 6.6 0 016.6 6.6v79.8a6.6 6.6 0 01-6.6 6.6H7.6a6.6 6.6 0 01-6.6-6.6v-79.8a6.6 6.6 0 016.6-6.6z" stroke="url(#paint0_linear-top_1-banner-top-1)" stroke-width="2"/><path d="M115.6 217h79.8a6.6 6.6 0 016.6 6.6v79.8a6.6 6.6 0 01-6.6 6.6h-79.8a6.6 6.6 0 01-6.6-6.6v-79.8a6.6 6.6 0 016.6-6.6z" stroke="url(#paint1_linear-top_1-banner-top-1)" stroke-width="2"/><path d="M7.6 217h79.8a6.6 6.6 0 016.6 6.6v79.8a6.6 6.6 0 01-6.6 6.6H7.6a6.6 6.6 0 01-6.6-6.6v-79.8a6.6 6.6 0 016.6-6.6z" stroke="url(#paint2_linear-top_1-banner-top-1)" stroke-width="2"/><path d="M223.6 109h79.8a6.6 6.6 0 016.6 6.6v79.8a6.6 6.6 0 01-6.6 6.6h-79.8a6.6 6.6 0 01-6.6-6.6v-79.8a6.6 6.6 0 016.6-6.6z" stroke="url(#paint3_linear-top_1-banner-top-1)" stroke-width="2"/><path d="M115.6 109h79.8a6.6 6.6 0 016.6 6.6v79.8a6.6 6.6 0 01-6.6 6.6h-79.8a6.6 6.6 0 01-6.6-6.6v-79.8a6.6 6.6 0 016.6-6.6z" stroke="url(#paint4_linear-top_1-banner-top-1)" stroke-width="2"/><path d="M7.6 109h79.8a6.6 6.6 0 016.6 6.6v79.8a6.6 6.6 0 01-6.6 6.6H7.6a6.6 6.6 0 01-6.6-6.6v-79.8a6.6 6.6 0 016.6-6.6z" stroke="url(#paint5_linear-top_1-banner-top-1)" stroke-width="2"/><path d="M331.6 1h79.8a6.6 6.6 0 016.6 6.6v79.8a6.6 6.6 0 01-6.6 6.6h-79.8a6.6 6.6 0 01-6.6-6.6V7.6a6.6 6.6 0 016.6-6.6z" stroke="url(#paint6_linear-top_1-banner-top-1)" stroke-width="2"/><path d="M223.6 1h79.8a6.6 6.6 0 016.6 6.6v79.8a6.6 6.6 0 01-6.6 6.6h-79.8a6.6 6.6 0 01-6.6-6.6V7.6a6.6 6.6 0 016.6-6.6z" stroke="url(#paint7_linear-top_1-banner-top-1)" stroke-width="2"/><path d="M115.6 1h79.8a6.6 6.6 0 016.6 6.6v79.8a6.6 6.6 0 01-6.6 6.6h-79.8a6.6 6.6 0 01-6.6-6.6V7.6a6.6 6.6 0 016.6-6.6z" stroke="url(#paint8_linear-top_1-banner-top-1)" stroke-width="2"/><path d="M7.6 1h79.8A6.6 6.6 0 0194 7.6v79.8a6.6 6.6 0 01-6.6 6.6H7.6A6.6 6.6 0 011 87.4V7.6A6.6 6.6 0 017.6 1z" stroke="url(#paint9_linear-top_1-banner-top-1)" stroke-width="2"/><defs><linearGradient id="paint0_linear-top_1-banner-top-1" x1="-76.174" y1="-188.05" x2="651.526" y2="1359.5" gradientUnits="userSpaceOnUse"><stop stop-color="#F7DE52"/><stop offset=".214" stop-color="#FCB5EF" stop-opacity=".38"/><stop offset=".389" stop-color="#FCB5EF" stop-opacity="0"/><stop offset=".637" stop-color="#FCB5EF" stop-opacity="0"/><stop offset=".799" stop-color="#FCB5EF" stop-opacity=".38"/><stop offset="1" stop-color="#F7DE52"/></linearGradient><linearGradient id="paint1_linear-top_1-banner-top-1" x1="-76.474" y1="-187.75" x2="651.226" y2="1359.8" gradientUnits="userSpaceOnUse"><stop stop-color="#F7DE52"/><stop offset=".214" stop-color="#FCB5EF" stop-opacity=".38"/><stop offset=".389" stop-color="#FCB5EF" stop-opacity="0"/><stop offset=".637" stop-color="#FCB5EF" stop-opacity="0"/><stop offset=".799" stop-color="#FCB5EF" stop-opacity=".38"/><stop offset="1" stop-color="#F7DE52"/></linearGradient><linearGradient id="paint2_linear-top_1-banner-top-1" x1="-76.174" y1="-187.75" x2="651.526" y2="1359.8" gradientUnits="userSpaceOnUse"><stop stop-color="#F7DE52"/><stop offset=".214" stop-color="#FCB5EF" stop-opacity=".38"/><stop offset=".389" stop-color="#FCB5EF" stop-opacity="0"/><stop offset=".637" stop-color="#FCB5EF" stop-opacity="0"/><stop offset=".799" stop-color="#FCB5EF" stop-opacity=".38"/><stop offset="1" stop-color="#F7DE52"/></linearGradient><linearGradient id="paint3_linear-top_1-banner-top-1" x1="-76.774" y1="-187.45" x2="650.926" y2="1360.1" gradientUnits="userSpaceOnUse"><stop stop-color="#F7DE52"/><stop offset=".214" stop-color="#FCB5EF" stop-opacity=".38"/><stop offset=".389" stop-color="#FCB5EF" stop-opacity="0"/><stop offset=".637" stop-color="#FCB5EF" stop-opacity="0"/><stop offset=".799" stop-color="#FCB5EF" stop-opacity=".38"/><stop offset="1" stop-color="#F7DE52"/></linearGradient><linearGradient id="paint4_linear-top_1-banner-top-1" x1="-76.474" y1="-187.45" x2="651.226" y2="1360.1" gradientUnits="userSpaceOnUse"><stop stop-color="#F7DE52"/><stop offset=".214" stop-color="#FCB5EF" stop-opacity=".38"/><stop offset=".389" stop-color="#FCB5EF" stop-opacity="0"/><stop offset=".637" stop-color="#FCB5EF" stop-opacity="0"/><stop offset=".799" stop-color="#FCB5EF" stop-opacity=".38"/><stop offset="1" stop-color="#F7DE52"/></linearGradient><linearGradient id="paint5_linear-top_1-banner-top-1" x1="-76.174" y1="-187.45" x2="651.526" y2="1360.1" gradientUnits="userSpaceOnUse"><stop stop-color="#F7DE52"/><stop offset=".214" stop-color="#FCB5EF" stop-opacity=".38"/><stop offset=".389" stop-color="#FCB5EF" stop-opacity="0"/><stop offset=".637" stop-color="#FCB5EF" stop-opacity="0"/><stop offset=".799" stop-color="#FCB5EF" stop-opacity=".38"/><stop offset="1" stop-color="#F7DE52"/></linearGradient><linearGradient id="paint6_linear-top_1-banner-top-1" x1="-77.074" y1="-187.15" x2="650.626" y2="1360.4" gradientUnits="userSpaceOnUse"><stop stop-color="#F7DE52"/><stop offset=".214" stop-color="#FCB5EF" stop-opacity=".38"/><stop offset=".389" stop-color="#FCB5EF" stop-opacity="0"/><stop offset=".637" stop-color="#FCB5EF" stop-opacity="0"/><stop offset=".799" stop-color="#FCB5EF" stop-opacity=".38"/><stop offset="1" stop-color="#F7DE52"/></linearGradient><linearGradient id="paint7_linear-top_1-banner-top-1" x1="-76.774" y1="-187.15" x2="650.926" y2="1360.4" gradientUnits="userSpaceOnUse"><stop stop-color="#F7DE52"/><stop offset=".214" stop-color="#FCB5EF" stop-opacity=".38"/><stop offset=".389" stop-color="#FCB5EF" stop-opacity="0"/><stop offset=".637" stop-color="#FCB5EF" stop-opacity="0"/><stop offset=".799" stop-color="#FCB5EF" stop-opacity=".38"/><stop offset="1" stop-color="#F7DE52"/></linearGradient><linearGradient id="paint8_linear-top_1-banner-top-1" x1="-76.474" y1="-187.15" x2="651.226" y2="1360.4" gradientUnits="userSpaceOnUse"><stop stop-color="#F7DE52"/><stop offset=".214" stop-color="#FCB5EF" stop-opacity=".38"/><stop offset=".389" stop-color="#FCB5EF" stop-opacity="0"/><stop offset=".637" stop-color="#FCB5EF" stop-opacity="0"/><stop offset=".799" stop-color="#FCB5EF" stop-opacity=".38"/><stop offset="1" stop-color="#F7DE52"/></linearGradient><linearGradient id="paint9_linear-top_1-banner-top-1" x1="-76.174" y1="-187.15" x2="651.526" y2="1360.4" gradientUnits="userSpaceOnUse"><stop stop-color="#F7DE52"/><stop offset=".214" stop-color="#FCB5EF" stop-opacity=".38"/><stop offset=".389" stop-color="#FCB5EF" stop-opacity="0"/><stop offset=".637" stop-color="#FCB5EF" stop-opacity="0"/><stop offset=".799" stop-color="#FCB5EF" stop-opacity=".38"/><stop offset="1" stop-color="#F7DE52"/></linearGradient></defs></svg>