<svg preserveAspectRatio="xMinYMin meet" width="527" height="527" fill="none" xmlns="http://www.w3.org/2000/svg"><path d="M223.6 433h79.8a6.6 6.6 0 016.6 6.6v79.8a6.6 6.6 0 01-6.6 6.6h-79.8a6.6 6.6 0 01-6.6-6.6v-79.8a6.6 6.6 0 016.6-6.6z" stroke="url(#paint0_linear-bottom_2-banner-header-1)" stroke-width="2"/><path d="M331.6 433h79.8a6.6 6.6 0 016.6 6.6v79.8a6.6 6.6 0 01-6.6 6.6h-79.8a6.6 6.6 0 01-6.6-6.6v-79.8a6.6 6.6 0 016.6-6.6z" stroke="url(#paint1_linear-bottom_2-banner-header-1)" stroke-width="2"/><path d="M439.6 433h79.8a6.6 6.6 0 016.6 6.6v79.8a6.6 6.6 0 01-6.6 6.6h-79.8a6.6 6.6 0 01-6.6-6.6v-79.8a6.6 6.6 0 016.6-6.6z" stroke="url(#paint2_linear-bottom_2-banner-header-1)" stroke-width="2"/><path d="M115.6 433h79.8a6.6 6.6 0 016.6 6.6v79.8a6.6 6.6 0 01-6.6 6.6h-79.8a6.6 6.6 0 01-6.6-6.6v-79.8a6.6 6.6 0 016.6-6.6z" stroke="url(#paint3_linear-bottom_2-banner-header-1)" stroke-width="2"/><path d="M7.6 433h79.8a6.6 6.6 0 016.6 6.6v79.8a6.6 6.6 0 01-6.6 6.6H7.6a6.6 6.6 0 01-6.6-6.6v-79.8a6.6 6.6 0 016.6-6.6z" stroke="url(#paint4_linear-bottom_2-banner-header-1)" stroke-width="2"/><path d="M439.6 325h79.8a6.6 6.6 0 016.6 6.6v79.8a6.6 6.6 0 01-6.6 6.6h-79.8a6.6 6.6 0 01-6.6-6.6v-79.8a6.6 6.6 0 016.6-6.6z" stroke="url(#paint5_linear-bottom_2-banner-header-1)" stroke-width="2"/><path d="M331.6 325h79.8a6.6 6.6 0 016.6 6.6v79.8a6.6 6.6 0 01-6.6 6.6h-79.8a6.6 6.6 0 01-6.6-6.6v-79.8a6.6 6.6 0 016.6-6.6z" stroke="url(#paint6_linear-bottom_2-banner-header-1)" stroke-width="2"/><path d="M223.6 325h79.8a6.6 6.6 0 016.6 6.6v79.8a6.6 6.6 0 01-6.6 6.6h-79.8a6.6 6.6 0 01-6.6-6.6v-79.8a6.6 6.6 0 016.6-6.6z" stroke="url(#paint7_linear-bottom_2-banner-header-1)" stroke-width="2"/><path d="M115.6 325h79.8a6.6 6.6 0 016.6 6.6v79.8a6.6 6.6 0 01-6.6 6.6h-79.8a6.6 6.6 0 01-6.6-6.6v-79.8a6.6 6.6 0 016.6-6.6z" stroke="url(#paint8_linear-bottom_2-banner-header-1)" stroke-width="2"/><path d="M439.6 217h79.8a6.6 6.6 0 016.6 6.6v79.8a6.6 6.6 0 01-6.6 6.6h-79.8a6.6 6.6 0 01-6.6-6.6v-79.8a6.6 6.6 0 016.6-6.6z" stroke="url(#paint9_linear-bottom_2-banner-header-1)" stroke-width="2"/><path d="M331.6 217h79.8a6.6 6.6 0 016.6 6.6v79.8a6.6 6.6 0 01-6.6 6.6h-79.8a6.6 6.6 0 01-6.6-6.6v-79.8a6.6 6.6 0 016.6-6.6z" stroke="url(#paint10_linear-bottom_2-banner-header-1)" stroke-width="2"/><path d="M223.6 217h79.8a6.6 6.6 0 016.6 6.6v79.8a6.6 6.6 0 01-6.6 6.6h-79.8a6.6 6.6 0 01-6.6-6.6v-79.8a6.6 6.6 0 016.6-6.6z" stroke="url(#paint11_linear-bottom_2-banner-header-1)" stroke-width="2"/><path d="M439.6 109h79.8a6.6 6.6 0 016.6 6.6v79.8a6.6 6.6 0 01-6.6 6.6h-79.8a6.6 6.6 0 01-6.6-6.6v-79.8a6.6 6.6 0 016.6-6.6z" stroke="url(#paint12_linear-bottom_2-banner-header-1)" stroke-width="2"/><path d="M331.6 109h79.8a6.6 6.6 0 016.6 6.6v79.8a6.6 6.6 0 01-6.6 6.6h-79.8a6.6 6.6 0 01-6.6-6.6v-79.8a6.6 6.6 0 016.6-6.6z" stroke="url(#paint13_linear-bottom_2-banner-header-1)" stroke-width="2"/><path d="M439.6 1h79.8a6.6 6.6 0 016.6 6.6v79.8a6.6 6.6 0 01-6.6 6.6h-79.8a6.6 6.6 0 01-6.6-6.6V7.6a6.6 6.6 0 016.6-6.6z" stroke="url(#paint14_linear-bottom_2-banner-header-1)" stroke-width="2"/><defs><linearGradient id="paint0_linear-bottom_2-banner-header-1" x1="-147.074" y1="-946.45" x2="580.626" y2="601.1" gradientUnits="userSpaceOnUse"><stop stop-color="#F7DE52"/><stop offset=".214" stop-color="#FCB5EF" stop-opacity=".38"/><stop offset=".389" stop-color="#FCB5EF" stop-opacity="0"/><stop offset=".637" stop-color="#FCB5EF" stop-opacity="0"/><stop offset=".799" stop-color="#FCB5EF" stop-opacity=".38"/><stop offset="1" stop-color="#F7DE52"/></linearGradient><linearGradient id="paint1_linear-bottom_2-banner-header-1" x1="-147.374" y1="-946.45" x2="580.326" y2="601.1" gradientUnits="userSpaceOnUse"><stop stop-color="#F7DE52"/><stop offset=".214" stop-color="#FCB5EF" stop-opacity=".38"/><stop offset=".389" stop-color="#FCB5EF" stop-opacity="0"/><stop offset=".637" stop-color="#FCB5EF" stop-opacity="0"/><stop offset=".799" stop-color="#FCB5EF" stop-opacity=".38"/><stop offset="1" stop-color="#F7DE52"/></linearGradient><linearGradient id="paint2_linear-bottom_2-banner-header-1" x1="-147.674" y1="-946.45" x2="580.026" y2="601.1" gradientUnits="userSpaceOnUse"><stop stop-color="#F7DE52"/><stop offset=".214" stop-color="#FCB5EF" stop-opacity=".38"/><stop offset=".389" stop-color="#FCB5EF" stop-opacity="0"/><stop offset=".637" stop-color="#FCB5EF" stop-opacity="0"/><stop offset=".799" stop-color="#FCB5EF" stop-opacity=".38"/><stop offset="1" stop-color="#F7DE52"/></linearGradient><linearGradient id="paint3_linear-bottom_2-banner-header-1" x1="-146.774" y1="-946.45" x2="580.926" y2="601.1" gradientUnits="userSpaceOnUse"><stop stop-color="#F7DE52"/><stop offset=".214" stop-color="#FCB5EF" stop-opacity=".38"/><stop offset=".389" stop-color="#FCB5EF" stop-opacity="0"/><stop offset=".637" stop-color="#FCB5EF" stop-opacity="0"/><stop offset=".799" stop-color="#FCB5EF" stop-opacity=".38"/><stop offset="1" stop-color="#F7DE52"/></linearGradient><linearGradient id="paint4_linear-bottom_2-banner-header-1" x1="-146.474" y1="-946.45" x2="581.226" y2="601.1" gradientUnits="userSpaceOnUse"><stop stop-color="#F7DE52"/><stop offset=".214" stop-color="#FCB5EF" stop-opacity=".38"/><stop offset=".389" stop-color="#FCB5EF" stop-opacity="0"/><stop offset=".637" stop-color="#FCB5EF" stop-opacity="0"/><stop offset=".799" stop-color="#FCB5EF" stop-opacity=".38"/><stop offset="1" stop-color="#F7DE52"/></linearGradient><linearGradient id="paint5_linear-bottom_2-banner-header-1" x1="-147.674" y1="-946.15" x2="580.026" y2="601.4" gradientUnits="userSpaceOnUse"><stop stop-color="#F7DE52"/><stop offset=".214" stop-color="#FCB5EF" stop-opacity=".38"/><stop offset=".389" stop-color="#FCB5EF" stop-opacity="0"/><stop offset=".637" stop-color="#FCB5EF" stop-opacity="0"/><stop offset=".799" stop-color="#FCB5EF" stop-opacity=".38"/><stop offset="1" stop-color="#F7DE52"/></linearGradient><linearGradient id="paint6_linear-bottom_2-banner-header-1" x1="-147.374" y1="-946.15" x2="580.326" y2="601.4" gradientUnits="userSpaceOnUse"><stop stop-color="#F7DE52"/><stop offset=".214" stop-color="#FCB5EF" stop-opacity=".38"/><stop offset=".389" stop-color="#FCB5EF" stop-opacity="0"/><stop offset=".637" stop-color="#FCB5EF" stop-opacity="0"/><stop offset=".799" stop-color="#FCB5EF" stop-opacity=".38"/><stop offset="1" stop-color="#F7DE52"/></linearGradient><linearGradient id="paint7_linear-bottom_2-banner-header-1" x1="-147.074" y1="-946.15" x2="580.626" y2="601.4" gradientUnits="userSpaceOnUse"><stop stop-color="#F7DE52"/><stop offset=".214" stop-color="#FCB5EF" stop-opacity=".38"/><stop offset=".389" stop-color="#FCB5EF" stop-opacity="0"/><stop offset=".637" stop-color="#FCB5EF" stop-opacity="0"/><stop offset=".799" stop-color="#FCB5EF" stop-opacity=".38"/><stop offset="1" stop-color="#F7DE52"/></linearGradient><linearGradient id="paint8_linear-bottom_2-banner-header-1" x1="-146.774" y1="-946.15" x2="580.926" y2="601.4" gradientUnits="userSpaceOnUse"><stop stop-color="#F7DE52"/><stop offset=".214" stop-color="#FCB5EF" stop-opacity=".38"/><stop offset=".389" stop-color="#FCB5EF" stop-opacity="0"/><stop offset=".637" stop-color="#FCB5EF" stop-opacity="0"/><stop offset=".799" stop-color="#FCB5EF" stop-opacity=".38"/><stop offset="1" stop-color="#F7DE52"/></linearGradient><linearGradient id="paint9_linear-bottom_2-banner-header-1" x1="-147.674" y1="-945.85" x2="580.026" y2="601.7" gradientUnits="userSpaceOnUse"><stop stop-color="#F7DE52"/><stop offset=".214" stop-color="#FCB5EF" stop-opacity=".38"/><stop offset=".389" stop-color="#FCB5EF" stop-opacity="0"/><stop offset=".637" stop-color="#FCB5EF" stop-opacity="0"/><stop offset=".799" stop-color="#FCB5EF" stop-opacity=".38"/><stop offset="1" stop-color="#F7DE52"/></linearGradient><linearGradient id="paint10_linear-bottom_2-banner-header-1" x1="-147.374" y1="-945.85" x2="580.326" y2="601.7" gradientUnits="userSpaceOnUse"><stop stop-color="#F7DE52"/><stop offset=".214" stop-color="#FCB5EF" stop-opacity=".38"/><stop offset=".389" stop-color="#FCB5EF" stop-opacity="0"/><stop offset=".637" stop-color="#FCB5EF" stop-opacity="0"/><stop offset=".799" stop-color="#FCB5EF" stop-opacity=".38"/><stop offset="1" stop-color="#F7DE52"/></linearGradient><linearGradient id="paint11_linear-bottom_2-banner-header-1" x1="-147.074" y1="-945.85" x2="580.626" y2="601.7" gradientUnits="userSpaceOnUse"><stop stop-color="#F7DE52"/><stop offset=".214" stop-color="#FCB5EF" stop-opacity=".38"/><stop offset=".389" stop-color="#FCB5EF" stop-opacity="0"/><stop offset=".637" stop-color="#FCB5EF" stop-opacity="0"/><stop offset=".799" stop-color="#FCB5EF" stop-opacity=".38"/><stop offset="1" stop-color="#F7DE52"/></linearGradient><linearGradient id="paint12_linear-bottom_2-banner-header-1" x1="-147.674" y1="-945.55" x2="580.026" y2="602" gradientUnits="userSpaceOnUse"><stop stop-color="#F7DE52"/><stop offset=".214" stop-color="#FCB5EF" stop-opacity=".38"/><stop offset=".389" stop-color="#FCB5EF" stop-opacity="0"/><stop offset=".637" stop-color="#FCB5EF" stop-opacity="0"/><stop offset=".799" stop-color="#FCB5EF" stop-opacity=".38"/><stop offset="1" stop-color="#F7DE52"/></linearGradient><linearGradient id="paint13_linear-bottom_2-banner-header-1" x1="-147.374" y1="-945.55" x2="580.326" y2="602" gradientUnits="userSpaceOnUse"><stop stop-color="#F7DE52"/><stop offset=".214" stop-color="#FCB5EF" stop-opacity=".38"/><stop offset=".389" stop-color="#FCB5EF" stop-opacity="0"/><stop offset=".637" stop-color="#FCB5EF" stop-opacity="0"/><stop offset=".799" stop-color="#FCB5EF" stop-opacity=".38"/><stop offset="1" stop-color="#F7DE52"/></linearGradient><linearGradient id="paint14_linear-bottom_2-banner-header-1" x1="-147.674" y1="-945.25" x2="580.026" y2="602.3" gradientUnits="userSpaceOnUse"><stop stop-color="#F7DE52"/><stop offset=".214" stop-color="#FCB5EF" stop-opacity=".38"/><stop offset=".389" stop-color="#FCB5EF" stop-opacity="0"/><stop offset=".637" stop-color="#FCB5EF" stop-opacity="0"/><stop offset=".799" stop-color="#FCB5EF" stop-opacity=".38"/><stop offset="1" stop-color="#F7DE52"/></linearGradient></defs></svg>