<svg preserveAspectRatio="xMinYMin meet" width="635" height="106" fill="none" xmlns="http://www.w3.org/2000/svg"><path d="M22.15 0L0 104.06h91L113.15 0h-91z" fill="url(#paint0_linear_376-nftinder-logo-big-header)"/><path fill-rule="evenodd" clip-rule="evenodd" d="M183.911 104.06l8.575-40.286h-.101l-8.474 40.286zm12.594-59.165l5.542-26.015-5.649 26.015h.107z" fill="#fff"/><path fill-rule="evenodd" clip-rule="evenodd" d="M183.911 104.06l8.575-40.286h-.101l-8.474 40.286zm12.594-59.165l5.542-26.015-5.649 26.015h.107z" fill="url(#paint1_linear_376-nftinder-logo-big-header)"/><path d="M184.803 0l-21.14 99.316L152.99 0h-39.84L91 104.06h21.258l21.11-99.6 10.703 99.6h39.84l8.474-40.286h43.408l4.014-18.88h-43.409l5.649-26.014h76.857l-18.137 85.18h21.258l18.137-85.18h22.721L326.897 0H184.803z" fill="#fff"/><path d="M184.803 0l-21.14 99.316L152.99 0h-39.84L91 104.06h21.258l21.11-99.6 10.703 99.6h39.84l8.474-40.286h43.408l4.014-18.88h-43.409l5.649-26.014h76.857l-18.137 85.18h21.258l18.137-85.18h22.721L326.897 0H184.803z" fill="url(#paint2_linear_376-nftinder-logo-big-header)"/><path d="M351.294 0h-17.351l-4.013 18.88h17.35L351.294 0z" fill="#fff"/><path d="M351.294 0h-17.351l-4.013 18.88h17.35L351.294 0z" fill="url(#paint3_linear_376-nftinder-logo-big-header)"/><path d="M311.791 104l15.26-71.004h17.026L329.069 104h-17.278z" fill="#fff"/><path d="M311.791 104l15.26-71.004h17.026L329.069 104h-17.278z" fill="url(#paint4_linear_376-nftinder-logo-big-header)"/><path d="M346.258 104l14.882-69.995 13.747-1.01-.126 5.298c5.381-4.624 12.654-6.937 21.818-6.937 5.129 0 9.375.589 12.738 1.766 3.363 1.093 5.886 2.522 7.567 4.288 1.682 1.766 2.733 4.162 3.153 7.189.505 2.942.631 5.801.378 8.576-.252 2.69-.798 6.053-1.639 10.09L410.074 104h-17.152l8.198-38.844c.588-3.28 1.008-6.18 1.261-8.702.252-2.523-.673-4.54-2.775-6.054-2.018-1.597-5.423-2.396-10.215-2.396-5.55 0-9.543 1.345-11.982 4.036-2.438 2.69-4.204 6.6-5.297 11.729L363.663 104h-17.405z" fill="#fff"/><path d="M346.258 104l14.882-69.995 13.747-1.01-.126 5.298c5.381-4.624 12.654-6.937 21.818-6.937 5.129 0 9.375.589 12.738 1.766 3.363 1.093 5.886 2.522 7.567 4.288 1.682 1.766 2.733 4.162 3.153 7.189.505 2.942.631 5.801.378 8.576-.252 2.69-.798 6.053-1.639 10.09L410.074 104h-17.152l8.198-38.844c.588-3.28 1.008-6.18 1.261-8.702.252-2.523-.673-4.54-2.775-6.054-2.018-1.597-5.423-2.396-10.215-2.396-5.55 0-9.543 1.345-11.982 4.036-2.438 2.69-4.204 6.6-5.297 11.729L363.663 104h-17.405z" fill="url(#paint5_linear_376-nftinder-logo-big-header)"/><path d="M455.074 105.135c-17.572 0-26.358-8.576-26.358-25.728 0-4.12.63-9.038 1.891-14.756 2.355-11.014 6.096-19.296 11.225-24.845 5.213-5.633 12.864-8.45 22.953-8.45 12.696 0 20.515 2.69 23.458 8.072l7.315-33.295h17.278l-20.683 97.11-13.369 1.388.253-6.18c-4.793 4.456-12.78 6.684-23.963 6.684zm6.558-15.134c5.97 0 10.51-1.387 13.621-4.162 3.111-2.858 5.465-7.987 7.063-15.386.756-3.027 1.135-6.264 1.135-9.711 0-4.625-1.262-8.03-3.784-10.216s-6.684-3.279-12.485-3.279c-5.718 0-9.964 1.598-12.738 4.793-2.775 3.195-4.919 8.197-6.432 15.008-.757 3.363-1.135 6.6-1.135 9.71 0 4.289 1.093 7.568 3.279 9.838 2.27 2.27 6.095 3.405 11.476 3.405z" fill="#fff"/><path d="M455.074 105.135c-17.572 0-26.358-8.576-26.358-25.728 0-4.12.63-9.038 1.891-14.756 2.355-11.014 6.096-19.296 11.225-24.845 5.213-5.633 12.864-8.45 22.953-8.45 12.696 0 20.515 2.69 23.458 8.072l7.315-33.295h17.278l-20.683 97.11-13.369 1.388.253-6.18c-4.793 4.456-12.78 6.684-23.963 6.684zm6.558-15.134c5.97 0 10.51-1.387 13.621-4.162 3.111-2.858 5.465-7.987 7.063-15.386.756-3.027 1.135-6.264 1.135-9.711 0-4.625-1.262-8.03-3.784-10.216s-6.684-3.279-12.485-3.279c-5.718 0-9.964 1.598-12.738 4.793-2.775 3.195-4.919 8.197-6.432 15.008-.757 3.363-1.135 6.6-1.135 9.71 0 4.289 1.093 7.568 3.279 9.838 2.27 2.27 6.095 3.405 11.476 3.405z" fill="url(#paint6_linear_376-nftinder-logo-big-header)"/><path d="M542.64 105.387c-20.935 0-31.403-8.996-31.403-26.989 0-3.951.504-8.534 1.513-13.747 2.186-10.846 6.348-19.085 12.486-24.719 6.138-5.717 14.84-8.576 26.106-8.576 18.75 0 28.125 7.315 28.125 21.945 0 5.633-1.009 12.948-3.027 21.944h-48.682v1.514c0 9.416 5.634 14.125 16.9 14.125 8.324 0 15.26-1.724 20.81-5.17l6.81 12.359c-7.315 4.876-17.194 7.314-29.638 7.314zm6.684-59.149c-5.128 0-9.206 1.303-12.233 3.91-2.943 2.606-5.213 6.474-6.81 11.603h32.412c.42-2.102.631-3.952.631-5.55 0-3.194-1.051-5.633-3.153-7.314-2.018-1.766-5.634-2.649-10.847-2.649z" fill="#fff"/><path d="M542.64 105.387c-20.935 0-31.403-8.996-31.403-26.989 0-3.951.504-8.534 1.513-13.747 2.186-10.846 6.348-19.085 12.486-24.719 6.138-5.717 14.84-8.576 26.106-8.576 18.75 0 28.125 7.315 28.125 21.945 0 5.633-1.009 12.948-3.027 21.944h-48.682v1.514c0 9.416 5.634 14.125 16.9 14.125 8.324 0 15.26-1.724 20.81-5.17l6.81 12.359c-7.315 4.876-17.194 7.314-29.638 7.314zm6.684-59.149c-5.128 0-9.206 1.303-12.233 3.91-2.943 2.606-5.213 6.474-6.81 11.603h32.412c.42-2.102.631-3.952.631-5.55 0-3.194-1.051-5.633-3.153-7.314-2.018-1.766-5.634-2.649-10.847-2.649z" fill="url(#paint7_linear_376-nftinder-logo-big-header)"/><path d="M583.348 104l14.882-69.995 13.746-1.01-.252 6.937c3.868-5.213 11.477-7.819 22.827-7.819l-3.531 16.774c-7.399.084-12.696 1.555-15.891 4.414-3.111 2.858-5.339 7.44-6.684 13.747L600.626 104h-17.278z" fill="#fff"/><path d="M583.348 104l14.882-69.995 13.746-1.01-.252 6.937c3.868-5.213 11.477-7.819 22.827-7.819l-3.531 16.774c-7.399.084-12.696 1.555-15.891 4.414-3.111 2.858-5.339 7.44-6.684 13.747L600.626 104h-17.278z" fill="url(#paint8_linear_376-nftinder-logo-big-header)"/><defs><linearGradient id="paint0_linear_376-nftinder-logo-big-header" x1="7.489" y1="51.994" x2="147.215" y2="71.168" gradientUnits="userSpaceOnUse"><stop stop-color="#6FDCFF" stop-opacity="0"/><stop offset="1" stop-color="#FF248D"/></linearGradient><linearGradient id="paint1_linear_376-nftinder-logo-big-header" x1="634.548" y1="52.768" x2="100.872" y2="52.768" gradientUnits="userSpaceOnUse"><stop offset=".166" stop-color="#6FDCFF"/><stop offset=".795" stop-color="#FF008A"/></linearGradient><linearGradient id="paint2_linear_376-nftinder-logo-big-header" x1="634.548" y1="52.768" x2="100.872" y2="52.768" gradientUnits="userSpaceOnUse"><stop offset=".166" stop-color="#6FDCFF"/><stop offset=".795" stop-color="#FF008A"/></linearGradient><linearGradient id="paint3_linear_376-nftinder-logo-big-header" x1="634.548" y1="52.768" x2="100.872" y2="52.768" gradientUnits="userSpaceOnUse"><stop offset=".166" stop-color="#6FDCFF"/><stop offset=".795" stop-color="#FF008A"/></linearGradient><linearGradient id="paint4_linear_376-nftinder-logo-big-header" x1="634.548" y1="52.768" x2="100.872" y2="52.768" gradientUnits="userSpaceOnUse"><stop offset=".166" stop-color="#6FDCFF"/><stop offset=".795" stop-color="#FF008A"/></linearGradient><linearGradient id="paint5_linear_376-nftinder-logo-big-header" x1="634.548" y1="52.768" x2="100.872" y2="52.768" gradientUnits="userSpaceOnUse"><stop offset=".166" stop-color="#6FDCFF"/><stop offset=".795" stop-color="#FF008A"/></linearGradient><linearGradient id="paint6_linear_376-nftinder-logo-big-header" x1="634.548" y1="52.768" x2="100.872" y2="52.768" gradientUnits="userSpaceOnUse"><stop offset=".166" stop-color="#6FDCFF"/><stop offset=".795" stop-color="#FF008A"/></linearGradient><linearGradient id="paint7_linear_376-nftinder-logo-big-header" x1="634.548" y1="52.768" x2="100.872" y2="52.768" gradientUnits="userSpaceOnUse"><stop offset=".166" stop-color="#6FDCFF"/><stop offset=".795" stop-color="#FF008A"/></linearGradient><linearGradient id="paint8_linear_376-nftinder-logo-big-header" x1="634.548" y1="52.768" x2="100.872" y2="52.768" gradientUnits="userSpaceOnUse"><stop offset=".166" stop-color="#6FDCFF"/><stop offset=".795" stop-color="#FF008A"/></linearGradient></defs></svg>