<svg width="66" height="52" fill="none" xmlns="http://www.w3.org/2000/svg"><g filter="url(#filter0_d_274-app-mob-icon-switch-mode)"><path d="M54.671 13.842a2.615 2.615 0 00-2.586-2.227H38.038a2.615 2.615 0 00-2.587 3.004l3.93 26.154A2.615 2.615 0 0041.968 43h14.047c1.6 0 2.824-1.423 2.586-3.004l-3.93-26.154z" fill="url(#paint0_linear_274-app-mob-icon-switch-mode)"/><path d="M54.671 13.842a2.615 2.615 0 00-2.586-2.227H38.038a2.615 2.615 0 00-2.587 3.004l3.93 26.154A2.615 2.615 0 0041.968 43h14.047c1.6 0 2.824-1.423 2.586-3.004l-3.93-26.154z" fill="url(#paint1_linear_274-app-mob-icon-switch-mode)"/></g><g filter="url(#filter1_d_274-app-mob-icon-switch-mode)"><path d="M59.902 11.227A2.616 2.616 0 0057.315 9H43.268a2.615 2.615 0 00-2.586 3.004l3.93 26.154a2.615 2.615 0 002.586 2.227h14.047c1.6 0 2.824-1.423 2.587-3.005l-3.93-26.153z" fill="url(#paint2_linear_274-app-mob-icon-switch-mode)"/></g><g filter="url(#filter2_d_274-app-mob-icon-switch-mode)"><path d="M22.671 13.842a2.615 2.615 0 00-2.586-2.227H6.038A2.615 2.615 0 003.45 14.62l3.93 26.154A2.615 2.615 0 009.968 43h14.047c1.6 0 2.824-1.423 2.586-3.004l-3.93-26.154z" fill="url(#paint3_linear_274-app-mob-icon-switch-mode)"/></g><defs><linearGradient id="paint0_linear_274-app-mob-icon-switch-mode" x1="59.053" y1="27.297" x2="32.363" y2="27.297" gradientUnits="userSpaceOnUse"><stop stop-color="#6FDCFF"/><stop offset="1" stop-color="#FF248D"/></linearGradient><linearGradient id="paint1_linear_274-app-mob-icon-switch-mode" x1="54.687" y1="27.308" x2="30.765" y2="27.308" gradientUnits="userSpaceOnUse"><stop stop-color="#6FDCFF"/><stop offset="1" stop-color="#24FF3A"/></linearGradient><linearGradient id="paint2_linear_274-app-mob-icon-switch-mode" x1="64.283" y1="24.681" x2="37.593" y2="24.681" gradientUnits="userSpaceOnUse"><stop stop-color="#6FDCFF"/><stop offset="1" stop-color="#FF248D"/></linearGradient><linearGradient id="paint3_linear_274-app-mob-icon-switch-mode" x1="22.687" y1="27.308" x2="-1.235" y2="27.308" gradientUnits="userSpaceOnUse"><stop stop-color="#6FDCFF"/><stop offset="1" stop-color="#24FF3A"/></linearGradient><filter id="filter0_d_274-app-mob-icon-switch-mode" x="32.206" y="9.214" width="28.011" height="36.187" filterUnits="userSpaceOnUse" color-interpolation-filters="sRGB"><feFlood flood-opacity="0" result="BackgroundImageFix"/><feColorMatrix in="SourceAlpha" values="0 0 0 0 0 0 0 0 0 0 0 0 0 0 0 0 0 0 127 0" result="hardAlpha"/><feOffset dx="-.815"/><feGaussianBlur stdDeviation="1.2"/><feComposite in2="hardAlpha" operator="out"/><feColorMatrix values="0 0 0 0 0 0 0 0 0 0.325 0 0 0 0 0.0326484 0 0 0 0.25 0"/><feBlend in2="BackgroundImageFix" result="effect1_dropShadow_274-app-mob-icon-switch-mode"/><feBlend in="SourceGraphic" in2="effect1_dropShadow_274-app-mob-icon-switch-mode" result="shape"/></filter><filter id="filter1_d_274-app-mob-icon-switch-mode" x="37.437" y="6.599" width="28.011" height="36.187" filterUnits="userSpaceOnUse" color-interpolation-filters="sRGB"><feFlood flood-opacity="0" result="BackgroundImageFix"/><feColorMatrix in="SourceAlpha" values="0 0 0 0 0 0 0 0 0 0 0 0 0 0 0 0 0 0 127 0" result="hardAlpha"/><feOffset dx="-.815"/><feGaussianBlur stdDeviation="1.2"/><feComposite in2="hardAlpha" operator="out"/><feColorMatrix values="0 0 0 0 0 0 0 0 0 0.325 0 0 0 0 0.0326484 0 0 0 0.25 0"/><feBlend in2="BackgroundImageFix" result="effect1_dropShadow_274-app-mob-icon-switch-mode"/><feBlend in="SourceGraphic" in2="effect1_dropShadow_274-app-mob-icon-switch-mode" result="shape"/></filter><filter id="filter2_d_274-app-mob-icon-switch-mode" x=".206" y="9.214" width="28.011" height="36.187" filterUnits="userSpaceOnUse" color-interpolation-filters="sRGB"><feFlood flood-opacity="0" result="BackgroundImageFix"/><feColorMatrix in="SourceAlpha" values="0 0 0 0 0 0 0 0 0 0 0 0 0 0 0 0 0 0 127 0" result="hardAlpha"/><feOffset dx="-.815"/><feGaussianBlur stdDeviation="1.2"/><feComposite in2="hardAlpha" operator="out"/><feColorMatrix values="0 0 0 0 0 0 0 0 0 0.325 0 0 0 0 0.0326484 0 0 0 0.25 0"/><feBlend in2="BackgroundImageFix" result="effect1_dropShadow_274-app-mob-icon-switch-mode"/><feBlend in="SourceGraphic" in2="effect1_dropShadow_274-app-mob-icon-switch-mode" result="shape"/></filter></defs></svg>