<svg width="390" height="190" fill="none" xmlns="http://www.w3.org/2000/svg"><path d="M383 100.5a6.5 6.5 0 016.5 6.5v76a6.5 6.5 0 01-6.5 6.5h-76a6.5 6.5 0 01-6.5-6.5v-76a6.5 6.5 0 016.5-6.5h76zm-176 0h76a6.5 6.5 0 016.5 6.5v76a6.5 6.5 0 01-6.5 6.5h-76a6.5 6.5 0 01-6.5-6.5v-76a6.5 6.5 0 016.5-6.5zm-100 0h76a6.5 6.5 0 016.5 6.5v76a6.5 6.5 0 01-6.5 6.5h-76a6.5 6.5 0 01-6.5-6.5v-76a6.5 6.5 0 016.5-6.5zm-100 0h76a6.5 6.5 0 016.5 6.5v76a6.5 6.5 0 01-6.5 6.5H7A6.5 6.5 0 01.5 183v-76a6.5 6.5 0 016.5-6.5zM7 .5h76A6.5 6.5 0 0189.5 7v76a6.5 6.5 0 01-6.5 6.5H7A6.5 6.5 0 01.5 83V7A6.5 6.5 0 017 .5zm100 0h76a6.5 6.5 0 016.5 6.5v76a6.5 6.5 0 01-6.5 6.5h-76a6.5 6.5 0 01-6.5-6.5V7A6.5 6.5 0 01107 .5zm100 0h76a6.5 6.5 0 016.5 6.5v76a6.5 6.5 0 01-6.5 6.5h-76a6.5 6.5 0 01-6.5-6.5V7A6.5 6.5 0 01207 .5zm100 0h76a6.5 6.5 0 016.5 6.5v76a6.5 6.5 0 01-6.5 6.5h-76a6.5 6.5 0 01-6.5-6.5V7A6.5 6.5 0 01307 .5z" stroke="url(#paint0_linear_54:774)"/><path d="M383 100.5a6.5 6.5 0 016.5 6.5v76a6.5 6.5 0 01-6.5 6.5h-76a6.5 6.5 0 01-6.5-6.5v-76a6.5 6.5 0 016.5-6.5h76zm-176 0h76a6.5 6.5 0 016.5 6.5v76a6.5 6.5 0 01-6.5 6.5h-76a6.5 6.5 0 01-6.5-6.5v-76a6.5 6.5 0 016.5-6.5zm-100 0h76a6.5 6.5 0 016.5 6.5v76a6.5 6.5 0 01-6.5 6.5h-76a6.5 6.5 0 01-6.5-6.5v-76a6.5 6.5 0 016.5-6.5zm-100 0h76a6.5 6.5 0 016.5 6.5v76a6.5 6.5 0 01-6.5 6.5H7A6.5 6.5 0 01.5 183v-76a6.5 6.5 0 016.5-6.5zM7 .5h76A6.5 6.5 0 0189.5 7v76a6.5 6.5 0 01-6.5 6.5H7A6.5 6.5 0 01.5 83V7A6.5 6.5 0 017 .5zm100 0h76a6.5 6.5 0 016.5 6.5v76a6.5 6.5 0 01-6.5 6.5h-76a6.5 6.5 0 01-6.5-6.5V7A6.5 6.5 0 01107 .5zm100 0h76a6.5 6.5 0 016.5 6.5v76a6.5 6.5 0 01-6.5 6.5h-76a6.5 6.5 0 01-6.5-6.5V7A6.5 6.5 0 01207 .5zm100 0h76a6.5 6.5 0 016.5 6.5v76a6.5 6.5 0 01-6.5 6.5h-76a6.5 6.5 0 01-6.5-6.5V7A6.5 6.5 0 01307 .5z" stroke="url(#paint1_linear_54:774)"/><defs><linearGradient id="paint0_linear_54:774" x1="195" y1="-11.5" x2="195" y2="190" gradientUnits="userSpaceOnUse"><stop stop-color="#F7DE52"/><stop offset=".151" stop-color="#FCB5EF" stop-opacity="0"/><stop offset=".887" stop-color="#FCB5EF" stop-opacity="0"/><stop offset="1" stop-color="#F7DE52"/></linearGradient><linearGradient id="paint1_linear_54:774" x1="0" y1="95" x2="390" y2="95" gradientUnits="userSpaceOnUse"><stop stop-color="#F7DE52"/><stop offset=".055" stop-color="#FCB5EF" stop-opacity="0"/><stop offset=".945" stop-color="#FCB5EF" stop-opacity="0"/><stop offset="1" stop-color="#F7DE52"/></linearGradient></defs></svg>