<svg preserveAspectRatio="xMinYMin meet" width="842" height="598" fill="none" xmlns="http://www.w3.org/2000/svg"><path d="M-34 36C-34 16.118-17.882 0 2 0h809.474c19.857 0 34.236 18.944 28.895 38.07L690.125 576.068A30 30 0 01661.23 598H2c-19.882 0-36-16.118-36-36V36z" fill="url(#paint0_linear_54:909)" fill-opacity=".08"/><path d="M-32.5 36C-32.5 16.946-17.054 1.5 2 1.5h809.474c18.864 0 32.524 17.997 27.45 36.166l-150.244 538a28.501 28.501 0 01-27.45 20.834H2c-19.054 0-34.5-15.446-34.5-34.5V36z" stroke="url(#paint1_linear_54:909)" stroke-opacity=".15" stroke-width="3"/><defs><linearGradient id="paint0_linear_54:909" x1="537.655" y1="647.997" x2="319.549" y2="-99.299" gradientUnits="userSpaceOnUse"><stop stop-color="#6FDCFF"/><stop offset="1" stop-color="#FF248D" stop-opacity="0"/></linearGradient><linearGradient id="paint1_linear_54:909" x1="548.243" y1="682.984" x2="75.552" y2="469.715" gradientUnits="userSpaceOnUse"><stop stop-color="#6FDCFF"/><stop offset="1" stop-color="#FF248D"/></linearGradient></defs></svg>