<svg width="17" height="16" viewBox="0 0 17 16" fill="none" xmlns="http://www.w3.org/2000/svg">
<path d="M2.47411 13.34C2.53397 13.7179 2.85975 13.9961 3.24233 13.9961L16.2008 13.9961C16.6789 13.9961 17.0439 13.5688 16.969 13.0966L15.8601 6.09664C15.8002 5.71877 15.4745 5.44054 15.0919 5.44054L2.13338 5.44054C1.65527 5.44054 1.29035 5.86783 1.36516 6.34005L2.47411 13.34Z" fill="url(#paint0_linear_900_1495)"/>
<path d="M14.6372 9.89956C14.5774 10.2774 14.2516 10.5557 13.869 10.5557L0.910509 10.5557C0.4324 10.5557 0.0674753 10.1284 0.142285 9.65616L1.25123 2.65621C1.3111 2.27834 1.63687 2.00011 2.01946 2.00011L14.9779 2.00011C15.4561 2.00011 15.821 2.4274 15.7462 2.89962L14.6372 9.89956Z" fill="url(#paint1_linear_900_1495)"/>
<g filter="url(#filter0_d_900_1495)">
<path d="M6.22955 6.11426C6.17575 5.73012 5.84715 5.44434 5.45927 5.44434L2.11721 5.44434C1.64473 5.44434 1.28139 5.86212 1.34692 6.33002L2.3273 13.33C2.3811 13.7141 2.7097 13.9999 3.09759 13.9999L6.43965 13.9999C6.91212 13.9999 7.27547 13.5821 7.20994 13.1142L6.22955 6.11426Z" fill="url(#paint2_linear_900_1495)"/>
</g>
<g filter="url(#filter1_d_900_1495)">
<path d="M15.7749 2.8778C15.8352 2.41242 15.4728 2 15.0035 2L11.5701 2C11.1792 2 10.849 2.29014 10.7988 2.67781L9.89135 9.67776C9.83102 10.1431 10.1934 10.5556 10.6627 10.5556L14.0961 10.5556C14.487 10.5556 14.8172 10.2654 14.8674 9.87774L15.7749 2.8778Z" fill="url(#paint3_linear_900_1495)"/>
</g>
<defs>
<filter id="filter0_d_900_1495" x="0.441889" y="4.77423" width="7.21864" height="9.89588" filterUnits="userSpaceOnUse" color-interpolation-filters="sRGB">
<feFlood flood-opacity="0" result="BackgroundImageFix"/>
<feColorMatrix in="SourceAlpha" type="matrix" values="0 0 0 0 0 0 0 0 0 0 0 0 0 0 0 0 0 0 127 0" result="hardAlpha"/>
<feOffset dx="-0.227358"/>
<feGaussianBlur stdDeviation="0.335054"/>
<feComposite in2="hardAlpha" operator="out"/>
<feColorMatrix type="matrix" values="0 0 0 0 0 0 0 0 0 0.325 0 0 0 0 0.0326484 0 0 0 0.25 0"/>
<feBlend mode="normal" in2="BackgroundImageFix" result="effect1_dropShadow_900_1495"/>
<feBlend mode="normal" in="SourceGraphic" in2="effect1_dropShadow_900_1495" result="shape"/>
</filter>
<filter id="filter1_d_900_1495" x="8.9873" y="1.32989" width="7.2367" height="9.89588" filterUnits="userSpaceOnUse" color-interpolation-filters="sRGB">
<feFlood flood-opacity="0" result="BackgroundImageFix"/>
<feColorMatrix in="SourceAlpha" type="matrix" values="0 0 0 0 0 0 0 0 0 0 0 0 0 0 0 0 0 0 127 0" result="hardAlpha"/>
<feOffset dx="-0.227358"/>
<feGaussianBlur stdDeviation="0.335054"/>
<feComposite in2="hardAlpha" operator="out"/>
<feColorMatrix type="matrix" values="0 0 0 0 0 0 0 0 0 0.325 0 0 0 0 0.0326484 0 0 0 0.25 0"/>
<feBlend mode="normal" in2="BackgroundImageFix" result="effect1_dropShadow_900_1495"/>
<feBlend mode="normal" in="SourceGraphic" in2="effect1_dropShadow_900_1495" result="shape"/>
</filter>
<linearGradient id="paint0_linear_900_1495" x1="17.2473" y1="9.7183" x2="1.22266" y2="9.7183" gradientUnits="userSpaceOnUse">
<stop stop-color="#FF248D" stop-opacity="0"/>
<stop offset="1" stop-color="#6FDCFF"/>
</linearGradient>
<linearGradient id="paint1_linear_900_1495" x1="15.8887" y1="6.27789" x2="0.645671" y2="6.27789" gradientUnits="userSpaceOnUse">
<stop stop-color="#24FF3A"/>
<stop offset="1" stop-color="#6FDCFF" stop-opacity="0"/>
</linearGradient>
<linearGradient id="paint2_linear_900_1495" x1="7.33398" y1="9.71915" x2="0.552941" y2="9.71915" gradientUnits="userSpaceOnUse">
<stop stop-color="#6FDCFF"/>
<stop offset="1" stop-color="#FF248D"/>
</linearGradient>
<linearGradient id="paint3_linear_900_1495" x1="14.7796" y1="6.27778" x2="8.70174" y2="6.27778" gradientUnits="userSpaceOnUse">
<stop stop-color="#6FDCFF"/>
<stop offset="1" stop-color="#24FF3A"/>
</linearGradient>
</defs>
</svg>
